<?xml version="1.0" encoding="utf-8"?>
<!-- Generator: Adobe Illustrator 27.0.0, SVG Export Plug-In . SVG Version: 6.00 Build 0)  -->
<svg version="1.1" id="Слой_1" xmlns="http://www.w3.org/2000/svg" xmlns:xlink="http://www.w3.org/1999/xlink" x="0px" y="0px"
	 viewBox="0 0 200 150" style="enable-background:new 0 0 200 150;" xml:space="preserve">
<style type="text/css">
	.st0{fill:#007A3D;}
	.st1{fill:#FFFFFF;}
</style>
<rect class="st0" width="200" height="150"/>
<g transform="translate(-1.8222656,-2.5957797)">
	<path class="st1" d="M147,75.5c-1.2,1.4-2.8,2.8-4.8,4.2c-2,1.4-4.5,2.7-7.5,3.8c-3,1.1-6.5,2.1-10.4,2.9c-4,0.8-8.5,1.3-13.6,1.5
		c-0.5,1.5-1,3.1-1.5,4.9c-0.5,1.7-1,3.6-1.5,5.7h-0.3c-0.2-0.2-0.4-0.5-0.6-0.9c-0.2-0.4-0.3-0.9-0.4-1.6c0.2-1.4,0.5-2.7,0.7-4
		c0.3-1.3,0.5-2.7,0.8-4c-2.2,0-4.3-0.3-6.2-1c-0.1,9.5-2.1,18.2-6.1,26.1c-4.3,8.6-13.1,13-26.6,13c-5.4,0-9.9-1.8-13.3-5.3
		c-3.5-3.6-5.2-8.1-5.2-13.5c0-5.7,2.4-12.7,7.2-21l1.2,0.5c-3.2,6.7-4.8,12.1-4.8,16.2c0,2.1,0.5,4.1,1.4,5.7
		c0.9,1.7,2.3,3.1,4,4.3c1.7,1.2,3.8,2.1,6.3,2.7c2.5,0.6,5.3,1,8.4,1c4.8,0,9.2-0.9,13.3-2.8c4.1-1.8,6.9-4.1,8.3-7
		c1.3-2.7,2-6.8,2-12.1c0-2.9-0.4-5.7-1.2-8.6c-0.8-2.9-1.9-5.4-3.3-7.6l3.6-8.6c0.7,1.2,1.4,2.5,2.1,3.8c0.7,1.4,1.2,2.6,1.5,3.6
		c1.3,0.6,2.5,1.1,3.8,1.3c1.3,0.2,2.6,0.4,4,0.4c0.5,0,1,0,1.5,0c0.5,0,1.1,0,1.6-0.1c2.4-4.4,5-8.5,7.7-12.2
		c2.8-3.7,5.6-6.9,8.6-9.6c2.6-2.3,5-4.2,7.4-5.5c2.4-1.3,4.3-2,5.9-2c1.6,0,3.1,0.3,4.5,1c1.4,0.7,2.7,1.5,3.8,2.4c1.1,1,2,2,2.6,3
		c0.7,1,1,2,1,2.8c0,2-0.2,3.8-0.5,5.5c-0.3,1.7-0.8,3.2-1.4,4.5c-0.6,1.3-1.2,2.6-1.9,3.7C148.5,73.6,147.8,74.6,147,75.5z
		 M138.8,59.3c-1.2,0-2.7,0.4-4.6,1.3c-1.8,0.9-3.8,2.1-6,3.8c-2.1,1.6-4.4,3.7-6.6,6.1c-2.3,2.4-4.4,5.2-6.4,8.2
		c0.7,0,1.4,0,2.1-0.1c0.7,0,1.5-0.1,2.4-0.2c3.1-0.2,6.2-0.8,9.2-1.6c3-0.8,6.3-2,9.7-3.5c2.7-1.2,4.9-2.4,6.6-3.7
		c1.7-1.3,2.8-2.4,3.3-3.3c-0.5-0.8-1.2-1.7-1.9-2.5c-0.7-0.9-1.5-1.6-2.4-2.3c-0.9-0.7-1.8-1.2-2.7-1.6
		C140.5,59.5,139.6,59.3,138.8,59.3L138.8,59.3z M127.1,34.9l-4.6,7.7l-6.2-5.9l4.6-7.5L127.1,34.9z"/>
</g>
</svg>
