<svg xmlns="http://www.w3.org/2000/svg" version="1.1" xmlns:xlink="http://www.w3.org/1999/xlink" xmlns:svgjs="http://svgjs.com/svgjs" width="512" height="512" x="0" y="0" viewBox="0 0 24 24" style="enable-background:new 0 0 512 512" xml:space="preserve" class=""><g><path d="M18.5 3h-.642A4 4 0 0 0 14 0h-4a4 4 0 0 0-3.858 3H5.5A5.506 5.506 0 0 0 0 8.5v10A5.506 5.506 0 0 0 5.5 24h13a5.507 5.507 0 0 0 5.5-5.5v-10A5.507 5.507 0 0 0 18.5 3Zm-13 3h13A2.5 2.5 0 0 1 21 8.5V11H3V8.5A2.5 2.5 0 0 1 5.5 6Zm13 15h-13A2.5 2.5 0 0 1 3 18.5V14h7a2 2 0 0 0 2 2 2 2 0 0 0 2-2h7v4.5a2.5 2.5 0 0 1-2.5 2.5Z" fill="#8e88a4" data-original="#000000" class=""></path></g></svg>