<svg xmlns="http://www.w3.org/2000/svg" version="1.1" xmlns:xlink="http://www.w3.org/1999/xlink" xmlns:svgjs="http://svgjs.com/svgjs" width="512" height="512" x="0" y="0" viewBox="0 0 512 512" style="enable-background:new 0 0 512 512" xml:space="preserve" class=""><g><path d="M117.333 234.667C52.532 234.667 0 182.135 0 117.333S52.532 0 117.333 0s117.333 52.532 117.333 117.333c-.07 64.773-52.56 117.263-117.333 117.334zm0-170.667C87.878 64 64 87.878 64 117.333s23.878 53.333 53.333 53.333 53.333-23.878 53.333-53.333S146.789 64 117.333 64zM394.667 234.667c-64.801 0-117.333-52.532-117.333-117.333S329.865 0 394.667 0 512 52.532 512 117.333c-.071 64.773-52.561 117.263-117.333 117.334zm0-170.667c-29.455 0-53.333 23.878-53.333 53.333s23.878 53.333 53.333 53.333S448 146.789 448 117.333 424.122 64 394.667 64zM117.333 512C52.532 512 0 459.468 0 394.667s52.532-117.333 117.333-117.333 117.333 52.532 117.333 117.333c-.07 64.772-52.56 117.262-117.333 117.333zm0-170.667C87.878 341.333 64 365.211 64 394.667S87.878 448 117.333 448s53.333-23.878 53.333-53.333-23.877-53.334-53.333-53.334zM394.667 512c-64.801 0-117.333-52.532-117.333-117.333s52.532-117.333 117.333-117.333S512 329.865 512 394.667c-.071 64.772-52.561 117.262-117.333 117.333zm0-170.667c-29.455 0-53.333 23.878-53.333 53.333S365.211 448 394.667 448 448 424.122 448 394.667s-23.878-53.334-53.333-53.334z" fill="#8e88a4" data-original="#000000" class=""></path></g></svg>