<svg xmlns="http://www.w3.org/2000/svg" version="1.1" xmlns:xlink="http://www.w3.org/1999/xlink" xmlns:svgjs="http://svgjs.com/svgjs" width="512" height="512" x="0" y="0" viewBox="0 0 24 24" style="enable-background:new 0 0 512 512" xml:space="preserve" class=""><g><path d="M11.5 16a1.5 1.5 0 0 0-1.5 1.5v.8A2.7 2.7 0 0 1 7.3 21H5.7A2.7 2.7 0 0 1 3 18.3V5.7A2.7 2.7 0 0 1 5.7 3h1.6A2.7 2.7 0 0 1 10 5.7v.8a1.5 1.5 0 0 0 3 0v-.8A5.706 5.706 0 0 0 7.3 0H5.7A5.706 5.706 0 0 0 0 5.7v12.6A5.706 5.706 0 0 0 5.7 24h1.6a5.706 5.706 0 0 0 5.7-5.7v-.8a1.5 1.5 0 0 0-1.5-1.5Z" fill="#8e88a4" data-original="#000000" class=""></path><path d="m22.561 9.525-4.586-4.586a1.5 1.5 0 0 0-2.121 2.122l3.411 3.411L7 10.5a1.5 1.5 0 0 0 0 3l12.318-.028-3.467 3.467a1.5 1.5 0 0 0 2.121 2.122l4.586-4.586a3.505 3.505 0 0 0 .003-4.95Z" fill="#8e88a4" data-original="#000000" class=""></path></g></svg>