<?xml version="1.0" encoding="utf-8"?>
<svg viewBox="0 0 24 24" width="24" height="24" style="enable-background:new 0 0 512 512" xmlns="http://www.w3.org/2000/svg">
  <g>
    <g fill="#aaa"/>
    <path fill="#8e88a4" d="M19.04 14.8c-1.51 0-2.79-1.12-2.91-2.56-.08-.83.22-1.64.82-2.23.5-.52 1.21-.81 1.96-.81H21c.99.03 1.75.81 1.75 1.77v2.06c0 .96-.76 1.74-1.72 1.77zm1.93-4.1h-2.05c-.35 0-.67.13-.9.37-.29.28-.43.66-.39 1.04.05.66.69 1.19 1.41 1.19H21c.13 0 .25-.12.25-.27v-2.06c0-.15-.12-.26-.28-.27z" data-original="#000000" class="" opacity="1"/>
    <path fill="#8e88a4" d="M16 21.25h-2.5c-.41 0-.75-.34-.75-.75s.34-.75.75-.75H16c2.58 0 4.25-1.67 4.25-4.25v-.7h-1.21c-1.51 0-2.79-1.12-2.91-2.56-.08-.83.22-1.64.82-2.23.5-.52 1.21-.81 1.96-.81h1.33v-.7c0-2.34-1.37-3.95-3.59-4.21-.24-.04-.45-.04-.66-.04h-9c-.24 0-.47.02-.7.05-2.2.28-3.55 1.88-3.55 4.2v2c0 .41-.34.75-.75.75s-.75-.34-.75-.75v-2c0-3.08 1.9-5.31 4.85-5.68.27-.04.58-.07.9-.07h9c.24 0 .55.01.87.06 2.95.34 4.88 2.58 4.88 5.69v1.45c0 .41-.34.75-.75.75h-2.08c-.35 0-.67.13-.9.37-.29.28-.43.66-.39 1.04.05.66.69 1.19 1.41 1.19H21c.41 0 .75.34.75.75v1.45c0 3.44-2.31 5.75-5.75 5.75z" data-original="#000000" class="" opacity="1"/>
  </g>
  <g transform="matrix(1.187607, 0, 0, 1.235528, -16.645294, 8.420086)" style="">
    <g fill="#aaa">
      <path d="M 20 10.25 C 19.586 10.248 19.252 9.914 19.25 9.5 L 19.25 3.5 C 19.25 3.09 19.59 2.75 20 2.75 C 20.41 2.75 20.75 3.09 20.75 3.5 L 20.75 7.69 L 21.47 6.97 C 21.76 6.68 22.24 6.68 22.53 6.97 C 22.82 7.26 22.82 7.74 22.53 8.03 L 20.53 10.03 C 20.389 10.171 20.199 10.25 20 10.25 Z" fill="#aa72ce" data-original="#aaaaaa" class="" opacity="1"/>
      <path d="M20 10.25c-.19 0-.38-.07-.53-.22l-2-2c-.29-.29-.29-.77 0-1.06s.77-.29 1.06 0l2 2c.29.29.29.77 0 1.06-.15.15-.34.22-.53.22z" fill="#aa72ce" data-original="#aaaaaa" class="" opacity="1"/>
    </g>
  </g>
</svg>