<svg xmlns="http://www.w3.org/2000/svg" version="1.1" xmlns:xlink="http://www.w3.org/1999/xlink" xmlns:svgjs="http://svgjs.com/svgjs" width="512" height="512" x="0" y="0" viewBox="0 0 45.958 45.958" style="enable-background:new 0 0 512 512" xml:space="preserve" class=""><circle r="22.979" cx="22.979" cy="22.979" fill="#ffffff" shape="circle" transform="matrix(0.65,0,0,0.65,8.042650032043456,8.042650032043456)"></circle><g transform="matrix(1.0000000000000002,0,0,1.0000000000000002,7.105427357601002e-15,7.105427357601002e-15)"><path d="M22.979 0C10.287 0 0 10.288 0 22.979s10.287 22.979 22.979 22.979 22.979-10.289 22.979-22.979S35.67 0 22.979 0zm1.391 33.215v2.66c0 .415-.323.717-.739.717h-1.773c-.416 0-.751-.302-.751-.717v-2.426c-1.632-.074-3.278-.422-4.524-.896a1.42 1.42 0 0 1-.872-1.679L16 29.748a1.42 1.42 0 0 1 1.89-.972c1.187.459 2.589.793 4.086.793 1.906 0 3.211-.736 3.211-2.074 0-1.271-1.07-2.074-3.546-2.911-3.579-1.204-6.03-2.876-6.03-6.121 0-2.943 2.083-5.251 5.644-5.954v-2.426c0-.415.355-.787.771-.787h1.773c.416 0 .721.372.721.787v2.191c1.557.067 2.681.298 3.621.604.711.232 1.131.977.944 1.703l-.254 1.008a1.418 1.418 0 0 1-1.836.991 10.24 10.24 0 0 0-3.38-.559c-2.174 0-2.877.937-2.877 1.874 0 1.104 1.171 1.806 4.014 2.877 3.98 1.405 5.579 3.245 5.579 6.254-.001 2.977-2.104 5.521-5.961 6.189z" fill="#aa72cf" data-original="#000000" class=""></path></g></svg>