<svg xmlns="http://www.w3.org/2000/svg" viewBox="0 0 9 9"><circle cx="4.5" cy="4.5" r="4.5" fill="#f59123"/><path d="M6.405 4.923a1.38 1.38 0 00-.402-.32 1.283 1.283 0 00.389-.177 1.031 1.031 0 00.264-.4.952.952 0 00-.104-.887 1.8 1.8 0 00-.901-.564l.239-.892-.55-.147-.236.881-.42-.112.237-.882-.55-.147-.236.882-1.083-.29-.153.571.318.085c.087.024.239.074.285.165a.306.306 0 01.009.276L2.9 5.24a.23.23 0 01-.1.149c-.058.031-.107.03-.218 0l-.329-.088-.29.63 1.083.29-.236.88.55.147.235-.879.42.112-.236.88.55.147.24-.894c.144.03.28.055.36.065a1.894 1.894 0 00.921-.067 1.143 1.143 0 00.67-.848.911.911 0 00-.115-.842zM4.518 2.927s.179.032.35.08a1.815 1.815 0 01.53.225.492.492 0 01.247.537.446.446 0 01-.349.356 1.388 1.388 0 01-.605-.014c-.202-.046-.457-.122-.457-.122zm.526 2.96a1.81 1.81 0 01-.662-.017c-.249-.048-.612-.153-.612-.153l.316-1.18s.355.075.623.166a1.823 1.823 0 01.566.301.504.504 0 01-.23.883z" fill="#fff"/></svg>