<?xml version="1.0" encoding="utf-8"?>
<svg viewBox="0 0 64 64" style="enable-background:new 0 0 512 512" xmlns="http://www.w3.org/2000/svg">
  <g transform="matrix(1, 0, 0, 1, -0.1522180140018392, -1.1480989456176758)">
    <linearGradient id="a" x1="3.962" x2="60" y1="32.999" y2="32.999" gradientUnits="userSpaceOnUse">
      <stop stop-opacity="1" stop-color="#954b9b" offset="0"/>
      <stop stop-opacity="1" stop-color="#7272ba" offset="0.9923"/>
    </linearGradient>
    <path fill="url(#a)" d="M 33 12.53 L 33 13.5 C 33 14.27 32.167 14.751 31.5 14.366 C 31.191 14.187 31 13.857 31 13.5 L 31 12.53 C 31.666 12.49 32.334 12.49 33 12.53 Z M 20.64 16.81 C 21.039 17.464 21.996 17.441 22.363 16.769 C 22.526 16.47 22.525 16.108 22.36 15.81 L 21.88 14.98 C 21.289 15.279 20.715 15.609 20.16 15.97 L 20.64 16.81 Z M 13.31 24.86 C 13.98 25.231 14.801 24.738 14.787 23.972 C 14.781 23.631 14.601 23.317 14.31 23.14 L 13.47 22.66 C 13.109 23.215 12.779 23.789 12.48 24.38 L 13.31 24.86 Z M 10.03 35.5 L 11 35.5 C 11.77 35.5 12.251 34.667 11.866 34 C 11.687 33.691 11.357 33.5 11 33.5 L 10.03 33.5 C 9.989 34.166 9.989 34.834 10.03 35.5 Z M 53.97 33.5 L 53 33.5 C 52.23 33.5 51.749 34.333 52.134 35 C 52.313 35.309 52.643 35.5 53 35.5 L 53.98 35.5 C 53.99 35.17 54 34.83 54 34.5 C 54 34.16 53.99 33.83 53.97 33.5 Z M 49.69 23.14 C 49.03 23.541 49.052 24.506 49.729 24.877 C 49.87 24.954 50.029 24.997 50.19 25 C 50.555 25.04 51.204 24.53 51.52 24.38 C 51.221 23.789 50.891 23.215 50.53 22.66 L 49.69 23.14 Z M 32 6.5 C 11.228 6.235 -2.71 29.365 7.25 47.57 C 8.11 47.088 9.876 46.076 10.73 45.59 L 12.47 44.61 C 10.999 41.789 10.166 38.679 10.03 35.5 L 6.02 35.5 C 6.01 35.17 6 34.83 6 34.5 C 6 34.17 6.01 33.83 6.02 33.5 L 10.03 33.5 C 10.164 30.316 11.001 27.202 12.48 24.38 L 9 22.38 C 9.31 21.79 9.65 21.21 10.01 20.65 C 10.867 21.146 12.619 22.157 13.47 22.66 C 15.189 19.971 17.471 17.689 20.16 15.97 C 19.652 15.107 18.653 13.379 18.15 12.51 C 18.71 12.15 19.28 11.82 19.87 11.51 L 20.88 13.24 L 21.88 14.98 C 24.702 13.501 27.816 12.664 31 12.53 L 31 8.52 C 31.666 8.495 32.334 8.495 33 8.52 L 33 12.53 C 36.187 12.664 39.304 13.501 42.13 14.98 L 43.16 13.26 L 44.19 11.54 C 44.78 11.85 45.36 12.19 45.92 12.56 C 45.415 13.411 44.376 15.141 43.87 15.99 C 46.544 17.708 48.816 19.983 50.53 22.66 C 51.679 21.986 52.832 21.319 53.99 20.66 C 54.355 21.216 54.692 21.79 55 22.38 L 51.52 24.38 C 52.999 27.202 53.836 30.316 53.97 33.5 L 57.98 33.5 C 58.005 34.165 58.005 34.835 57.98 35.5 L 53.98 35.5 C 53.836 38.682 53 41.794 51.53 44.62 C 53.074 45.522 55.181 46.733 56.73 47.63 C 66.633 28.981 53.115 6.499 32 6.5 Z M 41.64 15.79 C 41.243 16.454 41.714 17.299 42.487 17.311 C 42.843 17.316 43.175 17.133 43.36 16.83 L 43.87 15.99 C 43.31 15.63 42.73 15.29 42.13 14.98 L 41.64 15.79 Z" opacity="1" data-original="url(#a)"/>
  </g>
  <g transform="matrix(1, 0, 0, 1, 67.26175689697266, -5.611907958984375)">
    <linearGradient id="gradient-1" x1="3.978" x2="60.003" y1="31.968" y2="31.968" gradientUnits="userSpaceOnUse" gradientTransform="matrix(1, 0, 0, 1, -67.712723, 7.06738)">
      <stop stop-opacity="1" stop-color="#954b9b" offset="0"/>
      <stop stop-opacity="1" stop-color="#7272ba" offset="1"/>
    </linearGradient>
    <path fill="url(#gradient-1)" d="M -25.883 22.467 C -26.348 22.167 -26.967 22.296 -27.273 22.757 L -35.323 35.117 C -38.007 34.809 -40.019 37.523 -38.943 40.001 C -37.867 42.48 -34.512 42.865 -32.903 40.694 C -31.802 39.208 -32.042 37.123 -33.453 35.927 L -25.593 23.847 C -25.294 23.386 -25.423 22.769 -25.883 22.467 Z M -23.713 55.037 C -24.365 70.953 -47.058 70.957 -47.713 55.037 C -47.713 45.799 -37.713 40.026 -29.713 44.645 C -26 46.788 -23.713 50.75 -23.713 55.037 Z M -35.713 50.637 C -34.774 50.636 -34.012 51.398 -34.013 52.337 C -34.013 53.107 -33.18 53.588 -32.513 53.203 C -32.204 53.024 -32.013 52.694 -32.013 52.337 C -32.016 50.68 -33.118 49.226 -34.713 48.777 L -34.713 46.927 C -34.713 46.157 -35.546 45.676 -36.213 46.061 C -36.522 46.24 -36.713 46.57 -36.713 46.927 L -36.713 48.777 C -39.451 49.574 -40.298 53.036 -38.239 55.008 C -37.558 55.66 -36.655 56.028 -35.713 56.037 C -34.404 56.037 -33.586 57.454 -34.241 58.587 C -34.895 59.72 -36.531 59.72 -37.185 58.587 C -37.334 58.329 -37.413 58.035 -37.413 57.737 C -37.413 56.967 -38.246 56.486 -38.913 56.871 C -39.222 57.05 -39.413 57.38 -39.413 57.737 C -39.41 59.394 -38.308 60.848 -36.713 61.297 L -36.713 63.147 C -36.713 63.917 -35.88 64.398 -35.213 64.013 C -34.904 63.834 -34.713 63.504 -34.713 63.147 L -34.713 61.297 C -31.975 60.5 -31.128 57.038 -33.187 55.066 C -33.868 54.414 -34.771 54.046 -35.713 54.037 C -37.022 54.037 -37.84 52.62 -37.185 51.487 C -36.882 50.961 -36.32 50.637 -35.713 50.637 Z" opacity="1" data-original="url(#a)" class=""/>
  </g>
</svg>