<svg xmlns="http://www.w3.org/2000/svg" version="1.1" xmlns:xlink="http://www.w3.org/1999/xlink" xmlns:svgjs="http://svgjs.com/svgjs" width="512" height="512" x="0" y="0" viewBox="0 0 64 64" style="enable-background:new 0 0 512 512" xml:space="preserve" class=""><g>
    <linearGradient xmlns="http://www.w3.org/2000/svg" id="grad1" x1="3%" y1="80%" x2="100%" y2="0%">
      <stop offset="0" style="stop-color:#954b9b;stop-opacity:1"/>
      <stop offset="1" style="stop-color:#7272ba;stop-opacity:1"/>
    </linearGradient>
<path fill="url(#grad1)" d="M31.998 30.841a8.061 8.061 0 1 1-4.389 14.823 8.07 8.07 0 0 1 4.39-14.823zm10.883 9.566c.276 8.487 12.584 8.486 12.868 0-.303-8.513-12.564-8.514-12.868 0zm12.25 6.085a8.446 8.446 0 0 1-10.863.649c-.694-.645-.832-.742-1.576-.07 2.61 2.477 5.201 6.031 4.708 9.795h9.008a3.536 3.536 0 0 0 2.872-1.486c2.101-3.111-1.652-7.298-4.15-8.888zm-13.936 1.915a13.38 13.38 0 0 0-2.693-1.835 11.468 11.468 0 0 1-1.027.768 10.104 10.104 0 0 1-10.943 0 13.28 13.28 0 0 1-1.038-.768 13.381 13.381 0 0 0-2.693 1.835 13.815 13.815 0 0 0-4.08 6.045A4.262 4.262 0 0 0 22.771 60h18.454a4.334 4.334 0 0 0 4.13-3.133c.638-3.175-1.984-6.446-4.16-8.459zm-19.89-1.346c-.729-.66-.906-.552-1.576.08a8.447 8.447 0 0 1-10.864-.649c-2.487 1.584-6.243 5.788-4.15 8.888a3.536 3.536 0 0 0 2.874 1.486h9.007c-.503-3.745 2.097-7.314 4.709-9.805zm-.19-6.654c-.303-8.513-12.564-8.514-12.868 0 .282 8.483 12.59 8.49 12.868 0zm-10.224-11.93a.998.998 0 0 1 1.596-1.197l1.197 1.596V17.664a2.995 2.995 0 0 1 2.992-2.993h3.412c1.846-14.23 21.976-14.226 23.82 0h3.412a2.995 2.995 0 0 1 2.993 2.993v11.212l1.197-1.596a.998.998 0 0 1 1.596 1.197l-2.993 3.99a1.005 1.005 0 0 1-1.596 0l-2.992-3.99a.998.998 0 0 1 1.596-1.197l1.197 1.596V17.664a.994.994 0 0 0-.998-.998h-3.382c-1.374 14.856-22.5 14.867-23.88 0h-3.382a.994.994 0 0 0-.997.998v11.212l1.197-1.596a.998.998 0 0 1 1.596 1.197l-2.993 3.99a1.005 1.005 0 0 1-1.596 0zm21.107-8.18a1.694 1.694 0 0 1-1.696-1.695.998.998 0 0 0-1.995 0 3.695 3.695 0 0 0 2.694 3.55v1.846a.998.998 0 0 0 1.995 0v-1.845a3.695 3.695 0 0 0-.998-7.242 1.696 1.696 0 1 1 1.696-1.696.998.998 0 0 0 1.995 0 3.675 3.675 0 0 0-2.693-3.541V7.818a.998.998 0 0 0-1.995 0v1.856a3.69 3.69 0 0 0 .997 7.232 1.696 1.696 0 0 1 0 3.391z" data-original="url(#a)" class=""></path></g></svg>