<svg xmlns="http://www.w3.org/2000/svg" version="1.1" xmlns:xlink="http://www.w3.org/1999/xlink" xmlns:svgjs="http://svgjs.com/svgjs" width="512" height="512" x="0" y="0" viewBox="0 0 64 64" style="enable-background:new 0 0 512 512" xml:space="preserve" class=""><g>
    <linearGradient xmlns="http://www.w3.org/2000/svg" id="grad1" x1="3%" y1="80%" x2="100%" y2="0%">
      <stop offset="0" style="stop-color:#954b9b;stop-opacity:1"/>
      <stop offset="1" style="stop-color:#7272ba;stop-opacity:1"/>
    </linearGradient>
<path fill="url(#grad1)" d="M60 32a27.799 27.799 0 0 1-5.49 16.65 28.503 28.503 0 0 1-5.85 5.86 28.008 28.008 0 0 1-33.31 0 28.504 28.504 0 0 1-5.86-5.85 28.008 28.008 0 0 1 0-33.31.98.98 0 0 1 .73-.41 1.044 1.044 0 0 1 .78.29l5.39 5.39a1.013 1.013 0 0 1 .13 1.26 18.466 18.466 0 0 0 0 20.24 18.498 18.498 0 0 0 5.36 5.36 18.466 18.466 0 0 0 20.24 0 18.498 18.498 0 0 0 5.36-5.36 18.466 18.466 0 0 0 0-20.24 1.013 1.013 0 0 1 .13-1.26L53 15.23a1.03 1.03 0 0 1 .78-.29.98.98 0 0 1 .73.41A27.799 27.799 0 0 1 60 32zM20.62 16.39a1.013 1.013 0 0 0 1.26.13 18.466 18.466 0 0 1 20.24 0 1.004 1.004 0 0 0 .55.16 1.025 1.025 0 0 0 .71-.29L48.77 11a1.03 1.03 0 0 0 .29-.78.98.98 0 0 0-.41-.73 27.993 27.993 0 0 0-33.3 0 .98.98 0 0 0-.41.73 1.03 1.03 0 0 0 .29.78zm21.587 5.403a1 1 0 0 0-1.414 0l-19 19a1 1 0 1 0 1.414 1.414l19-19a1 1 0 0 0 0-1.414zM42.5 38a4.5 4.5 0 1 1-4.5-4.5 4.505 4.505 0 0 1 4.5 4.5zm-2 0a2.5 2.5 0 1 0-2.5 2.5 2.503 2.503 0 0 0 2.5-2.5zm-19-12a4.5 4.5 0 1 1 4.5 4.5 4.505 4.505 0 0 1-4.5-4.5zm2 0a2.5 2.5 0 1 0 2.5-2.5 2.503 2.503 0 0 0-2.5 2.5z" data-original="url(#a)"></path></g></svg>