<svg xmlns="http://www.w3.org/2000/svg" version="1.1" xmlns:xlink="http://www.w3.org/1999/xlink" xmlns:svgjs="http://svgjs.com/svgjs" width="512" height="512" x="0" y="0" viewBox="0 0 64 64" style="enable-background:new 0 0 512 512" xml:space="preserve" class=""><g><linearGradient id="a" x1="6.193" x2="57.815" y1="32" y2="32" gradientUnits="userSpaceOnUse"><stop stop-opacity="1" stop-color="#8e88a4" offset="0"></stop><stop stop-opacity="1" stop-color="#8e88a4" offset="1"></stop></linearGradient><path fill="url(#a)" d="M57.09 33.39c-1.318-2.55-5.705-2.05-6.01.67-.02 1.07.93 2.04 2.42 2.47a1 1 0 1 0 .56-1.92 2.097 2.097 0 0 1-.94-.51 1.87 1.87 0 0 1 1.38-.38c1.031.266 1.506 1.89 1.22 2.83a3.147 3.147 0 0 1-5.16 1.2 18.323 18.323 0 0 0-8.47-7.55 10.763 10.763 0 0 1-1.01.77 15.9 15.9 0 0 1-21.05-2.57c-3.072-1.047-7.486-2.006-8.76.24-.52 1.25.52 2.3 3.32 4.88a17.98 17.98 0 0 0-4.03 5.5l-3.36.01a1.007 1.007 0 0 0-.99 1.17l.01 6.84a.997.997 0 0 0 1 1h3.32a15.41 15.41 0 0 0 8.44 7.27v2.32A2.244 2.244 0 0 0 21.06 60h4.08a2.244 2.244 0 0 0 2.08-2.37v-.41a29.845 29.845 0 0 0 11.67-.91v1.79a1.954 1.954 0 0 0 2 1.9h3.88a1.946 1.946 0 0 0 1.99-1.9v-5.97c3.732-3.187 5.486-7.317 4.6-11.69 4.098 1.354 8.143-3.31 5.73-7.05zm-40.57 8.16a2.03 2.03 0 0 1 0-4.06 2.03 2.03 0 0 1 0 4.06zM32 28.27a10.358 10.358 0 0 0 10.35-10.35c-.569-13.744-20.133-13.74-20.7 0A10.358 10.358 0 0 0 32 28.27zm0-9.35a3.235 3.235 0 0 1-1-6.3l-.01-1.38a1 1 0 0 1 2-.01l.01 1.39a3.238 3.238 0 0 1 2.23 3.07 1 1 0 0 1-2 0A1.23 1.23 0 1 0 32 16.92a3.229 3.229 0 0 1 1 6.29l-.01 1.39a1 1 0 0 1-2 0l.01-1.39a3.238 3.238 0 0 1-2.23-3.07 1 1 0 0 1 2 0A1.23 1.23 0 1 0 32 18.92zm-13.92-1a1 1 0 0 1 2 0A11.928 11.928 0 0 0 32 29.83c8.414.174 14.42-9.058 10.93-16.68a.999.999 0 0 1 1.83-.8c5.658 13.377-10.097 25.313-21.41 16.46a13.878 13.878 0 0 1-5.27-10.89zM32 4a13.864 13.864 0 0 1 10.826 5.169 1 1 0 0 1-1.555 1.258A11.873 11.873 0 0 0 32 6a1 1 0 0 1 0-2z" data-original="url(#a)" class=""></path></g></svg>