<svg xmlns="http://www.w3.org/2000/svg" version="1.1" xmlns:xlink="http://www.w3.org/1999/xlink" xmlns:svgjs="http://svgjs.com/svgjs" width="512" height="512" x="0" y="0" viewBox="0 0 64 64" style="enable-background:new 0 0 512 512" xml:space="preserve"><g><linearGradient id="a" x1="5.96" x2="58.04" y1="32" y2="32" gradientUnits="userSpaceOnUse"><stop stop-opacity="1" stop-color="#8e88a4" offset="0"></stop><stop stop-opacity="1" stop-color="#8e88a4" offset="1"></stop></linearGradient><path fill="url(#a)" d="m13.263 31.337-.052 23.162c-1.364 0-5.97.018-7.25-.052l.051-23.162c.713-.006 6.722-.022 7.25.052zm41.563 10.082-16.078 6.442a5.727 5.727 0 0 1-9.584 5.943l-7.873-8.796a1.036 1.036 0 0 1 1.546-1.38l7.862 8.797a3.69 3.69 0 0 0 6.38-2.23 3.647 3.647 0 0 0-.934-2.645L27.13 37.467a4.499 4.499 0 0 0-3.33-1.493h-8.464v14.065l9.367 7.894a7.232 7.232 0 0 0 8.599 1.14L56.859 45.61a2.321 2.321 0 0 0 1.152-1.722 2.349 2.349 0 0 0-3.185-2.469zm-31.16-20.766c-.09-2.42 3.915-3.272 5.114-4.782a5.912 5.912 0 0 0-.394-2.479c-1.455-4.346.342-6.139 4.668-4.667a6.112 6.112 0 0 0 2.49.383c.383-.155.995-1.234 1.4-1.95 2.064-4.228 4.715-4.193 6.773 0 .394.716 1.006 1.795 1.39 1.95 1.885.296 5.418-1.995 7.001-.228 1.753 1.561-.51 5.117-.238 6.991.166.394 1.245.996 1.96 1.4 4.215 2.071 4.18 4.71 0 6.774a6.327 6.327 0 0 0-1.96 1.39c-.269 1.88 1.989 5.436.239 7.001-1.579 1.754-5.128-.513-7.002-.238a6.158 6.158 0 0 0-1.39 1.96c-2.064 4.205-4.725 4.19-6.773 0a6.322 6.322 0 0 0-1.4-1.96 6.154 6.154 0 0 0-2.49.394c-1.67.467-3.402.944-4.502-.155-1.765-1.565.511-5.124.228-7.002-1.216-1.487-5.202-2.368-5.113-4.782zm7.293 0a9.367 9.367 0 0 0 18.733 0c-.489-12.414-18.243-12.417-18.733 0zm9.366 7.292a7.292 7.292 0 0 0 0-14.584c-9.65.343-9.65 14.247 0 14.584z" data-original="url(#a)"></path></g></svg>