<svg xmlns="http://www.w3.org/2000/svg" version="1.1" xmlns:xlink="http://www.w3.org/1999/xlink" xmlns:svgjs="http://svgjs.com/svgjs" width="512" height="512" x="0" y="0" viewBox="0 0 64 64" style="enable-background:new 0 0 512 512" xml:space="preserve" class=""><g><linearGradient id="a" x1="4" x2="60" y1="32" y2="32" gradientUnits="userSpaceOnUse"><stop stop-opacity="1" stop-color="#8e88a4" offset="0"></stop><stop stop-opacity="1" stop-color="#8e88a4" offset="1"></stop></linearGradient><path fill="url(#a)" d="M23.99 29.732a1.003 1.003 0 0 0-1 1V55.74h18.004V30.733a1.003 1.003 0 0 0-1-1zM34.493 52.45H29.49a1 1 0 0 1 0-2h1.5V40.436l-.89.89a1.001 1.001 0 0 1-1.42-1.41l2.6-2.601a1.008 1.008 0 0 1 1.711.7v12.434h1.5a1 1 0 0 1 0 2zM20.989 55.74H6.985V38.735a1.003 1.003 0 0 1 1-1h13.004zm22.006-22.006H56a1.003 1.003 0 0 1 1 1V55.74H42.995zM60 58.74a1.003 1.003 0 0 1-1 1H4.984a1 1 0 0 1 0-2H59a1.003 1.003 0 0 1 1 1zM20.038 12.938a.996.996 0 0 1 .95-.7h7.683l2.37-7.303a1.006 1.006 0 0 1 1.901 0l2.37 7.302h7.683a1.01 1.01 0 0 1 .59 1.81l-6.212 4.522 2.371 7.302a1.003 1.003 0 0 1-1.54 1.11l-6.212-4.51-6.212 4.51a1.003 1.003 0 0 1-1.54-1.11l2.37-7.302-6.212-4.521a.992.992 0 0 1-.36-1.11z" data-original="url(#a)"></path></g></svg>