<svg xmlns="http://www.w3.org/2000/svg" version="1.1" xmlns:xlink="http://www.w3.org/1999/xlink" xmlns:svgjs="http://svgjs.com/svgjs" width="512" height="512" x="0" y="0" viewBox="0 0 512 512" style="enable-background:new 0 0 512 512" xml:space="preserve" class=""><g><linearGradient id="a" x1="0" x2="512" y1="256" y2="256" gradientUnits="userSpaceOnUse" stroke-width="32" style="stroke-width: 32px;"><stop stop-opacity="1" stop-color="#00f2fe" offset="0"></stop><stop stop-opacity="1" stop-color="#1586bc" offset="0"></stop><stop stop-opacity="1" stop-color="#207f9d" offset="0.007722007722007722"></stop><stop stop-opacity="1" stop-color="#7f7fcc" offset="0.5482625482625483"></stop><stop stop-opacity="1" stop-color="#6d65b0" offset="0.7953667953667953"></stop><stop stop-opacity="1" stop-color="#a655af" offset="1"></stop></linearGradient><path d="M283.043 116.868c0 35.522-28.797 64.319-64.319 64.319s-64.319-28.797-64.319-64.319 28.797-64.319 64.319-64.319 64.319 28.796 64.319 64.319zm25.903 125.69-13.162-38.72a33.401 33.401 0 0 0-31.624-22.651h-90.876a33.401 33.401 0 0 0-31.624 22.651l-13.162 38.72m136.842 26.884h-92.936m-53.042-26.884c-35.522 0-64.319 28.797-64.319 64.319s28.797 64.319 64.319 64.319 64.319-28.797 64.319-64.319-28.797-64.319-64.319-64.319zm77.061 151.289a33.401 33.401 0 0 0-31.624-22.651H73.924A33.401 33.401 0 0 0 42.3 393.847L20 459.451h198.723l-22.3-65.604zm121.662-151.289c-35.522 0-64.319 28.797-64.319 64.319s28.797 64.319 64.319 64.319 64.319-28.797 64.319-64.319-28.796-64.319-64.319-64.319zm39.995-95.463 27.362-29.915 51.532 22.979 42.894-84.213M492 89.129l-10.696-36.58-36.58 10.696m-27.32 396.206-22.258-65.604a33.401 33.401 0 0 0-31.624-22.651h-90.875a33.401 33.401 0 0 0-31.624 22.651l-22.3 65.604h98.681" style="fill: none; stroke: url(&quot;#a&quot;); stroke-width: 32px; stroke-linecap: round; stroke-linejoin: round; stroke-miterlimit: 10;" fill="none" stroke-width="32" stroke-linecap="round" stroke-linejoin="round" stroke-miterlimit="10"></path></g></svg>