<?xml version="1.0" encoding="UTF-8"?><svg xmlns="http://www.w3.org/2000/svg" xmlns:xlink="http://www.w3.org/1999/xlink" viewBox="0 0 167.06 194.87"><defs><style>.cls-1{fill:url(#_141-13);}.cls-2{fill:url(#_141-10);}.cls-3{fill:url(#_141-12);}.cls-4{fill:url(#_141-14);}.cls-5{fill:url(#_141-11);}.cls-6{fill:url(#_1250-8);}.cls-6,.cls-7,.cls-8,.cls-9,.cls-10,.cls-11,.cls-12,.cls-13,.cls-14,.cls-15,.cls-16,.cls-17,.cls-18,.cls-19,.cls-20,.cls-21,.cls-22,.cls-23,.cls-24,.cls-25,.cls-26,.cls-27,.cls-28,.cls-29,.cls-30,.cls-31,.cls-32,.cls-33,.cls-34,.cls-35,.cls-36,.cls-37,.cls-38,.cls-39,.cls-40,.cls-41,.cls-42,.cls-43,.cls-44,.cls-45,.cls-46,.cls-47,.cls-48,.cls-49,.cls-50,.cls-51,.cls-52,.cls-53,.cls-54,.cls-55,.cls-56,.cls-57,.cls-58,.cls-59,.cls-60,.cls-61,.cls-62,.cls-63,.cls-64,.cls-65,.cls-66,.cls-67,.cls-68,.cls-69,.cls-70,.cls-71,.cls-72{opacity:.5;}.cls-6,.cls-7,.cls-8,.cls-9,.cls-10,.cls-11,.cls-12,.cls-13,.cls-14,.cls-16,.cls-17,.cls-18,.cls-19,.cls-20,.cls-21,.cls-22,.cls-23,.cls-24,.cls-25,.cls-26,.cls-27,.cls-28,.cls-29,.cls-30,.cls-31,.cls-32,.cls-33,.cls-34,.cls-35,.cls-36,.cls-37,.cls-38,.cls-39,.cls-40,.cls-41,.cls-42,.cls-43,.cls-44,.cls-45,.cls-46,.cls-47,.cls-57,.cls-58,.cls-59,.cls-60,.cls-61,.cls-73,.cls-62,.cls-63,.cls-64,.cls-65,.cls-66,.cls-67,.cls-68,.cls-69{mix-blend-mode:multiply;}.cls-7{fill:url(#_1250-9);}.cls-8{fill:url(#_1250-4);}.cls-9{fill:url(#_1250-3);}.cls-10{fill:url(#_1250-2);}.cls-11{fill:url(#_1250-7);}.cls-12{fill:url(#_1250-5);}.cls-13{fill:url(#_1250-6);}.cls-14{fill:url(#_1240-2);}.cls-74{fill:none;isolation:isolate;}.cls-15{fill:url(#_1056);}.cls-15,.cls-49,.cls-50,.cls-51,.cls-52,.cls-53,.cls-54,.cls-55,.cls-56,.cls-75,.cls-70,.cls-71,.cls-72{mix-blend-mode:color-dodge;}.cls-76{fill:url(#_285);}.cls-77{fill:url(#_179);}.cls-78{fill:url(#_135);}.cls-79{fill:url(#_115);}.cls-80{fill:url(#_141);}.cls-16{fill:url(#_1250-23);}.cls-17{fill:url(#_1250-22);}.cls-18{fill:url(#_1250-10);}.cls-19{fill:url(#_1250-17);}.cls-20{fill:url(#_1250-19);}.cls-21{fill:url(#_1250-11);}.cls-22{fill:url(#_1250-20);}.cls-23{fill:url(#_1250-21);}.cls-24{fill:url(#_1250-16);}.cls-25{fill:url(#_1250-15);}.cls-26{fill:url(#_1250-13);}.cls-27{fill:url(#_1250-18);}.cls-28{fill:url(#_1250-12);}.cls-29{fill:url(#_1250-14);}.cls-81{fill:#d2afd3;}.cls-82{fill:#dbe2ef;}.cls-83{fill:#4f2c7c;}.cls-84{fill:#f7fcfd;opacity:.4;}.cls-84,.cls-85,.cls-86,.cls-48{mix-blend-mode:soft-light;}.cls-85{opacity:.3;}.cls-85,.cls-86,.cls-48,.cls-75{fill:#fff;}.cls-86{opacity:.2;}.cls-30{fill:url(#_1513-23);}.cls-31{fill:url(#_1513-24);}.cls-32{fill:url(#_1513-21);}.cls-33{fill:url(#_1513-27);}.cls-34{fill:url(#_1513-26);}.cls-35{fill:url(#_1513-25);}.cls-36{fill:url(#_1513-20);}.cls-37{fill:url(#_1513-22);}.cls-38{fill:url(#_1513-12);}.cls-39{fill:url(#_1513-13);}.cls-40{fill:url(#_1513-16);}.cls-41{fill:url(#_1513-19);}.cls-42{fill:url(#_1513-11);}.cls-43{fill:url(#_1513-17);}.cls-44{fill:url(#_1513-10);}.cls-45{fill:url(#_1513-18);}.cls-46{fill:url(#_1513-14);}.cls-47{fill:url(#_1513-15);}.cls-49{fill:url(#_1056-2);}.cls-50{fill:url(#_1056-3);}.cls-51{fill:url(#_1056-9);}.cls-52{fill:url(#_1056-5);}.cls-53{fill:url(#_1056-6);}.cls-54{fill:url(#_1056-7);}.cls-55{fill:url(#_1056-8);}.cls-56{fill:url(#_1056-4);}.cls-57{fill:#922975;}.cls-58{fill:#751d5b;}.cls-59{fill:url(#_1513);}.cls-60{fill:url(#_1250);}.cls-61{fill:url(#_1240);}.cls-73{fill:url(#_115-2);}.cls-75{opacity:.8;}.cls-62{fill:url(#_1513-6);}.cls-63{fill:url(#_1513-3);}.cls-64{fill:url(#_1513-2);}.cls-65{fill:url(#_1513-9);}.cls-66{fill:url(#_1513-8);}.cls-67{fill:url(#_1513-7);}.cls-68{fill:url(#_1513-4);}.cls-69{fill:url(#_1513-5);}.cls-70{fill:url(#_1056-12);}.cls-71{fill:url(#_1056-11);}.cls-72{fill:url(#_1056-10);}.cls-87{fill:url(#_285-2);}.cls-88{fill:url(#_141-5);}.cls-89{fill:url(#_141-6);}.cls-90{fill:url(#_141-7);}.cls-91{fill:url(#_141-8);}.cls-92{fill:url(#_141-9);}.cls-93{fill:url(#_141-2);}.cls-94{fill:url(#_141-3);}.cls-95{fill:url(#_141-4);}</style><linearGradient id="_141" x1="51.71" y1="1.53" x2="51.71" y2="48.6" gradientUnits="userSpaceOnUse"><stop offset="0" stop-color="#dd71ac"/><stop offset=".45" stop-color="#a753a0"/><stop offset=".81" stop-color="#67489d"/><stop offset=".84" stop-color="#634e9f"/><stop offset=".89" stop-color="#5a5fa8"/><stop offset=".95" stop-color="#4c7bb5"/><stop offset="1" stop-color="#3c9ac4"/></linearGradient><linearGradient id="_141-2" x1="46.5" y1="11.67" x2="46.5" y2="56.02" xlink:href="#_141"/><linearGradient id="_1250" x1="52.32" y1="36.18" x2="52.32" y2="82.33" gradientUnits="userSpaceOnUse"><stop offset="0" stop-color="#705da8"/><stop offset="1" stop-color="#fff"/></linearGradient><linearGradient id="_1513" x1="65.23" y1="57.35" x2="65.23" y2="28.25" gradientUnits="userSpaceOnUse"><stop offset="0" stop-color="#fff"/><stop offset=".44" stop-color="#7351a1"/><stop offset="1" stop-color="#292562"/></linearGradient><linearGradient id="_141-3" x1="2499.71" y1="1.53" x2="2499.71" y2="48.6" gradientTransform="translate(2614.96) rotate(-180) scale(1 -1)" xlink:href="#_141"/><linearGradient id="_141-4" x1="2494.4" y1="11.67" x2="2494.4" y2="56.02" gradientTransform="translate(2614.96) rotate(-180) scale(1 -1)" xlink:href="#_141"/><linearGradient id="_1250-2" x1="2500.22" y1="36.18" x2="2500.22" y2="82.33" gradientTransform="translate(2614.96) rotate(-180) scale(1 -1)" xlink:href="#_1250"/><linearGradient id="_1513-2" x1="1394.46" y1="57.35" x2="1394.46" y2="28.22" gradientTransform="translate(1496.11) rotate(-180) scale(1 -1)" xlink:href="#_1513"/><linearGradient id="_285" x1="41.6" y1="163.74" x2="77.44" y2="163.74" gradientUnits="userSpaceOnUse"><stop offset="0" stop-color="#952064"/><stop offset=".56" stop-color="#dd168c"/><stop offset="1" stop-color="#ee2550"/></linearGradient><linearGradient id="_285-2" x1="2524.81" x2="2560.64" gradientTransform="translate(2650.27) rotate(-180) scale(1 -1)" xlink:href="#_285"/><linearGradient id="_141-5" x1="16.65" y1="124.24" x2="16.65" y2="94.47" xlink:href="#_141"/><linearGradient id="_1250-3" x1="20.2" y1="121.27" x2="20.08" y2="107.31" xlink:href="#_1250"/><linearGradient id="_1513-3" x1="27.7" y1="124.31" x2="27.7" y2="94.25" xlink:href="#_1513"/><linearGradient id="_141-6" x1="-130.4" y1="124.24" x2="-130.4" y2="94.47" gradientTransform="translate(20.02) rotate(-180) scale(1 -1)" xlink:href="#_141"/><linearGradient id="_1250-4" x1="-126.85" y1="121.27" x2="-126.97" y2="107.31" gradientTransform="translate(20.02) rotate(-180) scale(1 -1)" xlink:href="#_1250"/><linearGradient id="_1513-4" x1="-51.96" y1="124.31" x2="-51.96" y2="94.25" gradientTransform="translate(87.4) rotate(-180) scale(1 -1)" xlink:href="#_1513"/><linearGradient id="_141-7" x1="83.75" y1="165.12" x2="83.75" y2="46.78" xlink:href="#_141"/><linearGradient id="_179" x1="83.75" y1="43.25" x2="83.75" y2="151.06" gradientUnits="userSpaceOnUse"><stop offset="0" stop-color="#3c9ac4"/><stop offset=".05" stop-color="#4c7bb5"/><stop offset=".11" stop-color="#5a5fa8"/><stop offset=".16" stop-color="#634e9f"/><stop offset=".19" stop-color="#67489d"/><stop offset=".55" stop-color="#a753a0"/><stop offset="1" stop-color="#dd71ac"/></linearGradient><linearGradient id="_135" x1="83.75" y1="147.58" x2="83.75" y2="39.92" gradientUnits="userSpaceOnUse"><stop offset="0" stop-color="#ae73b1"/><stop offset=".08" stop-color="#9d65aa"/><stop offset=".3" stop-color="#76479c"/><stop offset=".48" stop-color="#5e3393"/><stop offset=".59" stop-color="#562d90"/><stop offset=".66" stop-color="#533d99"/><stop offset=".79" stop-color="#4f57a8"/><stop offset=".91" stop-color="#4d67b0"/><stop offset="1" stop-color="#4d6db4"/></linearGradient><linearGradient id="_1250-5" x1="34.12" y1="144.12" x2="34.12" y2="78.87" xlink:href="#_1250"/><linearGradient id="_1250-6" x1="-4901.74" y1="144.12" x2="-4901.74" y2="78.87" gradientTransform="translate(-4768.58) rotate(-180) scale(1 -1)" xlink:href="#_1250"/><linearGradient id="_1250-7" x1="44.06" y1="119.77" x2="70.44" y2="162.55" xlink:href="#_1250"/><linearGradient id="_1250-8" x1="102.83" y1="125.16" x2="121.72" y2="181.18" xlink:href="#_1250"/><linearGradient id="_1250-9" x1="83.64" y1="154.99" x2="83.64" y2="64.8" xlink:href="#_1250"/><linearGradient id="_1513-5" x1="83.75" y1="125.6" x2="83.75" y2="36.13" xlink:href="#_1513"/><linearGradient id="_115" x1="29.25" y1="51.91" x2="104.67" y2="51.91" gradientUnits="userSpaceOnUse"><stop offset="0" stop-color="#778cc6"/><stop offset="1" stop-color="#836888"/></linearGradient><linearGradient id="_115-2" y1="127.89" x2="138.25" y2="127.89" xlink:href="#_115"/><linearGradient id="_1513-6" x1="120.89" y1="147.3" x2="120.89" y2="127.88" xlink:href="#_1513"/><linearGradient id="_1513-7" x1="40.72" y1="101.24" x2="40.72" y2="62.1" xlink:href="#_1513"/><linearGradient id="_1513-8" x1="126.59" y1="97.96" x2="126.59" y2="62.68" xlink:href="#_1513"/><linearGradient id="_1513-9" x1="73.82" y1="50.99" x2="73.82" y2="36.4" xlink:href="#_1513"/><linearGradient id="_1513-10" x1="2722.42" y1="-4376.88" x2="2718.86" y2="-4378.76" gradientTransform="translate(-5021.11 -223.66) rotate(62.08)" xlink:href="#_1513"/><linearGradient id="_1513-11" x1="2724.13" y1="-4381.72" x2="2721.95" y2="-4382.87" gradientTransform="translate(-5021.11 -223.66) rotate(62.08)" xlink:href="#_1513"/><linearGradient id="_1513-12" x1="2317.18" y1="-4152.25" x2="2313.76" y2="-4154.01" gradientTransform="translate(-4676.69 -121.31) rotate(62.81)" xlink:href="#_1513"/><linearGradient id="_141-8" x1="83.53" y1="57.34" x2="83.53" y2="143.11" xlink:href="#_141"/><linearGradient id="_141-9" x1="24.76" y1="125.05" x2="142.31" y2="125.05" xlink:href="#_141"/><linearGradient id="_1513-13" x1="83.53" y1="105.9" x2="83.53" y2="147.58" xlink:href="#_1513"/><linearGradient id="_1250-10" x1="-4595.02" y1="141.48" x2="-4591.25" y2="97.02" gradientTransform="translate(-4453.81) rotate(-180) scale(.99 -1)" xlink:href="#_1250"/><linearGradient id="_141-10" x1="83.53" y1="38.96" x2="83.53" y2="124.73" xlink:href="#_141"/><linearGradient id="_141-11" x1="24.76" y1="106.68" x2="142.31" y2="106.68" xlink:href="#_141"/><linearGradient id="_1513-14" x1="83.53" y1="87.52" x2="83.53" y2="129.2" xlink:href="#_1513"/><linearGradient id="_1250-11" x1="-4595.02" y1="123.1" x2="-4591.25" y2="78.64" gradientTransform="translate(-4453.81) rotate(-180) scale(.99 -1)" xlink:href="#_1250"/><linearGradient id="_1513-15" x1="83.84" y1="100.27" x2="83.84" y2="63.08" xlink:href="#_1513"/><linearGradient id="_141-12" x1="83.84" y1="99.71" x2="83.84" y2="58.71" xlink:href="#_141"/><linearGradient id="_1250-12" x1="65.63" y1="82.16" x2="84.1" y2="82.16" xlink:href="#_1250"/><linearGradient id="_1250-13" x1="84.1" y1="82.16" x2="101.91" y2="82.16" xlink:href="#_1250"/><linearGradient id="_1250-14" x1="72.56" y1="90.82" x2="84.1" y2="90.82" xlink:href="#_1250"/><linearGradient id="_1250-15" x1="83.77" y1="90.82" x2="94.99" y2="90.82" xlink:href="#_1250"/><linearGradient id="_1056" x1="85.43" y1="67.27" x2="87.94" y2="90.28" gradientUnits="userSpaceOnUse"><stop offset="0" stop-color="#c3d6ee"/><stop offset="1" stop-color="#010101"/></linearGradient><linearGradient id="_1056-2" x1="84.1" y1="79.24" x2="101.91" y2="79.24" xlink:href="#_1056"/><linearGradient id="_1056-3" x1="91.53" y1="66.6" x2="94.04" y2="89.61" xlink:href="#_1056"/><linearGradient id="_1056-4" x1="73.6" y1="68.56" x2="76.11" y2="91.57" xlink:href="#_1056"/><linearGradient id="_1513-16" x1="83.84" y1="99.07" x2="83.84" y2="93.17" xlink:href="#_1513"/><linearGradient id="_1513-17" x1="74.87" y1="91.29" x2="74.87" y2="77.74" xlink:href="#_1513"/><linearGradient id="_1513-18" x1="93.01" y1="92.45" x2="93.01" y2="77.74" xlink:href="#_1513"/><linearGradient id="_1513-19" x1="83.84" y1="99.07" x2="83.84" y2="82.57" xlink:href="#_1513"/><linearGradient id="_1240" x1="57.75" y1="74.98" x2="57.75" y2="54.41" gradientUnits="userSpaceOnUse"><stop offset="0" stop-color="#837ebc"/><stop offset="1" stop-color="#705da8"/></linearGradient><linearGradient id="_141-13" x1="57.75" y1="74.35" x2="57.75" y2="55.38" xlink:href="#_141"/><linearGradient id="_1250-16" x1="49.33" y1="66.23" x2="57.87" y2="66.23" xlink:href="#_1250"/><linearGradient id="_1250-17" x1="57.87" y1="66.23" x2="66.11" y2="66.23" xlink:href="#_1250"/><linearGradient id="_1250-18" x1="52.53" y1="70.23" x2="57.87" y2="70.23" xlink:href="#_1250"/><linearGradient id="_1250-19" x1="57.72" y1="70.23" x2="62.9" y2="70.23" xlink:href="#_1250"/><linearGradient id="_1056-5" x1="58.49" y1="59.34" x2="59.65" y2="69.99" xlink:href="#_1056"/><linearGradient id="_1056-6" x1="57.87" y1="64.88" x2="66.11" y2="64.88" xlink:href="#_1056"/><linearGradient id="_1056-7" x1="61.31" y1="59.03" x2="62.47" y2="69.68" xlink:href="#_1056"/><linearGradient id="_1056-8" x1="53.01" y1="59.94" x2="54.17" y2="70.58" xlink:href="#_1056"/><linearGradient id="_1513-20" x1="57.75" y1="74.05" x2="57.75" y2="71.32" xlink:href="#_1513"/><linearGradient id="_1513-21" x1="53.6" y1="70.45" x2="53.6" y2="64.19" xlink:href="#_1513"/><linearGradient id="_1513-22" x1="61.99" y1="70.99" x2="61.99" y2="64.19" xlink:href="#_1513"/><linearGradient id="_1513-23" x1="57.75" y1="74.05" x2="57.75" y2="66.42" xlink:href="#_1513"/><linearGradient id="_1240-2" x1="110.09" x2="110.09" xlink:href="#_1240"/><linearGradient id="_141-14" x1="110.09" y1="74.35" x2="110.09" y2="55.38" xlink:href="#_141"/><linearGradient id="_1250-20" x1="101.67" y1="66.23" x2="110.21" y2="66.23" xlink:href="#_1250"/><linearGradient id="_1250-21" x1="110.21" y1="66.23" x2="118.45" y2="66.23" xlink:href="#_1250"/><linearGradient id="_1250-22" x1="104.87" y1="70.23" x2="110.21" y2="70.23" xlink:href="#_1250"/><linearGradient id="_1250-23" x1="110.06" y1="70.23" x2="115.25" y2="70.23" xlink:href="#_1250"/><linearGradient id="_1056-9" x1="110.83" y1="59.34" x2="111.99" y2="69.99" xlink:href="#_1056"/><linearGradient id="_1056-10" x1="110.21" y1="64.88" x2="118.45" y2="64.88" xlink:href="#_1056"/><linearGradient id="_1056-11" x1="113.65" y1="59.03" x2="114.81" y2="69.68" xlink:href="#_1056"/><linearGradient id="_1056-12" x1="105.35" y1="59.94" x2="106.51" y2="70.58" xlink:href="#_1056"/><linearGradient id="_1513-24" x1="110.09" y1="74.05" x2="110.09" y2="71.32" xlink:href="#_1513"/><linearGradient id="_1513-25" x1="105.94" y1="70.45" x2="105.94" y2="64.19" xlink:href="#_1513"/><linearGradient id="_1513-26" x1="114.33" y1="70.99" x2="114.33" y2="64.19" xlink:href="#_1513"/><linearGradient id="_1513-27" x1="110.09" y1="74.05" x2="110.09" y2="66.42" xlink:href="#_1513"/></defs><g class="cls-74"><g id="Layer_1"><polygon class="cls-80" points="33.8 72.97 29.93 60.81 33.77 55.97 59.76 40.29 59.76 9.95 63.06 7.57 73.49 0 73.49 51.76 33.8 72.97"/><polygon class="cls-93" points="29.93 60.81 63.06 41.83 63.06 7.57 59.76 9.95 59.76 40.29 33.77 55.97 29.93 60.81"/><path class="cls-48" d="m63.82,7.57c-.17,1.94.15,26.05,1.28,26.62s6.98-2.74,7.46-4.07c.49-1.33.2-27.13-.6-27.03-.8.09-8.02,3.13-8.14,4.49Z"/><path class="cls-60" d="m64.01,42.27c-2.95,2.43-32.41,18.53-32.81,19.58-.52,1.34,3.39,7.62,5.26,7.09s36.92-20.4,36.99-21.34c.07-.94.16-6.1-.69-6.44-.85-.34-7.62.18-8.75,1.11Z"/><polygon class="cls-83" points="29.93 61.85 63.76 42.21 63.94 6.99 63.06 7.57 63.06 41.83 29.93 60.81 29.93 61.85"/><path class="cls-48" d="m60.11,40.64c-1.93.13-25.98,15.56-25.98,16s-4.24,3.06-3.21,2.99c1.03-.06,31.43-17.25,31.47-17.81s-1.24-1.26-2.28-1.19Z"/><path class="cls-81" d="m29.93,61.85s16.01-8.08,24.2-13.23c8.19-5.15,9.89-6.35,9.89-6.35l-34.09,19.58Z"/><polygon class="cls-59" points="59.76 36.4 63.06 33.57 63.77 33.57 73.49 28.25 73.49 51.76 62.4 57.35 56.97 41.98 59.76 40.29 59.76 36.4"/><polygon class="cls-94" points="133.26 72.97 137.13 60.81 133.3 55.97 107.3 40.29 107.3 9.95 104 7.57 93.36 0 93.36 51.65 133.26 72.97"/><polygon class="cls-95" points="137.13 60.81 104 41.83 104 7.57 107.3 9.95 107.3 40.29 133.3 55.97 137.13 60.81"/><path class="cls-48" d="m102.7,7.57c.17,1.94.66,26.05-.47,26.62-1.13.56-7.4-3.07-7.88-4.4-.49-1.33-.04-26.8.76-26.71.8.09,7.48,3.13,7.6,4.49Z"/><path class="cls-10" d="m103.05,42.27c2.95,2.43,32.41,18.53,32.81,19.58.52,1.34-3.39,7.62-5.26,7.09-1.86-.53-36.92-20.4-36.99-21.34-.07-.94-.16-6.1.69-6.44.85-.34,7.62.18,8.75,1.11Z"/><polygon class="cls-83" points="137.13 61.85 103.31 42.21 103.12 6.99 104 7.57 104 41.83 137.13 60.81 137.13 61.85"/><path class="cls-48" d="m106.95,40.64c1.93.13,25.98,15.56,25.98,16s4.24,3.06,3.21,2.99c-1.03-.06-31.43-17.25-31.47-17.81s1.24-1.26,2.28-1.19Z"/><path class="cls-81" d="m137.13,61.85s-16.01-8.08-24.2-13.23c-8.19-5.15-9.89-6.35-9.89-6.35l34.09,19.58Z"/><polygon class="cls-64" points="107.3 36.4 103.83 33.57 103.12 33.57 93.37 28.22 93.41 51.76 104.5 57.35 109.93 41.98 107.3 40.29 107.3 36.4"/><path class="cls-76" d="m77.44,147.58v47.3c-14.29-7.56-35.84-29.57-35.84-29.57v-32.7l35.84,14.97Z"/><path class="cls-58" d="m77.44,185.35v9.53c-14.29-7.56-35.84-29.57-35.84-29.57v-8.16c4.97,6.34,15.51,17.1,35.84,28.2Z"/><path class="cls-87" d="m89.62,147.58v47.3c14.29-7.56,35.84-29.57,35.84-29.57v-32.7l-35.84,14.97Z"/><path class="cls-58" d="m89.62,185.35v9.53c14.29-7.56,35.84-29.57,35.84-29.57v-8.16c-4.97,6.34-15.51,17.1-35.84,28.2Z"/><path class="cls-57" d="m44.96,168.64s-.34-21.71,3.06-21.34c3.39.37,9.22,3.82,10.49,7.76,1.28,3.94.91,26.8.91,26.8l1.28,1.07s-1.59-27.77,1.05-26.4,6.16,3.9,7.39,10.1,1.59,24.23,1.59,24.23l6.71,4.02v-47.3l-35.84-14.97v32.7l3.36,3.33Z"/><path class="cls-57" d="m122.1,168.64s.28-25.44-3.11-25.07c-3.39.37-3.53,13.25-3.53,17.19,0,4.14-.55,14.67-.55,14.67l-1.91,1.74s.28-28.92-2.36-27.56-14.22,10.31-15.45,16.51c-1.22,6.2-.76,25.88-.76,25.88l-4.81,2.89v-47.3l35.84-14.97v32.7l-3.36,3.33Z"/><path class="cls-88" d="m31.89,124.31c-.13.46-19.63-6.31-19.63-6.31C3.61,104.73,0,94.25,0,94.25h33.29l-1.4,30.06Z"/><path class="cls-83" d="m6.35,94.25s7.78,16.06,9.2,17.79l16.83.45v-1.15s-15.41.13-16.28-.52-8.76-16.57-8.76-16.57h-.99Z"/><path class="cls-81" d="m6.35,94.25l9.2,17.79s-3.37-4.77-5.42-8.9c-2.05-4.12-3.78-8.9-3.78-8.9Z"/><path class="cls-48" d="m8.73,95.34c1.29,3.84,6.41,12.55,7.47,12.55s13.42-.22,14.55-2c1.14-1.78,2.11-10.38,1.13-10.56-.98-.18-23.73-1.71-23.16,0Z"/><path class="cls-48" d="m1.1,94.92c1.59,3.77,6,13.33,6.82,13.44.82.11,3.57.46,3.61-.69.07-1.83-5.09-12.51-6.24-12.75-1.15-.25-4.58-.92-4.19,0Z"/><path class="cls-9" d="m8.72,109.62c-.15,1.19,4.28,7.31,5.02,7.8s15.69,5.32,16.67,4.63,1.5-13.31.68-13.68c-.82-.37-22.21-.07-22.37,1.25Z"/><path class="cls-63" d="m22.1,94.25s2.68,14.39,2.11,27.8l7.68,2.26,1.4-30.06h-11.19Z"/><path class="cls-89" d="m135.17,124.31c.13.46,19.63-6.31,19.63-6.31,8.65-13.27,12.27-23.75,12.27-23.75h-33.29l1.4,30.06Z"/><path class="cls-83" d="m160.71,94.25s-7.78,16.06-9.2,17.79l-16.83.45v-1.15s15.41.13,16.28-.52,8.76-16.57,8.76-16.57h.99Z"/><path class="cls-81" d="m160.71,94.25l-9.2,17.79s3.37-4.77,5.42-8.9c2.05-4.12,3.78-8.9,3.78-8.9Z"/><path class="cls-48" d="m158.33,95.34c-1.29,3.84-6.41,12.55-7.47,12.55s-13.42-.22-14.55-2c-1.14-1.78-2.11-10.38-1.13-10.56.98-.18,23.73-1.71,23.16,0Z"/><path class="cls-48" d="m165.97,94.92c-1.59,3.77-6,13.33-6.82,13.44-.82.11-3.57.46-3.61-.69-.07-1.83,5.09-12.51,6.24-12.75,1.15-.25,4.58-.92,4.19,0Z"/><path class="cls-8" d="m158.34,109.62c.15,1.19-4.28,7.31-5.02,7.8s-15.69,5.32-16.67,4.63-1.5-13.31-.68-13.68c.82-.37,22.21-.07,22.37,1.25Z"/><path class="cls-68" d="m144.96,94.25s-2.68,14.39-2.11,27.8l-7.68,2.26-1.4-30.06h11.19Z"/><polygon class="cls-90" points="83.75 24.75 29.25 56.21 29.25 131.29 83.75 162.75 138.25 131.29 138.25 56.21 83.75 24.75"/><polygon class="cls-77" points="39.1 125.6 39.1 61.9 83.75 36.13 128.39 61.9 128.39 125.6 83.75 151.37 39.1 125.6"/><polygon class="cls-78" points="42.39 123.7 42.39 63.8 83.75 39.92 125.1 63.8 125.1 123.7 83.75 147.58 42.39 123.7"/><path class="cls-48" d="m30.61,56.41c-.67,2.02,5.12,4.5,9.2,3.61,4.08-.89,42.44-23.39,43.37-25.41.26-.56.3-8.43,0-8.43-1.35,0-52.24,29.24-52.57,30.22Z"/><path class="cls-48" d="m136.62,56.41c.67,2.02-5.12,4.5-9.2,3.61-4.08-.89-42.07-23.6-43.37-25.41-.67-.93-.89-8.43,0-8.43,1.35,0,52.24,29.24,52.56,30.22Z"/><path class="cls-12" d="m30.55,99.11c-.37,2.24-1.26,30.66,0,30.88s7.17-3.83,7.5-5.69c.33-1.86.44-21.35,0-23.22-.44-1.86-6.89-5.71-7.5-1.97Z"/><path class="cls-13" d="m136.73,99.11c.37,2.24,1.26,30.66,0,30.88s-7.17-3.83-7.5-5.69c-.33-1.86-.44-21.35,0-23.22.44-1.86,6.89-5.71,7.5-1.97Z"/><path class="cls-11" d="m31.92,130.76c.66.97,49.74,29.99,50.48,29.99.37,0,.86-7.21.86-8.02,0-2.24-43.41-25.29-44.17-25.51-1.12-.32-7.85,2.55-7.18,3.53Z"/><path class="cls-6" d="m135.66,131.52c-.66.97-50.66,29.9-51.4,29.9-.16,0-.17-8.98.16-9.31,1.59-1.59,42.98-24.66,43.74-24.88,1.12-.32,8.17,3.3,7.5,4.29Z"/><path class="cls-7" d="m44.28,122.1c-2.92-16.6-1.29-17.64,19.29-24.65,20.59-7.01,55.42-25.09,58.47-17.24,3.06,7.85,2.01,41.24,1.31,43.07-.69,1.83-36.65,22.49-39.62,22.54s-39.14-21.85-39.46-23.71Z"/><path class="cls-85" d="m124.21,64.21c-.73-.18-38.1-21.78-40.21-21.62-2,.15-28.04,12.33-38.72,21.53-2.85,2.45-1.81,39.1.82,38.43,2.63-.67,4.59-15.48,33.51-23.81,28.48-8.19,40.87-1.1,43.96.16.87.36,2.3-14.3.64-14.7Z"/><path class="cls-69" d="m39.1,125.6v-63.69l44.64-25.78,44.64,25.78v63.69l-3.29-1.9s.2-55.37-.99-57.1c-4.25-6.2-37.27-21.26-42.69-19.58-5.55,1.72-34.91,14.22-38.2,19.47-1.11,1.77-.84,57.21-.84,57.21l-3.29,1.9Z"/><path class="cls-86" d="m92.09,70.6c11.12,5.07,27.88,5.16,29.41,4.19,1.53-.97,2.55-8.1.14-9.31-2.41-1.2-21.5-11.37-26.54-10.27s-4.99,14.49-3.02,15.39Z"/><path class="cls-79" d="m29.25,79.08c0-.17.47-21.17,1.36-22.67.89-1.5,51.97-29.82,53.45-30.22,1.49-.4,20.62,10.64,20.62,10.64l-20.93-12.08-54.5,31.47v22.87Z"/><path class="cls-81" d="m103.25,47.39s23.94,13.62,24.27,15.15c.33,1.53.87,42.7.87,42.7,0,0,.23-41.58,0-43.34-.23-1.76-25.14-14.51-25.14-14.51Z"/><path class="cls-81" d="m39.1,96.81s-.8-34.43-.39-35.55c.4-1.12,45.04-25.13,45.04-25.13,0,0-43.1,24.64-43.98,26.2-.89,1.56-.66,34.48-.66,34.48Z"/><path class="cls-73" d="m29.25,131.29l54.5,31.47,54.5-31.47v-17.1s-.46,14.93-1.57,16.79c-1.11,1.86-49.93,30.25-52.42,30.44-2.49.19-52.4-29.46-53.7-31.43s-1.31-36.96-1.31-36.96v38.26Z"/><path class="cls-81" d="m39.1,109.29s-.15,14.69.66,15.92c.81,1.23,21.99,13.46,21.99,13.46,0,0-22.94-11.86-23.16-12.63-.21-.77.51-16.76.51-16.76Z"/><path class="cls-48" d="m57.54,138.97c-1.61,0-6.12,1.81-5.14,2.88.79.86,27.8,17.24,30.87,18.37,1,.37.9-6.02-.44-8.08-.57-.88-20.3-13.17-25.29-13.16Z"/><path class="cls-62" d="m108.88,139.12c-1.17,5.13-.99,8.15-.33,8.18.66.03,24.49-14.31,25.14-14.94.65-.63-3.82-4.75-5.66-4.47-1.84.28-18.71,9.31-19.15,11.23Z"/><path class="cls-67" d="m41.99,63.36c-.58-1.73-2.34-1.72-2.5.21-.16,1.93-.44,37.61.26,37.67.7.05,2.18-1.7,2.23-2.52.05-.82.27-34.54,0-35.36Z"/><path class="cls-66" d="m125.5,63.58c-.09.68-.44,34.37,0,34.37s2.41-1.59,2.41-2.41-.49-32.68-.71-32.84c-.22-.16-1.62.33-1.7.88Z"/><path class="cls-65" d="m83.75,39.37c0,.66-19.2,11.62-19.66,11.62s-.29-2.96.33-3.37c.62-.41,19.19-11.58,19.33-11.21s0,2.41,0,2.96Z"/><path class="cls-83" d="m123.39,128.15c-1.23-.05-5.37,2.36-5.05,3.54s2.85,2.45,3.52,1.77c.67-.68,2.33-5.28,1.53-5.31Z"/><path class="cls-83" d="m124.96,128.98c-.42.39-1.34,1.77-.47,2.44.87.67,3.45-1.1,3.07-1.63s-2.06-1.32-2.6-.82Z"/><path class="cls-44" d="m118.94,130.51c-1.02,1.38,3.17,2.3,3.71,1.14s1.42-3.62.73-3.5c-.69.12-3.89,1.6-4.45,2.36Z"/><path class="cls-82" d="m118.35,131.35s.34,1.18,1.58,1.91c.98.57,1.82.44,2.06.02,0,0-.76.99-2.03.4-1.99-.93-1.62-2.33-1.62-2.33Z"/><path class="cls-42" d="m125.43,129.02c-.95,1.02-.21,2.49.32,2.41.53-.08,2.12-1.13,1.82-1.63-.3-.5-1.93-1-2.14-.78Z"/><path class="cls-82" d="m124.96,128.98s-.87,1.2-.52,1.88c.35.69.84.69.84.69,0,0-1.12.65-1.33-.11-.36-1.33,1.01-2.46,1.01-2.46Z"/><path class="cls-83" d="m78.13,39c-2.94-.78-5.31,1.13-6.6,2.59s-.57,2.33,1.05,2.04c1.62-.29,6.78-4.3,5.55-4.63Z"/><path class="cls-38" d="m78.13,39c-1.99-.68-4.5.64-5.29,1.34-.79.7.76,2.68,1.83,2.26,1.07-.42,4.36-3.29,3.46-3.6Z"/><path class="cls-81" d="m72.28,40.83s-3.32,2.17-2.95,3.25c.37,1.08,4.35-.89,4.35-.89,0,0-2.06.67-2.53-.24s1.13-2.12,1.13-2.12Z"/><path class="cls-81" d="m41,126.03c-1.56.39,3.07,3.57,4.16,3.73,1.1.16.02-2.62-.52-3.1-.39-.35-2.77-.85-3.65-.63Z"/><path class="cls-91" d="m83.7,129.1l-56.26-32.81c-2.17,4.96-2.69,9.61-2.69,9.61l3.67,6.2,55.28,32.1h0l55.28-32.1,3.33-6.2s0-4.65-2.01-9.61l-56.59,32.81Z"/><polygon class="cls-92" points="28.43 112.1 24.76 105.9 83.7 140.43 142.31 105.9 138.98 112.1 83.7 144.2 28.43 112.1"/><path class="cls-39" d="m24.76,105.9l3.67,6.2.84.52-.02,1.85s3.15,1.61,9.35,5.03c.21.12,3.89,4.01,3.89,4.01,0,0,39.82,24.08,41.26,24.08,1.86,0,41.36-24.61,41.36-24.61,0,0,3.08-2.58,3.38-2.76l9.76-5.11v-2.57l.73-.43,3.33-6.2-58.6,34.53-58.95-34.53Z"/><path class="cls-18" d="m83.7,129.1v11.33l58.6-34.53s-.23-5.68-2.01-9.61l-56.59,32.81Z"/><path class="cls-48" d="m30.34,98.78c-1.08,0-.19,9.53,3.08,11.72,5.19,3.48,36.5,21.94,38.56,21.96,1.42.01,1.34-8.08.92-8.71-.81-1.19-40.94-24.97-42.55-24.97Z"/><path class="cls-48" d="m101.1,119.31c-.68.7-.59,9.61.57,9.34,1.16-.27,18.86-9.72,27.21-15.84,8.35-6.13,9.52-14.21,7.65-14.03,0,0-34.03,19.09-35.43,20.53Z"/><path class="cls-81" d="m55.04,123.64s26.94,16.15,28.66,16.15,23.23-13.05,23.23-13.05c0,0-22.57,14.31-23.19,14.31-.48,0-28.71-17.41-28.71-17.41Z"/><path class="cls-2" d="m83.7,110.72l-56.26-32.81c-2.17,4.96-2.69,9.61-2.69,9.61l3.67,6.2,55.28,32.1h0l55.28-32.1,3.33-6.2s0-4.65-2.01-9.61l-56.59,32.81Z"/><polygon class="cls-5" points="28.43 93.73 24.76 87.52 83.7 122.05 142.31 87.52 138.98 93.73 83.7 125.83 28.43 93.73"/><path class="cls-46" d="m24.76,87.52l3.67,6.2.84.52-.02,1.85s3.15,1.61,9.35,5.03c.21.12,3.89,4.01,3.89,4.01,0,0,39.82,24.08,41.26,24.08,1.86,0,41.36-24.61,41.36-24.61,0,0,3.08-2.58,3.38-2.76l9.76-5.11v-2.57l.73-.43,3.33-6.2-58.6,34.53-58.95-34.53Z"/><path class="cls-21" d="m83.7,110.72v11.33l58.6-34.53s-.23-5.68-2.01-9.61l-56.59,32.81Z"/><path class="cls-48" d="m30.34,80.4c-1.08,0-.19,9.53,3.08,11.72,5.19,3.48,36.5,21.94,38.56,21.96,1.42.01,1.34-8.08.92-8.71-.81-1.19-40.94-24.97-42.55-24.97Z"/><path class="cls-48" d="m101.1,100.93c-.68.7-.59,9.61.57,9.34,1.16-.27,18.86-9.72,27.21-15.84,8.35-6.13,9.52-14.21,7.65-14.03,0,0-34.03,19.09-35.43,20.53Z"/><path class="cls-81" d="m55.04,105.26s26.94,16.15,28.66,16.15,23.23-13.05,23.23-13.05c0,0-22.57,14.31-23.19,14.31-.48,0-28.71-17.41-28.71-17.41Z"/><polygon class="cls-47" points="83.84 93.91 71.75 100.27 74.06 86.81 64.29 77.28 77.8 75.32 83.84 63.08 89.88 75.32 103.39 77.28 93.61 86.81 95.92 100.27 83.84 93.91"/><polygon class="cls-3" points="101.98 77.74 95.46 76.79 93.68 76.53 89.44 75.92 83.84 64.56 78.23 75.92 65.7 77.74 74.77 86.58 72.63 99.07 83.84 93.17 95.05 99.07 92.91 86.58 101.98 77.74"/><polygon class="cls-28" points="65.63 77.74 84.1 82.57 74.7 86.58 65.63 77.74"/><polygon class="cls-26" points="101.91 77.74 84.1 82.57 92.84 86.58 101.91 77.74"/><polygon class="cls-29" points="83.77 93.17 84.1 82.57 72.56 99.07 83.77 93.17"/><polygon class="cls-25" points="94.99 99.07 84.1 82.57 83.77 93.17 94.99 99.07"/><polygon class="cls-15" points="83.77 64.56 84.1 82.57 89.38 75.92 83.77 64.56"/><polygon class="cls-49" points="101.91 77.74 84.1 82.57 89.38 75.92 101.91 77.74"/><polygon class="cls-50" points="101.91 77.74 84.1 82.57 89.38 75.92 101.91 77.74"/><polygon class="cls-56" points="78.17 75.92 84.1 82.57 65.63 77.74 78.17 75.92"/><path class="cls-75" d="m89.38,79.87c-.93.79-.14,1.3-.14,1.3l4.8-1.3s-2.51-1.82-4.66,0Z"/><path class="cls-40" d="m72.63,99.07s8.5-4.01,11.21-5.12l11.21,5.12-11.21-5.89-11.21,5.89Z"/><polygon class="cls-43" points="65.63 77.74 84.1 82.57 73.96 91.29 65.63 77.74"/><polygon class="cls-45" points="101.91 77.74 84.1 82.57 93.92 92.45 101.91 77.74"/><polygon class="cls-41" points="72.63 99.07 84.1 82.57 95.05 99.07 83.84 97.29 72.63 99.07"/><path class="cls-84" d="m79.66,73.95c-1.19,3.31,3.35,5.62,3.96,4.6.61-1.02.22-6.7-.54-7.46-.77-.77-2.93,1.51-3.42,2.86Z"/><path class="cls-84" d="m75.95,90.89c2.41.33,3.77-2.42,4.27-4.31.82-3.05-8.66,3.72-4.27,4.31Z"/><polygon class="cls-61" points="57.75 71.7 52.13 74.65 53.2 68.39 48.65 63.96 54.94 63.04 57.75 57.35 60.56 63.04 66.85 63.96 62.3 68.39 63.37 74.65 57.75 71.7"/><polygon class="cls-1" points="66.14 64.19 63.12 63.75 62.3 63.63 60.34 63.34 57.75 58.09 55.15 63.34 49.36 64.19 53.55 68.28 52.56 74.05 57.75 71.32 62.93 74.05 61.94 68.28 66.14 64.19"/><polygon class="cls-24" points="49.33 64.19 57.87 66.42 53.52 68.28 49.33 64.19"/><polygon class="cls-19" points="66.11 64.19 57.87 66.42 61.91 68.28 66.11 64.19"/><polygon class="cls-27" points="57.72 71.32 57.87 66.42 52.53 74.05 57.72 71.32"/><polygon class="cls-20" points="62.9 74.05 57.87 66.42 57.72 71.32 62.9 74.05"/><polygon class="cls-52" points="57.72 58.09 57.87 66.42 60.31 63.34 57.72 58.09"/><polygon class="cls-53" points="66.11 64.19 57.87 66.42 60.31 63.34 66.11 64.19"/><polygon class="cls-54" points="66.11 64.19 57.87 66.42 60.31 63.34 66.11 64.19"/><polygon class="cls-55" points="55.13 63.34 57.87 66.42 49.33 64.19 55.13 63.34"/><path class="cls-75" d="m60.31,65.17c-.43.36-.06.6-.06.6l2.22-.6s-1.16-.84-2.16,0Z"/><path class="cls-36" d="m52.56,74.05s3.93-1.85,5.19-2.37l5.19,2.37-5.19-2.73-5.19,2.73Z"/><polygon class="cls-32" points="49.33 64.19 57.87 66.42 53.18 70.45 49.33 64.19"/><polygon class="cls-37" points="66.11 64.19 57.87 66.42 62.41 70.99 66.11 64.19"/><polygon class="cls-30" points="52.56 74.05 57.87 66.42 62.93 74.05 57.75 73.23 52.56 74.05"/><path class="cls-84" d="m55.82,62.43c-.55,1.53,1.55,2.6,1.83,2.13.28-.47.1-3.1-.25-3.45-.35-.35-1.36.7-1.58,1.33Z"/><path class="cls-84" d="m54.1,70.27c1.12.15,1.74-1.12,1.98-2,.38-1.41-4.01,1.72-1.98,2Z"/><polygon class="cls-14" points="110.09 71.7 104.47 74.65 105.54 68.39 100.99 63.96 107.28 63.04 110.09 57.35 112.9 63.04 119.19 63.96 114.64 68.39 115.71 74.65 110.09 71.7"/><polygon class="cls-4" points="118.48 64.19 115.46 63.75 114.64 63.63 112.68 63.34 110.09 58.09 107.5 63.34 101.7 64.19 105.89 68.28 104.9 74.05 110.09 71.32 115.27 74.05 114.28 68.28 118.48 64.19"/><polygon class="cls-22" points="101.67 64.19 110.21 66.42 105.86 68.28 101.67 64.19"/><polygon class="cls-23" points="118.45 64.19 110.21 66.42 114.25 68.28 118.45 64.19"/><polygon class="cls-17" points="110.06 71.32 110.21 66.42 104.87 74.05 110.06 71.32"/><polygon class="cls-16" points="115.25 74.05 110.21 66.42 110.06 71.32 115.25 74.05"/><polygon class="cls-51" points="110.06 58.09 110.21 66.42 112.65 63.34 110.06 58.09"/><polygon class="cls-72" points="118.45 64.19 110.21 66.42 112.65 63.34 118.45 64.19"/><polygon class="cls-71" points="118.45 64.19 110.21 66.42 112.65 63.34 118.45 64.19"/><polygon class="cls-70" points="107.47 63.34 110.21 66.42 101.67 64.19 107.47 63.34"/><path class="cls-75" d="m112.65,65.17c-.43.36-.06.6-.06.6l2.22-.6s-1.16-.84-2.16,0Z"/><path class="cls-31" d="m104.9,74.05s3.93-1.85,5.19-2.37l5.19,2.37-5.19-2.73-5.19,2.73Z"/><polygon class="cls-35" points="101.67 64.19 110.21 66.42 105.52 70.45 101.67 64.19"/><polygon class="cls-34" points="118.45 64.19 110.21 66.42 114.75 70.99 118.45 64.19"/><polygon class="cls-33" points="104.9 74.05 110.21 66.42 115.27 74.05 110.09 73.23 104.9 74.05"/><path class="cls-84" d="m108.16,62.43c-.55,1.53,1.55,2.6,1.83,2.13s.1-3.1-.25-3.45c-.35-.35-1.36.7-1.58,1.33Z"/><path class="cls-84" d="m106.44,70.27c1.12.15,1.74-1.12,1.98-2,.38-1.41-4.01,1.72-1.98,2Z"/></g></g></svg>