<?xml version="1.0" encoding="UTF-8"?><svg xmlns="http://www.w3.org/2000/svg" xmlns:xlink="http://www.w3.org/1999/xlink" viewBox="0 0 167.06 138.01"><defs><style>.cls-1{fill:url(#_1250-8);}.cls-1,.cls-2,.cls-3,.cls-4,.cls-5,.cls-6,.cls-7,.cls-8,.cls-9,.cls-10,.cls-11,.cls-12,.cls-13,.cls-14,.cls-15,.cls-16,.cls-17,.cls-18,.cls-19,.cls-20,.cls-21,.cls-22,.cls-23,.cls-24,.cls-25,.cls-26,.cls-27,.cls-28,.cls-29,.cls-30,.cls-31,.cls-32,.cls-33,.cls-34,.cls-35,.cls-36,.cls-37,.cls-38,.cls-39,.cls-40,.cls-41,.cls-42,.cls-43,.cls-44,.cls-45,.cls-46{opacity:.5;}.cls-1,.cls-2,.cls-3,.cls-4,.cls-5,.cls-6,.cls-7,.cls-8,.cls-10,.cls-11,.cls-12,.cls-13,.cls-14,.cls-15,.cls-16,.cls-17,.cls-18,.cls-19,.cls-20,.cls-21,.cls-22,.cls-23,.cls-24,.cls-25,.cls-26,.cls-27,.cls-28,.cls-37,.cls-38,.cls-47,.cls-39,.cls-40,.cls-41,.cls-42,.cls-43,.cls-44,.cls-45,.cls-46{mix-blend-mode:multiply;}.cls-2{fill:url(#_1250-9);}.cls-3{fill:url(#_1250-4);}.cls-4{fill:url(#_1250-3);}.cls-5{fill:url(#_1250-2);}.cls-6{fill:url(#_1250-7);}.cls-7{fill:url(#_1250-5);}.cls-8{fill:url(#_1250-6);}.cls-48{fill:none;isolation:isolate;}.cls-9{fill:url(#_1056);}.cls-9,.cls-30,.cls-31,.cls-32,.cls-33,.cls-34,.cls-35,.cls-36,.cls-49{mix-blend-mode:color-dodge;}.cls-50{fill:url(#_179);}.cls-51{fill:url(#_135);}.cls-52{fill:url(#_115);}.cls-53{fill:url(#_141);}.cls-10{fill:url(#_1250-10);}.cls-11{fill:url(#_1250-11);}.cls-12{fill:url(#_1250-16);}.cls-13{fill:url(#_1250-15);}.cls-14{fill:url(#_1250-13);}.cls-15{fill:url(#_1250-12);}.cls-16{fill:url(#_1250-14);}.cls-54{fill:#d2afd3;}.cls-55{fill:#dbe2ef;}.cls-56{fill:#4f2c7c;}.cls-57{fill:#f7fcfd;opacity:.4;}.cls-57,.cls-58,.cls-59,.cls-29{mix-blend-mode:soft-light;}.cls-58{opacity:.3;}.cls-58,.cls-59,.cls-29,.cls-49{fill:#fff;}.cls-59{opacity:.2;}.cls-17{fill:url(#_1513-21);}.cls-18{fill:url(#_1513-20);}.cls-19{fill:url(#_1513-12);}.cls-20{fill:url(#_1513-13);}.cls-21{fill:url(#_1513-16);}.cls-22{fill:url(#_1513-19);}.cls-23{fill:url(#_1513-11);}.cls-24{fill:url(#_1513-17);}.cls-25{fill:url(#_1513-10);}.cls-26{fill:url(#_1513-18);}.cls-27{fill:url(#_1513-14);}.cls-28{fill:url(#_1513-15);}.cls-30{fill:url(#_1056-2);}.cls-31{fill:url(#_1056-3);}.cls-32{fill:url(#_1056-5);}.cls-33{fill:url(#_1056-6);}.cls-34{fill:url(#_1056-7);}.cls-35{fill:url(#_1056-8);}.cls-36{fill:url(#_1056-4);}.cls-37{fill:url(#_1513);}.cls-38{fill:url(#_1250);}.cls-47{fill:url(#_115-2);}.cls-49{opacity:.8;}.cls-39{fill:url(#_1513-6);}.cls-40{fill:url(#_1513-3);}.cls-41{fill:url(#_1513-2);}.cls-42{fill:url(#_1513-9);}.cls-43{fill:url(#_1513-8);}.cls-44{fill:url(#_1513-7);}.cls-45{fill:url(#_1513-4);}.cls-46{fill:url(#_1513-5);}.cls-60{fill:url(#_141-5);}.cls-61{fill:url(#_141-6);}.cls-62{fill:url(#_141-7);}.cls-63{fill:url(#_141-2);}.cls-64{fill:url(#_141-3);}.cls-65{fill:url(#_141-4);}</style><linearGradient id="_141" x1="16.65" y1="99.49" x2="16.65" y2="69.73" gradientUnits="userSpaceOnUse"><stop offset="0" stop-color="#dd71ac"/><stop offset=".45" stop-color="#a753a0"/><stop offset=".81" stop-color="#67489d"/><stop offset=".84" stop-color="#634e9f"/><stop offset=".89" stop-color="#5a5fa8"/><stop offset=".95" stop-color="#4c7bb5"/><stop offset="1" stop-color="#3c9ac4"/></linearGradient><linearGradient id="_1250" x1="20.2" y1="96.53" x2="20.08" y2="82.56" gradientUnits="userSpaceOnUse"><stop offset="0" stop-color="#705da8"/><stop offset="1" stop-color="#fff"/></linearGradient><linearGradient id="_1513" x1="27.7" y1="99.56" x2="27.7" y2="69.5" gradientUnits="userSpaceOnUse"><stop offset="0" stop-color="#fff"/><stop offset=".44" stop-color="#7351a1"/><stop offset="1" stop-color="#292562"/></linearGradient><linearGradient id="_141-2" x1="-135.58" y1="99.49" x2="-135.58" y2="69.73" gradientTransform="translate(14.83) rotate(-180) scale(1 -1)" xlink:href="#_141"/><linearGradient id="_1250-2" x1="-132.03" y1="96.53" x2="-132.15" y2="82.56" gradientTransform="translate(14.83) rotate(-180) scale(1 -1)" xlink:href="#_1250"/><linearGradient id="_1513-2" x1="-57.15" y1="99.56" x2="-57.15" y2="69.5" gradientTransform="translate(82.22) rotate(-180) scale(1 -1)" xlink:href="#_1513"/><linearGradient id="_141-3" x1="83.75" y1="140.38" x2="83.75" y2="22.04" xlink:href="#_141"/><linearGradient id="_179" x1="83.75" y1="18.51" x2="83.75" y2="126.32" gradientUnits="userSpaceOnUse"><stop offset="0" stop-color="#3c9ac4"/><stop offset=".05" stop-color="#4c7bb5"/><stop offset=".11" stop-color="#5a5fa8"/><stop offset=".16" stop-color="#634e9f"/><stop offset=".19" stop-color="#67489d"/><stop offset=".55" stop-color="#a753a0"/><stop offset="1" stop-color="#dd71ac"/></linearGradient><linearGradient id="_135" x1="83.75" y1="122.83" x2="83.75" y2="15.17" gradientUnits="userSpaceOnUse"><stop offset="0" stop-color="#ae73b1"/><stop offset=".08" stop-color="#9d65aa"/><stop offset=".3" stop-color="#76479c"/><stop offset=".48" stop-color="#5e3393"/><stop offset=".59" stop-color="#562d90"/><stop offset=".66" stop-color="#533d99"/><stop offset=".79" stop-color="#4f57a8"/><stop offset=".91" stop-color="#4d67b0"/><stop offset="1" stop-color="#4d6db4"/></linearGradient><linearGradient id="_1250-3" x1="34.12" y1="119.37" x2="34.12" y2="54.13" xlink:href="#_1250"/><linearGradient id="_1250-4" x1="-4906.92" y1="119.37" x2="-4906.92" y2="54.13" gradientTransform="translate(-4773.76) rotate(-180) scale(1 -1)" xlink:href="#_1250"/><linearGradient id="_1250-5" x1="44.06" y1="95.02" x2="70.44" y2="137.8" xlink:href="#_1250"/><linearGradient id="_1250-6" x1="102.83" y1="100.42" x2="121.72" y2="156.43" xlink:href="#_1250"/><linearGradient id="_1250-7" x1="83.64" y1="130.25" x2="83.64" y2="40.05" xlink:href="#_1250"/><linearGradient id="_1513-3" x1="83.75" y1="100.85" x2="83.75" y2="11.38" xlink:href="#_1513"/><linearGradient id="_115" x1="29.24" y1="27.17" x2="104.67" y2="27.17" gradientUnits="userSpaceOnUse"><stop offset="0" stop-color="#778cc6"/><stop offset="1" stop-color="#836888"/></linearGradient><linearGradient id="_115-2" y1="103.14" x2="138.25" y2="103.14" xlink:href="#_115"/><linearGradient id="_1513-4" x1="120.89" y1="122.55" x2="120.89" y2="103.13" xlink:href="#_1513"/><linearGradient id="_1513-5" x1="40.72" y1="76.5" x2="40.72" y2="37.35" xlink:href="#_1513"/><linearGradient id="_1513-6" x1="126.59" y1="73.21" x2="126.59" y2="37.93" xlink:href="#_1513"/><linearGradient id="_1513-7" x1="73.82" y1="26.24" x2="73.82" y2="11.66" xlink:href="#_1513"/><linearGradient id="_1513-8" x1="2728.34" y1="-4408.31" x2="2724.78" y2="-4410.19" gradientTransform="translate(-5051.65 -238.92) rotate(62.08)" xlink:href="#_1513"/><linearGradient id="_1513-9" x1="2730.06" y1="-4413.15" x2="2727.88" y2="-4414.3" gradientTransform="translate(-5051.65 -238.92) rotate(62.08)" xlink:href="#_1513"/><linearGradient id="_1513-10" x1="2323.12" y1="-4183.79" x2="2319.7" y2="-4185.55" gradientTransform="translate(-4707.46 -136.94) rotate(62.81)" xlink:href="#_1513"/><linearGradient id="_141-4" x1="83.53" y1="32.59" x2="83.53" y2="118.36" xlink:href="#_141"/><linearGradient id="_141-5" x1="24.76" y1="100.31" x2="142.31" y2="100.31" xlink:href="#_141"/><linearGradient id="_1513-11" x1="83.53" y1="81.15" x2="83.53" y2="122.83" xlink:href="#_1513"/><linearGradient id="_1250-8" x1="-4600.21" y1="116.73" x2="-4596.45" y2="72.27" gradientTransform="translate(-4458.98) rotate(-180) scale(.99 -1)" xlink:href="#_1250"/><linearGradient id="_1513-12" x1="83.84" y1="94.4" x2="83.84" y2="57.21" xlink:href="#_1513"/><linearGradient id="_141-6" x1="83.84" y1="93.85" x2="83.84" y2="52.84" xlink:href="#_141"/><linearGradient id="_1250-9" x1="65.63" y1="76.3" x2="84.1" y2="76.3" xlink:href="#_1250"/><linearGradient id="_1250-10" x1="84.1" y1="76.3" x2="101.91" y2="76.3" xlink:href="#_1250"/><linearGradient id="_1250-11" x1="72.56" y1="84.95" x2="84.1" y2="84.95" xlink:href="#_1250"/><linearGradient id="_1250-12" x1="83.77" y1="84.95" x2="94.99" y2="84.95" xlink:href="#_1250"/><linearGradient id="_1056" x1="85.43" y1="61.4" x2="87.94" y2="84.41" gradientUnits="userSpaceOnUse"><stop offset="0" stop-color="#c3d6ee"/><stop offset="1" stop-color="#010101"/></linearGradient><linearGradient id="_1056-2" x1="84.1" y1="73.38" x2="101.91" y2="73.38" xlink:href="#_1056"/><linearGradient id="_1056-3" x1="91.53" y1="60.74" x2="94.04" y2="83.75" xlink:href="#_1056"/><linearGradient id="_1056-4" x1="73.6" y1="62.69" x2="76.11" y2="85.7" xlink:href="#_1056"/><linearGradient id="_1513-13" x1="83.84" y1="93.2" x2="83.84" y2="87.31" xlink:href="#_1513"/><linearGradient id="_1513-14" x1="74.87" y1="85.43" x2="74.87" y2="71.87" xlink:href="#_1513"/><linearGradient id="_1513-15" x1="93.01" y1="86.59" x2="93.01" y2="71.87" xlink:href="#_1513"/><linearGradient id="_1513-16" x1="83.84" y1="93.2" x2="83.84" y2="76.7" xlink:href="#_1513"/><linearGradient id="_1513-17" x1="83.84" y1="57.21" x2="83.84" y2="20.02" xlink:href="#_1513"/><linearGradient id="_141-7" x1="83.84" y1="56.66" x2="83.84" y2="15.65" xlink:href="#_141"/><linearGradient id="_1250-13" x1="65.63" y1="39.1" x2="84.1" y2="39.1" xlink:href="#_1250"/><linearGradient id="_1250-14" x1="84.1" y1="39.1" x2="101.91" y2="39.1" xlink:href="#_1250"/><linearGradient id="_1250-15" x1="72.56" y1="47.76" x2="84.1" y2="47.76" xlink:href="#_1250"/><linearGradient id="_1250-16" x1="83.77" y1="47.76" x2="94.99" y2="47.76" xlink:href="#_1250"/><linearGradient id="_1056-5" y1="24.21" y2="47.22" xlink:href="#_1056"/><linearGradient id="_1056-6" x1="84.1" y1="36.19" x2="101.91" y2="36.19" xlink:href="#_1056"/><linearGradient id="_1056-7" x1="91.53" y1="23.55" x2="94.04" y2="46.56" xlink:href="#_1056"/><linearGradient id="_1056-8" x1="73.6" y1="25.5" x2="76.11" y2="48.51" xlink:href="#_1056"/><linearGradient id="_1513-18" x1="83.84" y1="56.01" x2="83.84" y2="50.11" xlink:href="#_1513"/><linearGradient id="_1513-19" x1="74.87" y1="48.23" x2="74.87" y2="34.68" xlink:href="#_1513"/><linearGradient id="_1513-20" x1="93.01" y1="49.4" x2="93.01" y2="34.68" xlink:href="#_1513"/><linearGradient id="_1513-21" x1="83.84" y1="56.01" x2="83.84" y2="39.51" xlink:href="#_1513"/></defs><g class="cls-48"><g id="Layer_1"><path class="cls-53" d="m31.89,99.56c-.13.46-19.63-6.31-19.63-6.31C3.61,79.98,0,69.5,0,69.5h33.29l-1.4,30.06Z"/><path class="cls-56" d="m6.35,69.5s7.78,16.06,9.2,17.79l16.83.45v-1.15s-15.41.13-16.28-.52-8.76-16.57-8.76-16.57h-.99Z"/><path class="cls-54" d="m6.35,69.5l9.2,17.79s-3.37-4.77-5.42-8.9-3.78-8.9-3.78-8.9Z"/><path class="cls-29" d="m8.73,70.59c1.29,3.84,6.41,12.55,7.47,12.55s13.42-.22,14.55-2,2.11-10.38,1.13-10.56-23.73-1.71-23.16,0Z"/><path class="cls-29" d="m1.1,70.17c1.59,3.77,6,13.33,6.82,13.44.82.11,3.57.46,3.61-.69.07-1.83-5.09-12.51-6.24-12.75-1.15-.25-4.58-.92-4.19,0Z"/><path class="cls-38" d="m8.72,84.87c-.15,1.19,4.28,7.31,5.02,7.8.74.49,15.69,5.32,16.67,4.63s1.5-13.31.68-13.68-22.21-.07-22.37,1.25Z"/><path class="cls-37" d="m22.1,69.5s2.68,14.39,2.11,27.8l7.68,2.26,1.4-30.06h-11.19Z"/><path class="cls-63" d="m135.17,99.56c.13.46,19.63-6.31,19.63-6.31,8.65-13.27,12.27-23.75,12.27-23.75h-33.29l1.4,30.06Z"/><path class="cls-56" d="m160.71,69.5s-7.78,16.06-9.2,17.79l-16.83.45v-1.15s15.41.13,16.28-.52c.88-.66,8.76-16.57,8.76-16.57h.99Z"/><path class="cls-54" d="m160.71,69.5l-9.2,17.79s3.37-4.77,5.42-8.9c2.05-4.12,3.78-8.9,3.78-8.9Z"/><path class="cls-29" d="m158.33,70.59c-1.29,3.84-6.41,12.55-7.47,12.55s-13.42-.22-14.55-2-2.11-10.38-1.13-10.56,23.73-1.71,23.16,0Z"/><path class="cls-29" d="m165.97,70.17c-1.59,3.77-6,13.33-6.82,13.44-.82.11-3.57.46-3.61-.69-.07-1.83,5.09-12.51,6.24-12.75,1.15-.25,4.58-.92,4.19,0Z"/><path class="cls-5" d="m158.34,84.87c.15,1.19-4.28,7.31-5.02,7.8s-15.69,5.32-16.67,4.63-1.5-13.31-.68-13.68,22.21-.07,22.37,1.25Z"/><path class="cls-41" d="m144.96,69.5s-2.68,14.39-2.11,27.8l-7.68,2.26-1.4-30.06h11.19Z"/><polygon class="cls-64" points="83.75 0 29.24 31.47 29.24 106.54 83.75 138.01 138.25 106.54 138.25 31.47 83.75 0"/><polygon class="cls-50" points="39.1 100.85 39.1 37.16 83.75 11.38 128.39 37.16 128.39 100.85 83.75 126.62 39.1 100.85"/><polygon class="cls-51" points="42.39 98.95 42.39 39.05 83.75 15.17 125.1 39.05 125.1 98.95 83.75 122.83 42.39 98.95"/><path class="cls-29" d="m30.61,31.67c-.67,2.02,5.12,4.5,9.2,3.61,4.08-.89,42.44-23.39,43.37-25.41.26-.56.3-8.43,0-8.43-1.35,0-52.24,29.24-52.56,30.22Z"/><path class="cls-29" d="m136.62,31.67c.67,2.02-5.12,4.5-9.2,3.61s-42.07-23.6-43.37-25.41c-.67-.93-.89-8.43,0-8.43,1.35,0,52.24,29.24,52.56,30.22Z"/><path class="cls-4" d="m30.55,74.36c-.37,2.25-1.26,30.66,0,30.88,1.26.22,7.17-3.83,7.5-5.69.33-1.86.44-21.35,0-23.22-.44-1.86-6.89-5.71-7.5-1.97Z"/><path class="cls-3" d="m136.73,74.36c.37,2.25,1.26,30.66,0,30.88-1.26.22-7.17-3.83-7.5-5.69-.33-1.86-.44-21.35,0-23.22.44-1.86,6.89-5.71,7.5-1.97Z"/><path class="cls-7" d="m31.92,106.02c.66.97,49.74,29.99,50.48,29.99.37,0,.86-7.21.86-8.02,0-2.24-43.41-25.29-44.17-25.51-1.12-.32-7.85,2.55-7.18,3.53Z"/><path class="cls-8" d="m135.66,106.78c-.66.97-50.66,29.9-51.4,29.9-.16,0-.17-8.98.16-9.31,1.59-1.59,42.98-24.66,43.74-24.88,1.12-.32,8.17,3.3,7.5,4.29Z"/><path class="cls-6" d="m44.28,97.36c-2.93-16.6-1.29-17.64,19.29-24.65,20.59-7.01,55.42-25.09,58.47-17.24,3.06,7.85,2.01,41.24,1.31,43.07-.69,1.83-36.65,22.49-39.62,22.54-2.97.05-39.14-21.85-39.46-23.71Z"/><path class="cls-58" d="m124.21,39.47c-.73-.18-38.1-21.78-40.21-21.62-2,.15-28.04,12.33-38.72,21.53-2.85,2.45-1.81,39.1.82,38.43,2.63-.67,4.59-15.48,33.51-23.81,28.48-8.19,40.87-1.1,43.96.16.87.36,2.3-14.3.64-14.7Z"/><path class="cls-40" d="m39.1,100.85v-63.69l44.64-25.78,44.64,25.78v63.69l-3.29-1.9s.2-55.37-.99-57.1c-4.25-6.2-37.27-21.26-42.69-19.58-5.55,1.72-34.91,14.22-38.2,19.47-1.11,1.77-.84,57.21-.84,57.21l-3.29,1.9Z"/><path class="cls-59" d="m92.09,45.85c11.12,5.07,27.88,5.16,29.41,4.19,1.53-.97,2.55-8.1.14-9.31-2.41-1.2-21.5-11.37-26.54-10.27-5.04,1.1-4.99,14.49-3.02,15.39Z"/><path class="cls-52" d="m29.24,54.34c0-.17.47-21.17,1.36-22.67.89-1.5,51.97-29.82,53.45-30.22,1.49-.4,20.62,10.64,20.62,10.64L83.75,0,29.24,31.47v22.87Z"/><path class="cls-54" d="m103.25,22.64s23.94,13.62,24.27,15.15c.33,1.53.87,42.7.87,42.7,0,0,.23-41.58,0-43.34s-25.14-14.51-25.14-14.51Z"/><path class="cls-54" d="m39.1,72.06s-.8-34.43-.39-35.55c.4-1.12,45.04-25.13,45.04-25.13,0,0-43.1,24.64-43.98,26.2s-.66,34.48-.66,34.48Z"/><path class="cls-47" d="m29.24,106.54l54.5,31.47,54.5-31.47v-17.1s-.46,14.93-1.57,16.79c-1.11,1.86-49.93,30.25-52.42,30.44-2.49.19-52.4-29.46-53.7-31.43s-1.31-36.96-1.31-36.96v38.26Z"/><path class="cls-54" d="m39.1,84.55s-.15,14.69.66,15.92,21.99,13.46,21.99,13.46c0,0-22.94-11.86-23.16-12.63-.21-.77.51-16.76.51-16.76Z"/><path class="cls-29" d="m57.54,114.22c-1.61,0-6.12,1.81-5.14,2.88.79.86,27.8,17.24,30.87,18.37,1,.37.9-6.02-.44-8.08-.57-.88-20.3-13.17-25.29-13.16Z"/><path class="cls-45" d="m108.88,114.37c-1.17,5.13-.99,8.15-.33,8.18.66.03,24.49-14.31,25.14-14.94.65-.63-3.82-4.75-5.66-4.47-1.84.28-18.71,9.31-19.15,11.23Z"/><path class="cls-46" d="m41.99,38.62c-.58-1.73-2.34-1.72-2.5.21s-.44,37.61.26,37.67c.7.05,2.18-1.7,2.23-2.52.05-.82.27-34.54,0-35.36Z"/><path class="cls-39" d="m125.5,38.84c-.09.68-.44,34.37,0,34.37s2.41-1.59,2.41-2.41-.49-32.68-.71-32.84c-.22-.16-1.62.33-1.7.88Z"/><path class="cls-44" d="m83.75,14.62c0,.66-19.2,11.62-19.66,11.62s-.29-2.96.33-3.37c.62-.41,19.19-11.58,19.33-11.21s0,2.41,0,2.96Z"/><path class="cls-56" d="m123.39,103.41c-1.23-.05-5.37,2.36-5.05,3.54.31,1.18,2.85,2.45,3.52,1.77.67-.68,2.33-5.28,1.53-5.31Z"/><path class="cls-56" d="m124.96,104.23c-.42.39-1.34,1.77-.47,2.44.87.67,3.45-1.1,3.07-1.63s-2.06-1.32-2.6-.82Z"/><path class="cls-43" d="m118.94,105.76c-1.02,1.38,3.17,2.3,3.71,1.14s1.42-3.62.73-3.5c-.69.12-3.89,1.6-4.45,2.36Z"/><path class="cls-55" d="m118.35,106.61s.34,1.18,1.58,1.91c.98.57,1.82.44,2.06.02,0,0-.76.99-2.03.4-1.99-.93-1.62-2.33-1.62-2.33Z"/><path class="cls-42" d="m125.43,104.27c-.95,1.02-.21,2.49.32,2.41.53-.08,2.12-1.13,1.82-1.63-.3-.5-1.93-1-2.14-.78Z"/><path class="cls-55" d="m124.96,104.23s-.87,1.2-.52,1.88.84.69.84.69c0,0-1.12.65-1.33-.11-.36-1.33,1.01-2.46,1.01-2.46Z"/><path class="cls-56" d="m78.13,14.25c-2.94-.78-5.31,1.13-6.6,2.59s-.57,2.33,1.05,2.04c1.62-.29,6.78-4.3,5.55-4.63Z"/><path class="cls-25" d="m78.13,14.25c-1.99-.68-4.5.64-5.29,1.34-.79.7.76,2.68,1.83,2.26s4.36-3.29,3.46-3.6Z"/><path class="cls-54" d="m72.28,16.08s-3.32,2.17-2.95,3.25c.37,1.08,4.35-.89,4.35-.89,0,0-2.06.67-2.53-.24s1.13-2.12,1.13-2.12Z"/><path class="cls-54" d="m41,101.29c-1.56.39,3.07,3.57,4.16,3.73s.02-2.62-.52-3.1c-.39-.35-2.77-.85-3.65-.63Z"/><path class="cls-65" d="m83.7,104.35l-56.26-32.81c-2.17,4.96-2.69,9.61-2.69,9.61l3.67,6.2,55.28,32.1h0l55.28-32.1,3.33-6.2s0-4.65-2.01-9.61l-56.59,32.81Z"/><polygon class="cls-60" points="28.43 87.36 24.76 81.15 83.7 115.68 142.31 81.15 138.98 87.36 83.7 119.46 28.43 87.36"/><path class="cls-23" d="m24.76,81.15l3.67,6.2.84.52-.02,1.85s3.15,1.61,9.35,5.03c.21.12,3.89,4.01,3.89,4.01,0,0,39.82,24.08,41.26,24.08,1.86,0,41.36-24.61,41.36-24.61,0,0,3.08-2.58,3.38-2.76l9.76-5.11v-2.57l.73-.43,3.33-6.2-58.6,34.53-58.95-34.53Z"/><path class="cls-1" d="m83.7,104.35v11.33l58.6-34.53s-.23-5.68-2.01-9.61l-56.59,32.81Z"/><path class="cls-29" d="m30.34,74.03c-1.08,0-.19,9.53,3.08,11.72,5.19,3.48,36.5,21.94,38.56,21.96,1.42.02,1.34-8.08.92-8.71-.81-1.19-40.94-24.97-42.55-24.97Z"/><path class="cls-29" d="m101.1,94.56c-.68.7-.59,9.61.58,9.34s18.86-9.72,27.21-15.84c8.35-6.13,9.52-14.21,7.65-14.03,0,0-34.03,19.09-35.43,20.53Z"/><path class="cls-54" d="m55.04,98.89s26.94,16.15,28.66,16.15,23.23-13.05,23.23-13.05c0,0-22.57,14.31-23.19,14.31-.48,0-28.71-17.41-28.71-17.41Z"/><polygon class="cls-19" points="83.84 88.05 71.75 94.4 74.06 80.95 64.29 71.42 77.8 69.45 83.84 57.21 89.88 69.45 103.39 71.42 93.61 80.95 95.92 94.4 83.84 88.05"/><polygon class="cls-61" points="101.98 71.87 95.46 70.93 93.68 70.67 89.44 70.05 83.84 58.69 78.23 70.05 65.7 71.87 74.77 80.72 72.63 93.2 83.84 87.31 95.05 93.2 92.91 80.72 101.98 71.87"/><polygon class="cls-2" points="65.63 71.87 84.1 76.7 74.7 80.72 65.63 71.87"/><polygon class="cls-10" points="101.91 71.87 84.1 76.7 92.84 80.72 101.91 71.87"/><polygon class="cls-11" points="83.77 87.31 84.1 76.7 72.56 93.2 83.77 87.31"/><polygon class="cls-15" points="94.99 93.2 84.1 76.7 83.77 87.31 94.99 93.2"/><polygon class="cls-9" points="83.77 58.69 84.1 76.7 89.38 70.05 83.77 58.69"/><polygon class="cls-30" points="101.91 71.87 84.1 76.7 89.38 70.05 101.91 71.87"/><polygon class="cls-31" points="101.91 71.87 84.1 76.7 89.38 70.05 101.91 71.87"/><polygon class="cls-36" points="78.17 70.05 84.1 76.7 65.63 71.87 78.17 70.05"/><path class="cls-49" d="m89.38,74c-.93.79-.14,1.3-.14,1.3l4.8-1.3s-2.51-1.83-4.66,0Z"/><path class="cls-20" d="m72.63,93.2s8.5-4.01,11.21-5.12l11.21,5.12-11.21-5.89-11.21,5.89Z"/><polygon class="cls-27" points="65.63 71.87 84.1 76.7 73.96 85.43 65.63 71.87"/><polygon class="cls-28" points="101.91 71.87 84.1 76.7 93.92 86.59 101.91 71.87"/><polygon class="cls-21" points="72.63 93.2 84.1 76.7 95.05 93.2 83.84 91.43 72.63 93.2"/><path class="cls-57" d="m79.66,68.09c-1.19,3.31,3.35,5.62,3.96,4.6s.22-6.7-.54-7.46c-.77-.77-2.93,1.51-3.42,2.86Z"/><path class="cls-57" d="m75.95,85.03c2.41.33,3.77-2.42,4.27-4.31.82-3.05-8.66,3.72-4.27,4.31Z"/><polygon class="cls-24" points="83.84 50.86 71.75 57.21 74.06 43.75 64.29 34.23 77.8 32.26 83.84 20.02 89.88 32.26 103.39 34.23 93.61 43.75 95.92 57.21 83.84 50.86"/><polygon class="cls-62" points="101.98 34.68 95.46 33.74 93.68 33.48 89.44 32.86 83.84 21.5 78.23 32.86 65.7 34.68 74.77 43.53 72.63 56.01 83.84 50.11 95.05 56.01 92.91 43.53 101.98 34.68"/><polygon class="cls-14" points="65.63 34.68 84.1 39.51 74.7 43.53 65.63 34.68"/><polygon class="cls-16" points="101.91 34.68 84.1 39.51 92.84 43.53 101.91 34.68"/><polygon class="cls-13" points="83.77 50.11 84.1 39.51 72.56 56.01 83.77 50.11"/><polygon class="cls-12" points="94.99 56.01 84.1 39.51 83.77 50.11 94.99 56.01"/><polygon class="cls-32" points="83.77 21.5 84.1 39.51 89.38 32.86 83.77 21.5"/><polygon class="cls-33" points="101.91 34.68 84.1 39.51 89.38 32.86 101.91 34.68"/><polygon class="cls-34" points="101.91 34.68 84.1 39.51 89.38 32.86 101.91 34.68"/><polygon class="cls-35" points="78.17 32.86 84.1 39.51 65.63 34.68 78.17 32.86"/><path class="cls-49" d="m89.38,36.81c-.93.79-.14,1.3-.14,1.3l4.8-1.3s-2.51-1.83-4.66,0Z"/><path class="cls-26" d="m72.63,56.01s8.5-4.01,11.21-5.12l11.21,5.12-11.21-5.89-11.21,5.89Z"/><polygon class="cls-22" points="65.63 34.68 84.1 39.51 73.96 48.23 65.63 34.68"/><polygon class="cls-18" points="101.91 34.68 84.1 39.51 93.92 49.4 101.91 34.68"/><polygon class="cls-17" points="72.63 56.01 84.1 39.51 95.05 56.01 83.84 54.24 72.63 56.01"/><path class="cls-57" d="m79.66,30.9c-1.19,3.31,3.35,5.62,3.96,4.6s.22-6.7-.54-7.46c-.77-.77-2.93,1.51-3.42,2.86Z"/><path class="cls-57" d="m75.95,47.84c2.41.33,3.77-2.42,4.27-4.31.82-3.05-8.66,3.72-4.27,4.31Z"/></g></g></svg>