<svg clip-rule="evenodd" fill-rule="evenodd" stroke-linejoin="round" stroke-miterlimit="2" viewBox="0 0 32 31" xmlns="http://www.w3.org/2000/svg" xmlns:xlink="http://www.w3.org/1999/xlink"><linearGradient id="_Linear1" gradientTransform="matrix(0 29.833 -29.833 0 19.281 1)" gradientUnits="userSpaceOnUse" x1="0" x2="1" y1="0" y2="0"><stop offset="0" stop-color="#e25973"/><stop offset="1" stop-color="#8f52c3"/></linearGradient><path d="m13.513 25.003h-9.513c-.796 0-1.559-.316-2.121-.878-.563-.563-.879-1.326-.879-2.122 0-4.184 0-13.819 0-18.003 0-.796.316-1.559.879-2.121.562-.563 1.325-.879 2.121-.879h22c.796 0 1.559.316 2.121.879.563.562.879 1.325.879 2.121v12.345c1.25 1.545 2 3.513 2 5.655 0 4.967-4.033 9-9 9-3.915 0-7.249-2.504-8.487-5.997zm8.487-10.004c3.863 0 7 3.137 7 7.001 0 3.863-3.137 7-7 7-3.864 0-7.001-3.137-7.001-7 0-3.864 3.137-7.001 7.001-7.001zm-1 2.172c-1.165.412-2 1.524-2 2.829 0 1.656 1.344 3 3 3 .552 0 1 .448 1 1s-.448 1-1 1-1-.448-1-1-.448-1-1-1-1 .448-1 1c0 1.305.835 2.417 2 2.829v.171c-.001.552.447 1 .999 1s1-.448 1.001-1v-.171c1.165-.412 2-1.524 2-2.829 0-1.656-1.344-3-3-3-.552 0-1-.448-1-1s.448-1 1-1c.55 0 .997.445 1 .994v.012c.003.549.45.994 1 .994.552 0 1-.448 1-1 0-1.305-.835-2.417-2-2.829v-.171c0-.552-.448-1-1-1s-1 .448-1 1zm6-2.654v-5.517h-24v13.003c0 .266.105.52.293.707.187.188.442.293.707.293h9.055c-.037-.329-.056-.664-.056-1.003 0-4.968 4.033-9.001 9.001-9.001 1.849 0 3.57.56 5 1.518zm-16 5.483v-7c0-.552-.448-1-1-1s-1 .448-1 1v7h-2v-5c0-.552-.448-1-1-1s-1 .448-1 1v5h-.024c-.552 0-1 .448-1 1s.448 1 1 1h6.024c.552 0 1-.448 1-1s-.448-1-1-1zm16-13h-24v-3c0-.265.105-.52.293-.707.187-.188.442-.293.707-.293h22c.265 0 .52.105.707.293.188.187.293.442.293.707zm-22-3c.552 0 1 .448 1 1s-.448 1-1 1-1-.448-1-1 .448-1 1-1zm3 0c.552 0 1 .448 1 1s-.448 1-1 1-1-.448-1-1 .448-1 1-1zm3 0c.552 0 1 .448 1 1s-.448 1-1 1-1-.448-1-1 .448-1 1-1z" fill="url(#_Linear1)"/></svg>