<svg xmlns="http://www.w3.org/2000/svg" version="1.1" xmlns:xlink="http://www.w3.org/1999/xlink" xmlns:svgjs="http://svgjs.com/svgjs" width="512" height="512" x="0" y="0" viewBox="0 0 24 24" style="enable-background:new 0 0 512 512" xml:space="preserve" class=""><g transform="matrix(0.9000000000000001,0,0,0.9000000000000001,1.1999999999999922,1.2000227928161582)"><linearGradient id="a" x1="12" x2="12" y1="3" y2="21" gradientUnits="userSpaceOnUse"><stop stop-opacity="1" stop-color="#8e88a4" offset="0"></stop><stop stop-opacity="1" stop-color="#8e88a4" offset="1"></stop></linearGradient><path fill="url(#a)" fill-rule="evenodd" d="M12 5a4 4 0 1 0 0 8 4 4 0 0 0 0-8zm3.796 8.647a6 6 0 1 0-7.592 0c-.91.327-1.741.77-2.46 1.31C4.105 16.185 3 17.957 3 20a1 1 0 1 0 2 0c0-1.272.685-2.499 1.943-3.443C8.202 15.613 9.986 15 12 15c2.014 0 3.798.613 5.057 1.557C18.315 17.501 19 18.73 19 20a1 1 0 1 0 2 0c0-2.042-1.106-3.815-2.743-5.043a9.41 9.41 0 0 0-2.461-1.31z" clip-rule="evenodd" data-original="url(#a)" class=""></path></g></svg>