<svg xmlns="http://www.w3.org/2000/svg" version="1.1" xmlns:xlink="http://www.w3.org/1999/xlink" xmlns:svgjs="http://svgjs.com/svgjs" width="512" height="512" x="0" y="0" viewBox="0 0 32 32" style="enable-background:new 0 0 512 512" xml:space="preserve" fill-rule="evenodd" class=""><g><linearGradient id="a" x1="0" x2="1" y1="0" y2="0" gradientTransform="rotate(41.134 -239.635 173.75) scale(25.613)" gradientUnits="userSpaceOnUse"><stop stop-opacity="1" stop-color="#db587a" offset="0"></stop><stop stop-opacity="1" stop-color="#9552bd" offset="1"></stop></linearGradient><path fill="url(#a)" d="M55.056 202.998a8.875 8.875 0 0 1-.055-.998c0-4.967 4.032-9 8.999-9s8.999 4.033 8.999 9c0 .398-.026.791-.076 1.175a4.982 4.982 0 0 1 3.683 4.097l.001.009c.088.635.161 1.271.219 1.907a2.984 2.984 0 0 1 1.803 1.797c.499 1.334.496 2.675.005 4.029a3 3 0 0 1-1.799 1.806 43.448 43.448 0 0 1-.209 1.893l-.002.014A5 5 0 0 1 71.677 223c-4.58 0-12.781 0-17.355-.02a4.98 4.98 0 0 1-4.927-4.254l-.001-.009a42.487 42.487 0 0 1-.021-11.432l.002-.015a5 5 0 0 1 4.947-4.272zm19.743 6.009a39.602 39.602 0 0 0-.172-1.447 2.98 2.98 0 0 0-2.948-2.542h-.004c-4.577-.02-12.775-.02-17.353-.02a3 3 0 0 0-2.967 2.558 40.543 40.543 0 0 0 .019 10.882 2.98 2.98 0 0 0 2.948 2.542h.004c4.577.02 12.773.02 17.351.02a3 3 0 0 0 2.968-2.558c.063-.481.118-.962.165-1.442-1.77 0-4.203-.002-5.655-.01a2.99 2.99 0 0 1-2.859-2.114 6.148 6.148 0 0 1-.01-3.75A3 3 0 0 1 69.157 209c1.453 0 3.878 0 5.642.007zm-6.591 5.281a4.19 4.19 0 0 1-.01-2.575l.002-.004a1 1 0 0 1 .957-.709c1.758 0 4.942 0 6.655.013h.008a.986.986 0 0 1 .935.669c.329.878.322 1.761-.002 2.652l-.001.004c-.143.397-.52.662-.942.662-1.717 0-4.894 0-6.649-.01h-.006a.989.989 0 0 1-.947-.702zM71.003 212c.555 0 1.005.449 1.005 1.002a1.004 1.004 0 0 1-2.009 0c0-.553.45-1.002 1.004-1.002zm-.077-8.985A7.003 7.003 0 0 0 64 195a7.003 7.003 0 0 0-6.928 7.999 8626.86 8626.86 0 0 1 6.926.001 3 3 0 0 1-1-5.829v-.17a1 1 0 0 1 2 0v.171c1.165.412 2 1.524 2 2.829a1.001 1.001 0 0 1-2 0 1 1 0 1 0-1 1c1.308 0 2.421.837 2.831 2.004 1.489.003 2.89.006 4.097.01z" transform="translate(-48 -192)" data-original="url(#a)" class=""></path></g></svg>