<svg xmlns="http://www.w3.org/2000/svg" version="1.1" xmlns:xlink="http://www.w3.org/1999/xlink" xmlns:svgjs="http://svgjs.com/svgjs" width="512" height="512" x="0" y="0" viewBox="0 0 32 32" style="enable-background:new 0 0 512 512" xml:space="preserve" fill-rule="evenodd"><g><linearGradient id="a" x1="0" x2="1" y1="0" y2="0" gradientTransform="rotate(37.569 135.631 440.42) scale(25.031)" gradientUnits="userSpaceOnUse"><stop stop-opacity="1" stop-color="#227f9e" offset="0"></stop><stop stop-opacity="1" stop-color="#9552bd" offset="1"></stop></linearGradient><path fill="url(#a)" d="M297.001 11.05 297 4c0-.365.138-.742.477-1.088.258-.262.686-.534 1.283-.764C300.493 1.48 303.981 1 308.002 1s7.51.48 9.242 1.148c.597.23 1.026.502 1.283.764.34.346.474.723.474 1.088v21c0 .365-.134.742-.474 1.088-.257.262-.686.534-1.283.764-1.732.668-5.221 1.148-9.242 1.148-.965 0-1.899-.028-2.785-.079A9.974 9.974 0 0 1 298.001 31c-5.519 0-10-4.481-10-10 0-5.181 3.95-9.448 9-9.95zm1 1.95c4.416 0 8 3.585 8 8s-3.584 8-8 8c-4.415 0-8-3.585-8-8s3.585-8 8-8zM297 16.171A3 3 0 0 0 298 22a1 1 0 1 1-1 1 1 1 0 0 0-2 0 3 3 0 0 0 2 2.829V26a1 1 0 0 0 2 0v-.171A3 3 0 0 0 298 20a1 1 0 1 1 1-1 1 1 0 0 0 2 0 3.003 3.003 0 0 0-2-2.829V16a1 1 0 0 0-2 0zm9.672 9.811c.435.012.879.018 1.33.018 3.203 0 6.045-.304 7.806-.784a6.99 6.99 0 0 0 1.193-.479V19.94c-1.802.622-5.158 1.06-8.999 1.06h-.001a9.94 9.94 0 0 1-1.329 4.982zM307.801 19h.201c3.203 0 6.045-.304 7.806-.784a6.99 6.99 0 0 0 1.193-.479V12.94c-1.802.622-5.158 1.06-8.999 1.06a47.83 47.83 0 0 1-2.95-.089A9.987 9.987 0 0 1 307.801 19zm9.2-13.059H317C315.201 6.559 311.83 7 308.002 7c-3.827 0-7.2-.432-8.999-1.049l-.001 2.073.001 2.713a6.99 6.99 0 0 0 1.193.479c1.761.48 4.603.784 7.806.784s6.045-.304 7.806-.784a6.99 6.99 0 0 0 1.193-.479zm-.585-1.946a5.376 5.376 0 0 0-.608-.211c-1.761-.48-4.603-.784-7.806-.784s-6.045.304-7.806.784a5.446 5.446 0 0 0-.608.211c.255.103.552.21.842.282 1.776.445 4.509.723 7.572.723s5.796-.278 7.572-.723c.29-.072.587-.179.842-.282z" transform="translate(-288)" data-original="url(#a)"></path></g></svg>