<?xml version="1.0" encoding="utf-8"?>
<svg viewBox="0 0 512 512" width="512" height="512" style="enable-background:new 0 0 512 512" xmlns="http://www.w3.org/2000/svg">
  <g>
    <path d="M213.332 512c-44.094 0-80-35.883-80-80 0-8.832 7.168-16 16-16s16 7.168 16 16c0 26.477 21.547 48 48 48s48-21.523 48-48c0-8.832 7.168-16 16-16s16 7.168 16 16c0 44.117-35.902 80-80 80zm0 0" fill="#8e88a4" data-original="#000000" opacity="1"/>
    <path d="M389.332 448h-352C16.746 448 0 431.254 0 410.668a37.314 37.314 0 0 1 13.055-28.375c.535-.469 1.11-.895 1.707-1.281C46.078 353.684 64 314.367 64 272.852v-59.52c0-69.48 47.082-129.129 114.496-145.066 8.617-1.985 17.238 3.285 19.266 11.906 2.023 8.598-3.309 17.215-11.883 19.242C132.949 111.914 96 158.762 96 213.332v59.52c0 51.543-22.594 100.312-61.93 133.78-.32.259-.597.493-.941.727A5.28 5.28 0 0 0 32 410.668c0 2.898 2.434 5.332 5.332 5.332h352c2.902 0 5.336-2.434 5.336-5.332 0-1.496-.555-2.582-1.152-3.309-.32-.234-.621-.468-.918-.726-19.114-16.297-34.2-35.965-44.82-58.473-3.798-7.98-.387-17.515 7.613-21.312a15.962 15.962 0 0 1 21.293 7.636c8.445 17.836 20.285 33.496 35.261 46.594.555.383 1.133.79 1.621 1.215a37.201 37.201 0 0 1 13.102 28.375c0 20.586-16.746 37.332-37.336 37.332zm0 0" fill="#8e88a4" data-original="#000000" opacity="1"/>
  </g>
</svg>