<svg xmlns="http://www.w3.org/2000/svg" version="1.1" xmlns:xlink="http://www.w3.org/1999/xlink" xmlns:svgjs="http://svgjs.com/svgjs" width="512" height="512" x="0" y="0" viewBox="0 0 64 64" style="enable-background:new 0 0 512 512" xml:space="preserve" class=""><g><linearGradient id="a" x1="4" x2="60" y1="32" y2="32" gradientUnits="userSpaceOnUse"><stop stop-opacity="1" stop-color="#954b9b" offset="0"></stop><stop stop-opacity="1" stop-color="#7272ba" offset="1"></stop></linearGradient><path fill="url(#a)" d="M50.004 37.007h5.863a24.364 24.364 0 0 1-18.861 18.86v-5.843a18.89 18.89 0 0 0 12.998-13.017zm0-10.046h5.863A24.377 24.377 0 0 0 37.006 8.1v5.863a18.844 18.844 0 0 1 12.998 12.998zM26.96 13.963V8.1A24.377 24.377 0 0 0 8.1 26.96h5.863A18.844 18.844 0 0 1 26.96 13.964zM13.963 37.007H8.109a24.352 24.352 0 0 0 18.851 18.86v-5.863a18.808 18.808 0 0 1-12.997-12.997zm18.04-20.122a3.004 3.004 0 0 0 3.002-3.002V6.969a3.022 3.022 0 0 0-6.044 0v6.914a3.005 3.005 0 0 0 3.042 3.002zM16.884 31.964a3.01 3.01 0 0 0-3.002-3.002H6.97a3.022 3.022 0 0 0 0 6.043h6.913a3.012 3.012 0 0 0 3.002-3.041zm12.077 18.12v6.914a3.022 3.022 0 0 0 6.044 0v-6.914a3.022 3.022 0 0 0-6.044 0zm28.037-21.122h-6.914a3.022 3.022 0 0 0 0 6.043h6.914a3.022 3.022 0 0 0 0-6.043zm-25.015-9.986a13.02 13.02 0 0 1 13.008 13.007c-.71 17.252-25.304 17.257-26.016 0a13.02 13.02 0 0 1 13.008-13.007zm0 3.162a1.004 1.004 0 0 0-1 1v2.082a3.951 3.951 0 0 0 1 7.764 1.946 1.946 0 1 1-1.951 1.951 1 1 0 0 0-2.001 0 3.94 3.94 0 0 0 2.952 3.813v2.08a1 1 0 0 0 2 0v-2.08a3.951 3.951 0 0 0-1-7.765 1.946 1.946 0 1 1 1.951-1.951 1 1 0 1 0 2.001 0 3.94 3.94 0 0 0-2.951-3.812v-2.082a1.004 1.004 0 0 0-1-1z" data-original="url(#a)" class=""></path></g></svg>