<svg xmlns="http://www.w3.org/2000/svg" version="1.1" xmlns:xlink="http://www.w3.org/1999/xlink" xmlns:svgjs="http://svgjs.com/svgjs" width="512" height="512" x="0" y="0" viewBox="0 0 511 511.999" style="enable-background:new 0 0 512 512" xml:space="preserve"><g><linearGradient id="a" x1=".5" x2="512.213" y1="256" y2="256" gradientUnits="userSpaceOnUse"><stop stop-opacity="1" stop-color="#de5877" offset="0"></stop><stop stop-opacity="1" stop-color="#de5877" offset="0.021"></stop><stop stop-opacity="1" stop-color="#ce5886" offset="0.30115830115830117"></stop><stop stop-opacity="1" stop-color="#b8559b" offset="0.554"></stop><stop stop-opacity="1" stop-color="#9653bd" offset="0.796"></stop><stop stop-opacity="1" stop-color="#aa72cf" offset="1"></stop></linearGradient><path fill="url(#a)" d="M464.36 0c-.555 0-1.106.023-1.66.07-3.27.27-76.38 6.98-103.852 60.293l-99.211-10.082c-24.043-2.441-47.606 5.961-64.64 23.024L23.827 243.906c-31.113 31.168-31.101 81.864.024 113.016l131.285 131.394C170.907 504.098 191.594 512 212.21 512c20.332-.004 40.598-7.688 56.008-23.082 7.808-7.805 7.816-20.461.011-28.27-7.8-7.812-20.46-7.816-28.27-.015-15.44 15.43-40.808 15.168-56.538-.578L52.132 328.66c-15.562-15.574-15.566-40.922-.046-56.469l171.172-170.605c8.535-8.547 20.32-12.75 32.336-11.531l152.11 15.46 1.98 19.438c-27.707 10.328-54.075 11.977-54.676 12.012-11.012.594-19.465 9.996-18.887 21.012.563 10.668 9.387 18.941 19.945 18.941.356 0 .711-.008 1.067-.027 1.281-.067 26.863-1.532 56.71-11.082l9.305 91.378c1.223 11.993-2.957 23.758-11.472 32.293l-97.524 96.094c-7.863 7.746-7.957 20.406-.21 28.27 7.75 7.863 20.406 7.957 28.269.207l97.582-96.149.098-.097c17.086-17.07 25.484-40.64 23.035-64.668l-10.613-104.188c13.445-7.87 24.78-17.144 33.843-27.715 17.305-20.199 26.074-44.62 26.055-72.582v-.797C512.21 21.47 490.746 0 464.359 0zm7.87 48.664c.016 22.344-8.074 40.473-24.55 54.809l-1.856-18.223c-.96-9.438-8.426-16.902-17.867-17.863L404.77 65.03c20.46-19.531 54.27-24.308 60.308-25.02 4.004.368 7.152 3.747 7.152 7.844zM310.22 292.883c-7.805 7.808-20.461 7.808-28.27 0-7.808-7.809-7.808-20.465 0-28.27 2.133-2.133 2.52-4.605 2.469-6.304-.078-2.73-1.27-5.383-3.352-7.461l-12.246-12.25c-3.175-3.176-7.261-4.95-11.504-4.996-2.976-.028-7.222.742-11.086 4.609l-3.156 3.156c-6.515 6.512-6.754 17.274-.527 23.504l12.953 12.95c10.613 10.613 16.54 24.616 16.695 39.437.153 15.027-5.64 29.187-16.324 39.867l-1.473 1.473c-10.804 10.808-24.722 16.195-38.73 16.195-11.898.004-23.856-3.898-34.04-11.652l-8.37 8.078a19.926 19.926 0 0 1-13.88 5.601 19.926 19.926 0 0 1-14.386-6.11c-7.668-7.944-7.437-20.6.508-28.265l7.492-7.23c-8.43-9.133-13.191-20.758-13.453-32.973-.281-13.312 4.793-25.879 14.293-35.379 7.809-7.804 20.465-7.804 28.273 0 7.805 7.809 7.805 20.465 0 28.274-1.773 1.77-2.644 3.875-2.593 6.254.054 2.554 1.195 5.074 3.218 7.093l21.055 21.055c6.594 6.594 16.2 6.93 22.344.79l1.473-1.477c3.02-3.016 4.656-6.985 4.613-11.18-.047-4.297-1.817-8.41-4.985-11.578l-12.957-12.953c-21.921-21.926-21.683-57.832.528-80.047l3.16-3.156c10.535-10.536 24.426-16.317 39.172-16.317h.617a55.835 55.835 0 0 1 28.61 8.242l8.585-8.867c7.684-7.934 20.336-8.137 28.27-.457 7.93 7.68 8.133 20.336.453 28.27l-8.477 8.754c5.684 8.105 8.899 17.632 9.192 27.574.394 13.523-4.633 26.218-14.164 35.746zm0 0" opacity="1" data-original="url(#a)"></path></g></svg>