<svg xmlns="http://www.w3.org/2000/svg" version="1.1" xmlns:xlink="http://www.w3.org/1999/xlink" xmlns:svgjs="http://svgjs.com/svgjs" width="512" height="512" x="0" y="0" viewBox="0 0 48 48" style="enable-background:new 0 0 512 512" xml:space="preserve" class=""><g><path d="M24 47.5C11 47.5.5 37 .5 24S11 .5 24 .5 47.5 11 47.5 24 37 47.5 24 47.5zm0-43.1C13.2 4.4 4.4 13.2 4.4 24S13.2 43.6 24 43.6 43.6 34.8 43.6 24 34.8 4.4 24 4.4z" fill="#8e88a4" data-original="#000000" class=""></path><path d="M24 47.5c-7 0-10.7-12.1-10.7-23.5S17 .5 24 .5 34.7 12.6 34.7 24 31 47.5 24 47.5zm0-43.1c-2.8 0-6.8 7.6-6.8 19.6s4 19.6 6.8 19.6S30.8 36 30.8 24 26.8 4.4 24 4.4z" fill="#8e88a4" data-original="#000000" class=""></path><path d="M45.5 26h-43c-1.1 0-2-.9-2-2s.9-2 2-2h43.1c1.1 0 2 .9 2 2-.1 1.1-1 2-2.1 2z" fill="#8e88a4" data-original="#000000" class=""></path></g></svg>