<svg xmlns="http://www.w3.org/2000/svg" version="1.1" xmlns:xlink="http://www.w3.org/1999/xlink" xmlns:svgjs="http://svgjs.com/svgjs" width="512" height="512" x="0" y="0" viewBox="0 0 512 512" style="enable-background:new 0 0 512 512" xml:space="preserve" class=""><g><linearGradient id="a" x1="43.93" x2="468.07" y1="43.93" y2="468.07" gradientUnits="userSpaceOnUse"><stop stop-opacity="1" stop-color="#141a2a" offset="0"></stop><stop stop-opacity="1" stop-color="#141a2a" offset="1"></stop></linearGradient><linearGradient id="b" x1="180.14" x2="439.8" y1="236.66" y2="496.33" gradientUnits="userSpaceOnUse"><stop offset="0" stop-opacity=".35"></stop><stop offset="1" stop-opacity="0"></stop></linearGradient><rect width="512" height="512" fill="url(#a)" rx="150" data-original="url(#a)"></rect><path fill="url(#b)" d="M512 289.59V362c0 82.84-67.16 150-150 150H176.54l-81.68-81.68 189.09-113.29-92.09-92.09L319.61 97.19z" data-original="url(#b)"></path><path fill="#8e88a4" d="M391.48 441H120.52c-24.49 0-41.88-23.84-34.41-47.16l26.72-83.39c10-31.21 43.9-47.87 74.72-36.72 18.15 6.57 40.97 11.54 68.45 11.54s50.3-4.97 68.45-11.54c30.82-11.15 64.72 5.51 74.72 36.72l26.72 83.39c7.47 23.32-9.92 47.16-34.41 47.16zM256 71c-49.89 0-90.33 40.44-90.33 90.33s40.44 90.33 90.33 90.33 90.33-40.44 90.33-90.33S305.89 71 256 71z" data-name="User" data-original="#ffffff" class=""></path></g></svg>