<?xml version="1.0" encoding="utf-8"?>
<svg viewBox="0 0 571 512" width="571" height="512" xmlns="http://www.w3.org/2000/svg">
  <defs>
    <linearGradient id="linear-gradient" x1="0" y1="256" x2="512" y2="256" gradientTransform="translate(0 512) scale(1 -1)" gradientUnits="userSpaceOnUse">
      <stop offset="0" stop-color="#00f2fe"/>
      <stop offset="0" stop-color="#aa72cf"/>
      <stop offset="0.3" stop-color="#aa72cf"/>
      <stop offset="0.54" stop-color="#8995d9"/>
      <stop offset="0.8" stop-color="#62a5d9"/>
      <stop offset="1" stop-color="#4ab1d3"/>
    </linearGradient>
      <linearGradient xmlns="http://www.w3.org/2000/svg" id="grad2" x1="3%" y1="100%" x2="100%" y2="0%">
      <stop offset="0%" style="stop-color:#aa72cf;stop-opacity:1"/>
      <stop offset="100%" style="stop-color:#5ca9d7;stop-opacity:1"/>
    </linearGradient>
    <style>.cls-1{fill:none;stroke:url(#linear-gradient);stroke-linecap:round;stroke-linejoin:round;stroke-width:40px;}.cls-2{stroke-width:0px;}</style>
  </defs>
  <path class="cls-1" d="m454.46,383.75c23.75-36.82,37.54-80.68,37.54-127.75,0-130.34-105.66-236-236-236S20,125.66,20,256s105.66,236,236,236c47.08,0,90.93-13.78,127.75-37.54" transform="matrix(0.9999999999999999, 0, 0, 0.9999999999999999, -5.684341886080802e-14, -2.842170943040401e-14)"/>
  <path class="cls-2" fill="url(#grad2)" d="M 179.48 343.496 C 177.414 343.496 175.739 342.837 174.413 341.521 C 173.087 340.203 172.467 338.666 172.467 336.913 L 172.467 165.825 C 172.467 163.889 173.13 162.315 174.413 161.072 C 175.698 159.828 177.414 159.245 179.48 159.245 L 209.196 159.245 C 212.388 159.245 214.651 159.903 216.052 161.22 C 217.452 162.534 218.35 163.562 218.698 164.254 L 287.135 265.334 L 287.135 165.825 C 287.135 163.889 287.797 162.315 289.081 161.072 C 290.368 159.828 292.082 159.245 294.145 159.245 L 327.799 159.245 C 329.862 159.245 331.538 159.867 332.862 161.072 C 334.185 162.315 334.81 163.889 334.81 165.825 L 334.81 336.66 C 334.81 338.599 334.147 340.203 332.862 341.521 C 331.577 342.837 329.862 343.496 327.799 343.496 L 297.809 343.496 C 294.808 343.496 292.63 342.801 291.226 341.374 C 289.821 339.985 288.926 338.997 288.575 338.488 L 220.142 241.096 L 220.142 336.913 C 220.142 338.666 219.48 340.203 218.194 341.521 C 216.87 342.837 215.191 343.496 213.131 343.496 L 179.48 343.496 Z" style="" transform="matrix(0.9999999999999999, 0, 0, 0.9999999999999999, -5.684341886080802e-14, -2.842170943040401e-14)"/>
</svg>