<svg xmlns="http://www.w3.org/2000/svg" viewBox="0 0 9 9"><circle cx="4.5" cy="4.5" r="4.5" fill="#5f78e6"/><path d="M4.5 1.166V3.63l2.083.93z" fill="#fff" fill-opacity=".602"/><path d="M4.5 1.166L2.415 4.562l2.083-.931z" fill="#fff"/><path d="M4.5 6.16v1.674L6.583 4.95z" fill="#fff" fill-opacity=".602"/><path d="M4.5 7.834V6.16L2.415 4.95z" fill="#fff"/><path d="M4.5 5.772l2.083-1.21-2.084-.93z" fill="#fff" fill-opacity=".2"/><path d="M2.416 4.562l2.083 1.21v-2.14z" fill="#fff" fill-opacity=".602"/><g opacity=".25" fill="#fff"><path d="M4.499 1.166V3.63l2.083.93z" fill-opacity=".602"/><path d="M4.499 1.166L2.415 4.562 4.5 3.63z"/><path d="M4.499 6.16v1.674L6.584 4.95z" fill-opacity=".602"/><path d="M4.499 7.834V6.16L2.415 4.95z"/><path d="M4.499 5.772l2.083-1.21-2.083-.93z" fill-opacity=".2"/><path d="M2.415 4.562L4.5 5.772v-2.14z" fill-opacity=".602"/></g></svg>