<svg xmlns="http://www.w3.org/2000/svg" viewBox="0 0 9 9"><circle cx="4.5" cy="4.5" r="4.5" fill="#c32e26"/><path d="M7.053 3.443c-.236-.164-.487-.339-.733-.513a.383.383 0 00-.096-.055l-.003-.001a529.46 529.46 0 01-1.973-.479l-1.76-.427a.457.457 0 00-.046-.014.456.456 0 00-.18-.022.15.15 0 00-.05.018l-.016.014a.228.228 0 00-.047.075l-.004.01v.05l.003.01c.371 1.04.753 2.092 1.119 3.114l.862 2.397a.142.142 0 00.131.094l.014.002h.004a.154.154 0 00.13-.075l1.078-1.57.786-1.146.322-.47c.177-.258.36-.525.54-.784l.01-.014v-.016a.205.205 0 00-.075-.198zm-1.245.573c-.252.132-.51.268-.77.402l.453-.487.58-.62.003-.004a.663.663 0 01.06-.064l.046-.048c.1.07.202.14.3.21l.216.151c-.3.152-.598.307-.888.46zm-1.244.574L3.398 3.183l-.523-.628c-.041-.047-.079-.095-.117-.142q-.037-.046-.077-.092c.158.04.317.078.474.115.137.033.279.066.42.101l2.366.576c-.28.28-.543.563-.798.837q-.38.428-.58.64zm-.06 1.575c.012-.115.024-.234.037-.346.019-.18.039-.369.055-.552l.005-.032a7.51 7.51 0 00.035-.36.625.625 0 00.061-.03c.313-.164.629-.327.943-.492s.636-.331.956-.498c-.244.398-.535.823-.818 1.238-.242.354-.492.72-.742 1.08-.098.144-.2.291-.297.431-.11.158-.22.32-.329.482.013-.163.03-.328.047-.488.017-.141.033-.288.046-.433zM2.51 2.495l1.096 1.32.559.672c.037.042.075.087.108.13.047.057.094.115.143.17-.016.14-.03.283-.044.418l-.03.287c-.005.061-.013.123-.02.183l-.03.27c-.025.285-.056.561-.084.83l-.035.34a10.086 10.086 0 01-.082-.226l-.145-.404-1.382-3.844a2.178 2.178 0 01-.054-.147z" fill="#fff" fill-rule="evenodd"/></svg>