<?xml version="1.0" encoding="utf-8"?>
<svg viewBox="77.746 182.62 520.667 117.769" style="enable-background:new 0 0 674 482;" xmlns="http://www.w3.org/2000/svg">
  <defs>
    <style type="text/css">
	.st0{fill:#aa72ce;}
	.st1{fill:#FFFFFF;}
</style>
  </defs>
  <g id="Trustpilot_ratings_5star-RGB" transform="matrix(1, 0, 0, 1, 0, -2.842170943040401e-14)">
    <g>
      <rect id="Rectangle-path" x="81" y="193" class="st0" width="96" height="96"/>
      <rect id="Rectangle-path_00000124847167099788126000000001829772348057547696_" x="185" y="193" class="st0" width="96" height="96"/>
      <rect id="Rectangle-path_00000120523984246915895970000003077493308853590408_" x="289" y="193" class="st0" width="96" height="96"/>
      <rect id="Rectangle-path_00000087396745831687518170000000672646836031927985_" x="393" y="193" class="st0" width="96" height="96"/>
      <rect id="Rectangle-path_00000152948587813754092040000016535322037435608765_" x="497" y="193" class="st0" width="96" height="96"/>
      <path id="Shape" class="st1" d="M129,257.7l14.6-3.7l6.1,18.8L129,257.7z M162.6,233.4h-25.7l-7.9-24.2l-7.9,24.2H95.4l20.8,15 l-7.9,24.2l20.8-15l12.8-9.2L162.6,233.4L162.6,233.4L162.6,233.4L162.6,233.4z"/>
      <path id="Shape_00000126294885357844625770000000308820517004503223_" class="st1" d="M233,257.7l14.6-3.7l6.1,18.8L233,257.7z M266.6,233.4h-25.7l-7.9-24.2l-7.9,24.2h-25.7l20.8,15l-7.9,24.2l20.8-15l12.8-9.2L266.6,233.4L266.6,233.4L266.6,233.4 L266.6,233.4z"/>
      <path id="Shape_00000069383563880328929760000001468515067580151694_" class="st1" d="M337,257.7l14.6-3.7l6.1,18.8L337,257.7z M370.6,233.4h-25.7l-7.9-24.2l-7.9,24.2h-25.7l20.8,15l-7.9,24.2l20.8-15l12.8-9.2L370.6,233.4L370.6,233.4L370.6,233.4 L370.6,233.4z"/>
      <path id="Shape_00000067938569899301329350000004185694699142465445_" class="st1" d="M441,257.7l14.6-3.7l6.1,18.8L441,257.7z M474.6,233.4h-25.7l-7.9-24.2l-7.9,24.2h-25.7l20.8,15l-7.9,24.2l20.8-15l12.8-9.2L474.6,233.4L474.6,233.4L474.6,233.4 L474.6,233.4z"/>
      <path id="Shape_00000033363020737948879270000001051237738295005592_" class="st1" d="M545,257.7l14.6-3.7l6.1,18.8L545,257.7z M578.6,233.4h-25.7l-7.9-24.2l-7.9,24.2h-25.7l20.8,15l-7.9,24.2l20.8-15l12.8-9.2L578.6,233.4L578.6,233.4L578.6,233.4 L578.6,233.4z"/>
    </g>
  </g>
</svg>