<svg xmlns="http://www.w3.org/2000/svg" version="1.1" xmlns:xlink="http://www.w3.org/1999/xlink" width="512" height="512" x="0" y="0" viewBox="0 0 24 24" style="enable-background:new 0 0 512 512" xml:space="preserve"><g><linearGradient id="a" x1="12" x2="12" y1="2" y2="22" gradientUnits="userSpaceOnUse"><stop stop-opacity="1" stop-color="#a16fd0" offset="0"></stop><stop stop-opacity="1" stop-color="#8584d7" offset="1"></stop></linearGradient><path fill="url(#a)" fill-rule="evenodd" d="M16.689 4.298C15.818 4.013 14.632 4 12 4c-1.411 0-2.42 0-3.215.055-.786.053-1.29.156-1.698.326A5 5 0 0 0 4.38 7.087c-.17.409-.273.912-.326 1.698C4 9.58 4 10.588 4 12s0 2.42.055 3.215c.053.786.156 1.29.326 1.698a5 5 0 0 0 2.706 2.706c.409.17.912.273 1.698.326C9.58 20 10.59 20 12 20s2.42 0 3.215-.055c.786-.053 1.29-.156 1.698-.326a5 5 0 0 0 2.706-2.706c.17-.409.273-.912.326-1.698C20 14.42 20 13.412 20 12c0-.766 0-1.416-.01-1.984a1 1 0 0 1 2-.032c.01.585.01 1.251.01 2.01v.043c0 1.367 0 2.443-.06 3.314-.06.888-.186 1.634-.473 2.328a7 7 0 0 1-3.788 3.788c-.694.287-1.44.413-2.328.474-.87.059-1.948.059-3.314.059h-.074c-1.367 0-2.443 0-3.314-.06-.888-.06-1.634-.186-2.328-.473a7 7 0 0 1-3.788-3.788c-.287-.694-.413-1.44-.474-2.328C2 14.481 2 13.404 2 12.037v-.074c0-1.366 0-2.443.06-3.314.06-.888.186-1.634.473-2.328A7 7 0 0 1 6.32 2.533c.694-.287 1.44-.413 2.328-.474C9.519 2 10.596 2 11.963 2h.252c2.35 0 3.881 0 5.096.397a1 1 0 0 1-.622 1.9zm5.175.698a1 1 0 0 1-.36 1.368l-.222.129a20.935 20.935 0 0 0-8.296 8.964 1 1 0 0 1-1.607.272l-4.013-4.01a1 1 0 1 1 1.413-1.414l3.05 3.047a22.935 22.935 0 0 1 8.445-8.587l.222-.129a1 1 0 0 1 1.368.36z" clip-rule="evenodd" opacity="1" data-original="url(#a)"></path></g></svg>