<svg xmlns="http://www.w3.org/2000/svg" version="1.1" xmlns:xlink="http://www.w3.org/1999/xlink" xmlns:svgjs="http://svgjs.com/svgjs" width="512" height="512" x="0" y="0" viewBox="0 0 512 512" style="enable-background:new 0 0 512 512" xml:space="preserve" class=""><g><path fill="#8e88a4" d="M320.9 443.9H54.8c-27.1 0-46.4-26.4-38.1-52.2L40.6 317c11-34.4 48-52.8 82.3-41.4 17.7 5.9 39.3 10.1 64.9 10.1s47.3-4.3 64.9-10.1c34.3-11.4 71.3 7 82.3 41.4l23.9 74.7c8.4 25.8-10.9 52.2-38 52.2z" data-original="#1e88e5" class=""></path><circle cx="187.9" cy="159.9" r="91.7" fill="#605b71" data-original="#90caf9" class=""></circle><path fill="#8e88a4" d="M457.2 443.9h-91.5c1.3-1.5 2.5-3 3.7-4.6 11.4-15.7 14.6-35.2 8.7-53.7l-23.9-74.7c-.5-1.6-1-3.1-1.6-4.7 17.8-.4 33.3-3.1 46.5-6.9 33.9-9.9 69.5 8.9 80.2 42.5l16 49.8c8.2 25.9-11 52.3-38.1 52.3z" data-original="#1e88e5" class=""></path><path fill="#605b71" d="M435.2 165c0 47.8-38.8 86.6-86.6 86.6-26.8 0-50.8-12.2-66.7-31.4 11.2-17.4 17.8-38.2 17.8-60.4 0-19.7-5.1-38.2-14.1-54.3 15.8-16.8 38.2-27.2 63-27.2 47.8.1 86.6 38.8 86.6 86.7z" data-original="#90caf9" class=""></path></g></svg>