<svg width="24" height="24" xmlns="http://www.w3.org/2000/svg" xml:space="preserve" version="1.1">

 <g>
  <title>Layer 1</title>
  <g id="svg_1">
   <path id="svg_2" data-original="#000000" d="m16.75,3.56l0,-1.56c0,-0.41 -0.34,-0.75 -0.75,-0.75s-0.75,0.34 -0.75,0.75l0,1.5l-6.5,0l0,-1.5c0,-0.41 -0.34,-0.75 -0.75,-0.75s-0.75,0.34 -0.75,0.75l0,1.56c-2.7,0.25 -4.01,1.86 -4.21,4.25c-0.02,0.29 0.22,0.53 0.5,0.53l16.92,0c0.29,0 0.53,-0.25 0.5,-0.53c-0.2,-2.39 -1.51,-4 -4.21,-4.25z" fill="#605b71"/>
   <path id="svg_3" data-original="#aaaaaa" d="m21,10.84l0,1.74c0,0.61 -0.54,1.08 -1.14,0.98c-0.28,-0.04 -0.57,-0.07 -0.86,-0.07a5.51,5.51 0 0 0 -5.5,5.5c0,0.46 0.18,1.1 0.37,1.68a0.998,0.998 0 0 1 -0.95,1.32l-4.92,0c-3.5,0 -5,-2 -5,-5l0,-6.16c0,-0.55 0.45,-1 1,-1l16,0c0.55,0.01 1,0.46 1,1.01z" fill="#8e88a4"/>
   <g id="svg_4" fill="#000">
    <path id="svg_5" data-original="#000000" fill="#605b71" d="m19,15c-2.21,0 -4,1.79 -4,4c0,0.75 0.21,1.46 0.58,2.06c0.69,1.16 1.96,1.94 3.42,1.94s2.73,-0.78 3.42,-1.94c0.37,-0.6 0.58,-1.31 0.58,-2.06c0,-2.21 -1.79,-4 -4,-4zm2.07,3.57l-2.13,1.97c-0.14,0.13 -0.33,0.2 -0.51,0.2c-0.19,0 -0.38,-0.07 -0.53,-0.22l-0.99,-0.99c-0.29,-0.29 -0.29,-0.77 0,-1.06s0.77,-0.29 1.06,0l0.48,0.48l1.6,-1.48c0.3,-0.28 0.78,-0.26 1.06,0.04s0.26,0.77 -0.04,1.06zm-12.57,-3.57c-0.26,0 -0.52,-0.11 -0.71,-0.29c-0.18,-0.19 -0.29,-0.45 -0.29,-0.71s0.11,-0.52 0.29,-0.71c0.23,-0.23 0.58,-0.34 0.91,-0.27c0.06,0.01 0.12,0.03 0.18,0.06c0.06,0.02 0.12,0.05 0.18,0.09l0.15,0.12c0.18,0.19 0.29,0.45 0.29,0.71s-0.11,0.52 -0.29,0.71l-0.15,0.12c-0.06,0.04 -0.12,0.07 -0.18,0.09c-0.06,0.03 -0.12,0.05 -0.18,0.06c-0.07,0.01 -0.14,0.02 -0.2,0.02zm3.5,0c-0.26,0 -0.52,-0.11 -0.71,-0.29c-0.18,-0.19 -0.29,-0.45 -0.29,-0.71s0.11,-0.52 0.29,-0.71c0.38,-0.37 1.05,-0.37 1.42,0c0.18,0.19 0.29,0.45 0.29,0.71s-0.11,0.52 -0.29,0.71c-0.19,0.18 -0.45,0.29 -0.71,0.29zm-3.5,3.5c-0.26,0 -0.52,-0.11 -0.71,-0.29c-0.18,-0.19 -0.29,-0.45 -0.29,-0.71s0.11,-0.52 0.29,-0.71c0.1,-0.09 0.2,-0.16 0.33,-0.21c0.37,-0.16 0.81,-0.07 1.09,0.21c0.18,0.19 0.29,0.45 0.29,0.71s-0.11,0.52 -0.29,0.71c-0.19,0.18 -0.45,0.29 -0.71,0.29z"/>
   </g>
  </g>
  <path transform="rotate(-27.435 9.06055 15.1392)" id="svg_9" d="m4.50066,15.13922l0.87086,-1.92436l2.27993,-1.18933l2.81819,0l2.27994,1.18933l0.87085,1.92436l-0.87085,1.92436l-2.27994,1.18933l-2.81819,0l-2.27993,-1.18933l-0.87086,-1.92436z" stroke-width="0" fill="#8e88a4"/>
 </g>
</svg>