<svg xmlns="http://www.w3.org/2000/svg" version="1.1" xmlns:xlink="http://www.w3.org/1999/xlink" width="512" height="512" x="0" y="0" viewBox="0 0 512 512" style="enable-background:new 0 0 512 512" xml:space="preserve"><g transform="matrix(0.8700000000000009,0,0,0.8700000000000009,33.27749372856769,33.280063650890725)"><linearGradient id="a" x1="0" x2="511.961" y1="256" y2="256" gradientUnits="userSpaceOnUse"><stop stop-opacity="1" stop-color="#ad66cc" offset="0"></stop><stop stop-opacity="1" stop-color="#b460ca" offset="0.021"></stop><stop stop-opacity="1" stop-color="#a36fcf" offset="0.3166023166023166"></stop><stop stop-opacity="1" stop-color="#9678d3" offset="0.5637065637065637"></stop><stop stop-opacity="1" stop-color="#8e7ed5" offset="0.796"></stop><stop stop-opacity="1" stop-color="#8584d7" offset="1"></stop></linearGradient><path fill="url(#a)" d="M508.387 267.21c-7.25 17.485-24.172 28.778-43.11 28.778h-62.289v58.004c0 11.047-8.953 20-20 20s-20.004-8.953-20.004-20v-78.004c0-11.047 8.957-20 20.004-20h82.29c3.878 0 5.523-2.566 6.156-4.097.77-1.856 1.144-4.606-1.43-7.184L271.383 45.828c-7.813-7.797-20.547-7.797-28.38.02L41.899 244.766c-2.515 2.511-2.14 5.265-1.375 7.12.637 1.532 2.278 4.102 6.165 4.102h86.289c11.046 0 20 8.957 20 20v78.004c0 11.047-8.954 20.004-20 20.004-11.047 0-20.004-8.957-20.004-20.004v-58H46.688c-18.958 0-35.883-11.312-43.125-28.812-7.235-17.48-3.254-37.418 10.14-50.79L214.81 17.478c23.343-23.313 61.441-23.313 84.855.062L498.31 216.441c13.363 13.383 17.316 33.309 10.078 50.77zM132.977 472c-11.047 0-20.004 8.953-20.004 20s8.957 20 20.004 20c11.046 0 20-8.953 20-20s-8.954-20-20-20zm0-70.004c-11.047 0-20.004 8.953-20.004 20s8.957 20 20.004 20c11.046 0 20-8.953 20-20s-8.954-20-20-20zM382.984 472c-11.043 0-20 8.953-20 20s8.957 20 20 20c11.047 0 20.004-8.953 20.004-20s-8.957-20-20.004-20zm0-70.004c-11.043 0-20 8.953-20 20s8.957 20 20 20c11.047 0 20.004-8.953 20.004-20s-8.957-20-20.004-20zM268.617 254.988H250.29c-8.812 0-16.258-7.785-16.258-17v-7.293c0-8.957 6.989-15.707 16.258-15.707h17.328c5.098 0 10.363 3.41 10.363 9.117 0 11.043 8.957 20 20 20 11.047 0 20.004-8.957 20.004-20 0-23.972-17.703-43.972-41.023-48.257v-12.864c0-11.047-8.953-20-20-20s-20 8.953-20 20v13.551c-9.899 2.336-18.969 7.27-26.32 14.465-10.711 10.48-16.61 24.578-16.61 39.695v7.293c0 31.43 25.235 57.004 56.258 57.004h18.328c9.176 0 16.363 6.957 16.363 15.84v12.16c0 9.848-8.23 15-16.363 15h-29.789c-4.762 0-9.89-2.738-9.89-8.75 0-11.047-8.954-20-20-20s-20 8.953-20 20c0 26.727 20.945 47.778 48.023 48.707v11.047c0 11.047 8.953 20 20 20s20-8.953 20-20v-11.582c27.516-3.828 48.023-26.355 48.023-54.422v-12.16c0-15.113-5.914-29.23-16.656-39.754-10.594-10.375-24.7-16.09-39.71-16.09zm0 0" opacity="1" data-original="url(#a)"></path></g></svg>