<svg xmlns="http://www.w3.org/2000/svg" version="1.1" xmlns:xlink="http://www.w3.org/1999/xlink" width="512" height="512" x="0" y="0" viewBox="0 0 512 512" style="enable-background:new 0 0 512 512" xml:space="preserve" class=""><g transform="matrix(0.8700000000000008,0,0,0.8700000000000008,33.2799999999998,33.214999992663195)"><linearGradient id="a" x1="0" x2="512" y1="255.501" y2="255.501" gradientUnits="userSpaceOnUse"><stop stop-opacity="1" stop-color="#b460ca" offset="0"></stop><stop stop-opacity="1" stop-color="#ad66cc" offset="0.023166023166023165"></stop><stop stop-opacity="1" stop-color="#a36fcf" offset="0.3127413127413127"></stop><stop stop-opacity="1" stop-color="#9678d3" offset="0.5598455598455598"></stop><stop stop-opacity="1" stop-color="#8e7ed5" offset="0.806949806949807"></stop><stop stop-opacity="1" stop-color="#8584d7" offset="1"></stop></linearGradient><path fill="url(#a)" d="M512 59.883v79.844c0 11.023-8.938 19.96-19.96 19.96-11.024 0-19.962-8.937-19.962-19.96V68.152L172.805 367.426c-3.899 3.898-9.004 5.844-14.114 5.844s-10.218-1.946-14.117-5.844c-7.793-7.797-7.793-20.434 0-28.23L443.848 39.921h-72.575c-11.023 0-19.96-8.938-19.96-19.961C351.313 8.938 360.25 0 371.273 0h80.844C485.137 0 512 26.863 512 59.883zm-26.469 140.941c-10.902 1.621-18.43 11.778-16.808 22.68a218.425 218.425 0 0 1 2.355 31.996c0 42.508-12.64 83.883-36.555 119.652-6.125 9.164-3.664 21.563 5.5 27.688a19.88 19.88 0 0 0 11.079 3.367c6.441 0 12.761-3.11 16.609-8.867C496.03 354.98 511 305.934 511 255.5c0-12.676-.937-25.414-2.79-37.867-1.62-10.903-11.772-18.43-22.679-16.809zM367.02 440.035c-33.528 20.309-72.09 31.043-111.52 31.043-118.871 0-215.578-96.707-215.578-215.578S136.629 39.922 255.5 39.922c11.34 0 22.719.887 33.824 2.637 10.89 1.707 21.11-5.723 22.824-16.614 1.715-10.89-5.722-21.11-16.613-22.824A258.268 258.268 0 0 0 255.5 0C187.254 0 123.094 26.578 74.832 74.832 26.574 123.094 0 187.254 0 255.5s26.574 132.41 74.832 180.668C123.094 484.426 187.254 511 255.5 511c46.723 0 92.438-12.73 132.203-36.82 9.43-5.711 12.445-17.985 6.735-27.414-5.715-9.43-17.989-12.442-27.418-6.73zm-193.36-304.3c27.516 0 49.903 22.386 49.903 49.902s-22.387 49.902-49.903 49.902-49.902-22.387-49.902-49.902 22.387-49.903 49.902-49.903zm0 39.921c-5.504 0-9.98 4.477-9.98 9.98 0 5.505 4.476 9.981 9.98 9.981s9.98-4.476 9.98-9.98c0-5.504-4.476-9.98-9.98-9.98zm164.68 199.61c-27.516 0-49.902-22.387-49.902-49.903s22.386-49.902 49.902-49.902 49.902 22.387 49.902 49.902-22.387 49.903-49.902 49.903zm0-39.922c5.504 0 9.98-4.477 9.98-9.98 0-5.505-4.476-9.981-9.98-9.981s-9.98 4.476-9.98 9.98c0 5.504 4.476 9.98 9.98 9.98zm0 0" opacity="1" data-original="url(#a)" class=""></path></g></svg>