<svg xmlns="http://www.w3.org/2000/svg" version="1.1" xmlns:xlink="http://www.w3.org/1999/xlink" width="512" height="512" x="0" y="0" viewBox="0 0 512 512" style="enable-background:new 0 0 512 512" xml:space="preserve"><g transform="matrix(0.8700000000000004,0,0,0.8700000000000004,33.27974567981255,33.27999999999989)"><linearGradient id="a" x1=".001" x2="511.998" y1="256" y2="256" gradientUnits="userSpaceOnUse"><stop stop-opacity="1" stop-color="#b460ca" offset="0"></stop><stop stop-opacity="1" stop-color="#ad66cc" offset="0.03088803088803089"></stop><stop stop-opacity="1" stop-color="#a36fcf" offset="0.293"></stop><stop stop-opacity="1" stop-color="#9678d3" offset="0.5637065637065637"></stop><stop stop-opacity="1" stop-color="#8e7ed5" offset="0.803088803088803"></stop><stop stop-opacity="1" stop-color="#8584d7" offset="1"></stop></linearGradient><path fill="url(#a)" d="m501.254 370.79-38.024-38.02c-7.808-7.81-20.472-7.81-28.285 0-7.808 7.812-7.808 20.472.004 28.285l31.965 31.965-53.816.125c-11.008.023-19.93 8.945-19.953 19.953l-.125 53.925L290.562 364.73C375.555 348.512 440 273.648 440 184 440 82.543 357.457 0 256 0S72 82.543 72 184c0 35.79 10.281 69.219 28.031 97.508l-89.285 89.281C3.754 377.777-.059 386.996 0 396.742c.062 9.844 4.152 19.438 11.219 26.328 6.761 6.59 15.613 9.996 25.64 9.93l42.04.098.097 41.98c-.082 9.703 3.469 18.777 10.024 25.563 6.882 7.129 16.476 11.27 26.32 11.355h.32c9.613 0 18.695-3.793 25.594-10.695L256 386.75l114.73 114.54c6.915 6.913 15.997 10.71 25.606 10.71h.32c9.848-.086 19.442-4.227 26.324-11.355 6.551-6.79 10.106-15.86 10.02-25.567l.098-41.98L475.14 433h.394c9.856 0 18.574-3.426 25.242-9.93 7.07-6.89 11.157-16.484 11.22-26.328.062-9.746-3.755-18.965-10.743-25.953zM256 40c79.402 0 144 64.598 144 144s-64.598 144-144 144-144-64.598-144-144S176.598 40 256 40zM118.98 467.02l-.125-53.922c-.027-11.008-8.945-19.93-19.953-19.953l-53.82-.125 79.938-79.934c25.687 26.062 59.066 44.516 96.421 51.644zM284 220.75v-.5c0-8.984-7.34-16.297-16.367-16.297h-18.324c-30.774 0-55.856-24.969-56.25-55.812-.004-.145-.004-.29-.004-.434v-.297c0-.144 0-.289.004-.433.187-14.84 6.066-28.649 16.601-38.961 7.356-7.196 16.422-12.13 26.32-14.465V80c0-11.047 8.954-20 20-20s20 8.953 20 20v12.86C299.3 97.144 317 117.147 317 141.116c0 11.043-8.953 20-20 20s-20-8.957-20-20c0-5.707-5.27-9.117-10.36-9.117H249.31c-9.215 0-16.176 6.676-16.254 15.559.078 9.054 7.34 16.394 16.254 16.394h18.324c31.082 0 56.367 25.254 56.367 56.293v.5c0 28.2-20.508 50.824-48.02 54.668V287c0 11.047-8.953 20-20 20s-20-8.953-20-20v-11.047c-27.074-.933-48.02-22.094-48.02-48.953 0-11.047 8.954-20 20-20 11.048 0 20 8.953 20 20 0 5.91 4.977 9 9.892 9h29.785c9.328 0 16.363-6.559 16.363-15.25zm0 0" opacity="1" data-original="url(#a)"></path></g></svg>