<?xml version="1.0" encoding="utf-8"?>
<svg viewBox="0 0 512 512" style="enable-background:new 0 0 512 512" xmlns="http://www.w3.org/2000/svg">
  <g transform="matrix(0.8700000047683716, 0, 0, 0.8700000047683716, 33.28006362915039, 33.269535064697266)">
    <linearGradient id="a" x1="0" x2="512" y1="255.919" y2="255.919" gradientUnits="userSpaceOnUse">
      <stop stop-opacity="1" stop-color="#b460ca" offset="0"/>
      <stop stop-opacity="1" stop-color="#ad66cc" offset="0.0193"/>
      <stop stop-opacity="1" stop-color="#a36fcf" offset="0.293"/>
      <stop stop-opacity="1" stop-color="#9678d3" offset="0.5598"/>
      <stop stop-opacity="1" stop-color="#8e7ed5" offset="0.796"/>
      <stop stop-opacity="1" stop-color="#8584d7" offset="1"/>
    </linearGradient>
    <path fill="url(#a)" d="M 471.852 241.926 L 471.852 282.91 C 471.852 293.953 480.801 302.906 491.844 302.906 C 502.887 302.906 511.836 293.953 511.836 282.91 L 511.836 160.988 C 511.836 116.891 475.961 81.012 431.863 81.012 L 345.816 81.012 L 345.816 54.945 C 345.816 24.648 321.168 0 290.871 0 L 220.965 0 C 190.668 0 166.02 24.648 166.02 54.945 L 166.02 81.012 L 79.973 81.012 C 35.875 81.012 0 116.887 0 160.984 L 0 393.91 C 0 438.008 35.875 473.887 79.973 473.887 L 248.922 473.887 C 259.965 473.887 268.914 464.934 268.914 453.891 C 268.914 442.851 259.964 433.898 248.922 433.898 L 79.972 433.898 C 57.926 433.898 39.988 415.961 39.988 393.91 L 39.988 241.926 L 236.926 241.926 L 236.926 271.953 C 236.926 282.993 245.875 291.945 256.918 291.945 C 267.961 291.945 276.91 282.992 276.91 271.953 L 276.91 241.926 L 471.852 241.926 Z M 206.008 54.946 C 206.008 46.699 212.718 39.988 220.965 39.988 L 290.871 39.988 C 299.117 39.988 305.828 46.695 305.828 54.945 L 305.828 81.012 L 206.008 81.012 L 206.008 54.946 Z M 39.988 160.987 C 39.988 138.937 57.926 120.999 79.973 120.999 L 431.863 120.999 C 453.91 120.999 471.852 138.937 471.852 160.987 L 471.852 201.937 L 39.988 201.937 L 39.988 160.987 Z" opacity="1" data-original="url(#a)"/>
  </g>
  <g transform="matrix(0.649850070476532, 0, 0, 0.5945300459861755, 208.01602172851562, 228.1324768066406)" style="">
    <linearGradient id="gradient-1" x1="0" x2="511.961" y1="255.981" y2="255.981" gradientUnits="userSpaceOnUse" gradientTransform="matrix(1.050784, 0, 0, 1.105572, -6.296259, -14.355241)">
      <stop stop-opacity="1" stop-color="#b460ca" offset="0"/>
      <stop stop-opacity="1" stop-color="#ad66cc" offset="0.021"/>
      <stop stop-opacity="1" stop-color="#a36fcf" offset="0.3012"/>
      <stop stop-opacity="1" stop-color="#9678d3" offset="0.5521"/>
      <stop stop-opacity="1" stop-color="#8e7ed5" offset="0.796"/>
      <stop stop-opacity="1" stop-color="#8584d7" offset="1"/>
    </linearGradient>
    <path fill="url(#gradient-1)" d="M 190.599 368.706 L 303.998 147.592 C 309.512 136.845 322.259 132.834 332.473 138.633 C 342.689 144.431 346.501 157.845 340.989 168.593 L 227.588 389.707 C 223.79 397.114 216.551 401.322 209.076 401.322 C 205.706 401.322 202.289 400.467 199.115 398.665 C 188.901 392.868 185.087 379.454 190.599 368.706 Z M 176.52 246.539 C 147.55 246.539 123.981 221.741 123.981 191.26 C 123.981 160.779 147.55 135.981 176.52 135.981 C 205.49 135.981 229.059 160.779 229.059 191.26 C 229.059 221.741 205.49 246.539 176.52 246.539 Z M 187.028 191.26 C 187.028 185.164 182.314 180.204 176.52 180.204 C 170.726 180.204 166.012 185.164 166.012 191.26 C 166.012 197.356 170.726 202.316 176.52 202.316 C 182.314 202.316 187.028 197.356 187.028 191.26 Z M 297.36 346.04 C 297.36 315.559 320.929 290.761 349.9 290.761 C 378.87 290.761 402.439 315.559 402.439 346.04 C 402.439 376.521 378.87 401.319 349.9 401.319 C 320.929 401.319 297.36 376.521 297.36 346.04 Z M 339.392 346.04 C 339.392 352.136 344.106 357.096 349.9 357.096 C 355.694 357.096 360.407 352.136 360.407 346.04 C 360.407 339.944 355.694 334.984 349.9 334.984 C 344.106 334.984 339.392 339.943 339.392 346.04 Z" opacity="1" data-original="url(#a)" style=""/>
  </g>
</svg>