<?xml version="1.0" encoding="utf-8"?>
<svg viewBox="0 0 512 512" style="enable-background:new 0 0 512 512" xmlns="http://www.w3.org/2000/svg">
  <g transform="matrix(0.8700000047683716, 0, 0, 0.8700000047683716, 33.28006362915039, 33.269535064697266)">
    <linearGradient id="a" x1="0" x2="512" y1="255.919" y2="255.919" gradientUnits="userSpaceOnUse">
      <stop stop-opacity="1" stop-color="#b460ca" offset="0"/>
      <stop stop-opacity="1" stop-color="#ad66cc" offset="0.0193"/>
      <stop stop-opacity="1" stop-color="#a36fcf" offset="0.293"/>
      <stop stop-opacity="1" stop-color="#9678d3" offset="0.5598"/>
      <stop stop-opacity="1" stop-color="#8e7ed5" offset="0.796"/>
      <stop stop-opacity="1" stop-color="#8584d7" offset="1"/>
    </linearGradient>
    <path fill="url(#a)" d="M 471.852 241.926 L 471.852 282.91 C 471.852 293.953 480.801 302.906 491.844 302.906 C 502.887 302.906 511.836 293.953 511.836 282.91 L 511.836 160.988 C 511.836 116.891 475.961 81.012 431.863 81.012 L 345.816 81.012 L 345.816 54.945 C 345.816 24.648 321.168 0 290.871 0 L 220.965 0 C 190.668 0 166.02 24.648 166.02 54.945 L 166.02 81.012 L 79.973 81.012 C 35.875 81.012 0 116.887 0 160.984 L 0 393.91 C 0 438.008 35.875 473.887 79.973 473.887 L 248.922 473.887 C 259.965 473.887 268.914 464.934 268.914 453.891 C 268.914 442.851 259.964 433.898 248.922 433.898 L 79.972 433.898 C 57.926 433.898 39.988 415.961 39.988 393.91 L 39.988 241.926 L 236.926 241.926 L 236.926 271.953 C 236.926 282.993 245.875 291.945 256.918 291.945 C 267.961 291.945 276.91 282.992 276.91 271.953 L 276.91 241.926 L 471.852 241.926 Z M 206.008 54.946 C 206.008 46.699 212.718 39.988 220.965 39.988 L 290.871 39.988 C 299.117 39.988 305.828 46.695 305.828 54.945 L 305.828 81.012 L 206.008 81.012 L 206.008 54.946 Z M 39.988 160.987 C 39.988 138.937 57.926 120.999 79.973 120.999 L 431.863 120.999 C 453.91 120.999 471.852 138.937 471.852 160.987 L 471.852 201.937 L 39.988 201.937 L 39.988 160.987 Z" opacity="1" data-original="url(#a)"/>
  </g>
  <g transform="matrix(0.649850070476532, 0, 0, 0.5945300459861755, 208.01602172851562, 228.1324768066406)" style="">
    <g transform="matrix(1.213135, 0, 0, 1.260051, -53.521236, 30.666006)" style="">
      <linearGradient id="gradient-2" x1=".001" x2="511.998" y1="256" y2="256" gradientUnits="userSpaceOnUse">
        <stop stop-opacity="1" stop-color="#b460ca" offset="0"/>
        <stop stop-opacity="1" stop-color="#ad66cc" offset="0.0309"/>
        <stop stop-opacity="1" stop-color="#a36fcf" offset="0.293"/>
        <stop stop-opacity="1" stop-color="#9678d3" offset="0.5637"/>
        <stop stop-opacity="1" stop-color="#8e7ed5" offset="0.8031"/>
        <stop stop-opacity="1" stop-color="#8584d7" offset="1"/>
      </linearGradient>
      <path fill="url(#gradient-2)" d="M 284 220.75 L 284 220.25 C 284 211.266 276.66 203.953 267.633 203.953 L 249.309 203.953 C 218.535 203.953 193.453 178.984 193.059 148.141 C 193.055 147.996 193.055 147.851 193.055 147.707 L 193.055 147.41 C 193.055 147.266 193.055 147.121 193.059 146.977 C 193.246 132.137 199.125 118.328 209.66 108.016 C 217.016 100.82 226.082 95.886 235.98 93.551 L 235.98 80 C 235.98 68.953 244.934 60 255.98 60 C 267.026 60 275.98 68.953 275.98 80 L 275.98 92.86 C 299.3 97.144 317 117.147 317 141.116 C 317 152.159 308.047 161.116 297 161.116 C 285.953 161.116 277 152.159 277 141.116 C 277 135.409 271.73 131.999 266.64 131.999 L 249.31 131.999 C 240.095 131.999 233.134 138.675 233.056 147.558 C 233.134 156.612 240.396 163.952 249.31 163.952 L 267.634 163.952 C 298.716 163.952 324.001 189.206 324.001 220.245 L 324.001 220.745 C 324.001 248.945 303.493 271.569 275.981 275.413 L 275.981 287 C 275.981 298.047 267.028 307 255.981 307 C 244.934 307 235.981 298.047 235.981 287 L 235.981 275.953 C 208.907 275.02 187.961 253.859 187.961 227 C 187.961 215.953 196.915 207 207.961 207 C 219.009 207 227.961 215.953 227.961 227 C 227.961 232.91 232.938 236 237.853 236 L 267.638 236 C 276.966 236 284.001 229.441 284.001 220.75 L 284 220.75 Z M 284 220.75" opacity="1" data-original="url(#a)"/>
    </g>
  </g>
</svg>