<svg xmlns="http://www.w3.org/2000/svg" version="1.1" xmlns:xlink="http://www.w3.org/1999/xlink" xmlns:svgjs="http://svgjs.com/svgjs" width="512" height="512" x="0" y="0" viewBox="0 0 512 512" style="enable-background:new 0 0 512 512" xml:space="preserve"><g><path fill-rule="evenodd" d="M422.024 236.248c28.983 32.117 50.59 59.982 64.82 84.966 52.112 91.501-22.022 184.436-121.305 182.763-99.283 1.673-173.417-91.262-121.305-182.763 14.23-24.984 35.838-52.849 64.82-84.966a36.206 36.206 0 0 0 10.953 1.689h91.063c3.815 0 7.495-.593 10.954-1.689zM53.467 8.001c-25.007 0-45.466 20.46-45.466 45.466v332.378c0 25.007 20.459 45.466 45.466 45.466h167.428c-16.364-39.101-11.413-81.406 9.437-118.015 4.259-7.478 8.931-14.889 13.912-22.211-2.881-1.864-4.795-5.106-4.795-8.781v-13.588c0-5.757 4.695-10.452 10.452-10.452h18.957c8.473-10.415 17.289-20.553 26.112-30.339a36.657 36.657 0 0 1-6.632-8.464h-38.437c-5.757 0-10.452-4.695-10.452-10.452V195.42c0-5.757 4.695-10.452 10.452-10.452h37.69a36.735 36.735 0 0 1 14.457-15.099l-10.862-10.861c-6.611-6.611-10.185-15.136-10.727-23.818H68.622c-5.757 0-10.452-4.695-10.452-10.452V83.713c0-5.757 4.695-10.452 10.452-10.452h229.947c5.757 0 10.452 4.695 10.452 10.452v13.153c7.376-1.692 15.221-1.129 22.391 1.812 4.848-11.604 15.364-20.036 27.779-22.209V53.467c0-25.006-20.46-45.466-45.466-45.466zm266.541 213.936c-11.228 0-20.412-9.185-20.412-20.412 0-11.226 9.185-20.411 20.412-20.411h91.063c11.227 0 20.412 9.185 20.412 20.412 0 11.225-9.185 20.411-20.412 20.411zM78.225 184.968h39.065c5.757 0 10.452 4.695 10.452 10.452v13.588c0 5.757-4.695 10.452-10.452 10.452H78.225c-5.757 0-10.452-4.695-10.452-10.452V195.42c0-5.757 4.695-10.452 10.452-10.452zm85.838 146.591c-5.757 0-10.452 4.695-10.452 10.452v13.588c0 5.757 4.695 10.452 10.452 10.452h39.065c5.757 0 10.452-4.695 10.452-10.452v-13.588c0-5.757-4.695-10.452-10.452-10.452zm-85.838 0h39.065c5.757 0 10.452 4.695 10.452 10.452v13.588c0 5.757-4.695 10.452-10.452 10.452H78.225c-5.757 0-10.452-4.695-10.452-10.452v-13.588c0-5.757 4.695-10.452 10.452-10.452zm85.838-73.296c-5.757 0-10.452 4.695-10.452 10.452v13.588c0 5.757 4.695 10.452 10.452 10.452h39.065c5.757 0 10.452-4.695 10.452-10.452v-13.588c0-5.757-4.695-10.452-10.452-10.452zm-85.838 0h39.065c5.757 0 10.452 4.695 10.452 10.452v13.588c0 5.757-4.695 10.452-10.452 10.452H78.225c-5.757 0-10.452-4.695-10.452-10.452v-13.588c0-5.756 4.695-10.452 10.452-10.452zm85.838-73.295h39.065c5.757 0 10.452 4.695 10.452 10.452v13.588c0 5.757-4.695 10.452-10.452 10.452h-39.065c-5.757 0-10.452-4.695-10.452-10.452V195.42c0-5.757 4.695-10.452 10.452-10.452zm200.429 223.019c-6.134-.16-12.089-1.821-16.836-4.983-4.296-2.861-7.578-7.046-8.949-12.544a9.254 9.254 0 0 0-17.973 4.421c2.589 10.385 8.712 18.237 16.704 23.56 5.459 3.636 11.799 6.039 18.438 7.21v7.201a9.277 9.277 0 0 0 18.553 0v-7.024c8.068-1.23 16.288-4.175 22.742-9.071 7.756-5.885 12.915-14.312 12.646-25.621a35.878 35.878 0 0 0-.223-3.407c-1.504-12.392-8.208-20.458-17.098-25.825-7.808-4.715-17.172-7.063-25.757-8.472-6.192-1.017-12.714-2.737-17.49-5.855-3.701-2.416-6.355-5.914-6.604-11.028-.269-5.534 2.147-9.999 5.954-13.094 2.982-2.424 6.786-4.109 10.91-4.939a29.766 29.766 0 0 1 5.091-.572 9.172 9.172 0 0 0 1.216-.007c2.28.033 4.577.326 6.82.894 6.896 1.748 13.174 6.293 16.481 14.168 1.981 4.723 7.417 6.945 12.139 4.964 4.723-1.981 6.945-7.417 4.964-12.139-5.822-13.866-16.906-21.878-29.091-24.966a44.516 44.516 0 0 0-2.7-.597v-7.188a9.278 9.278 0 0 0-18.553 0v7.327c-7.029 1.417-13.629 4.384-18.945 8.706-8.17 6.643-13.351 16.288-12.767 28.314.586 12.083 6.616 20.188 15.011 25.668 7.318 4.777 16.305 7.249 24.593 8.609 6.656 1.093 13.763 2.82 19.162 6.08 4.319 2.607 7.563 6.418 8.256 12.128.092.761.142 1.314.15 1.667.108 4.54-2.064 7.999-5.326 10.474-4.083 3.098-9.817 4.925-15.551 5.621-1.561.189-2.925.297-4.081.324l-.442.008a9.253 9.253 0 0 0-.784-.033 8.025 8.025 0 0 0-.66.021zm-44.571-242.872L302.5 147.694c-8.158-8.158-8.158-21.507 0-29.664 6.938-6.939 17.922-8.111 26.178-2.812 3.067 1.968 6.589 2.282 9.954.889 3.365-1.394 5.633-4.105 6.41-7.666 2.056-9.416 10.486-16.523 20.497-16.525 9.829 0 18.403 6.929 20.498 16.525.777 3.561 3.045 6.272 6.41 7.666 3.367 1.395 6.888 1.079 9.953-.889 8.111-5.206 19.1-4.267 26.178 2.81v.002c8.158 8.158 8.158 21.507 0 29.664l-17.421 17.421-.087-.001h-91.063z" clip-rule="evenodd" fill="#aa72cf" data-original="#000000"></path></g></svg>