<svg xmlns="http://www.w3.org/2000/svg" version="1.1" xmlns:xlink="http://www.w3.org/1999/xlink" xmlns:svgjs="http://svgjs.com/svgjs" width="512" height="512" x="0" y="0" viewBox="0 0 24 24" style="enable-background:new 0 0 512 512" xml:space="preserve" class=""><g><path fill="#4ab1d3" fill-rule="evenodd" d="M8 3.758A2.758 2.758 0 0 1 10.76 1h2.483A2.758 2.758 0 0 1 16 3.758c0 .584.632.949 1.138.657a2.758 2.758 0 0 1 3.768 1.01l1.241 2.15a2.758 2.758 0 0 1-1.01 3.768.758.758 0 0 0 0 1.314 2.758 2.758 0 0 1 1.01 3.768l-1.241 2.15a2.758 2.758 0 0 1-3.768 1.01.758.758 0 0 0-1.138.657A2.758 2.758 0 0 1 13.242 23h-2.483A2.758 2.758 0 0 1 8 20.242a.758.758 0 0 0-1.137-.657 2.758 2.758 0 0 1-3.768-1.01l-1.242-2.15a2.758 2.758 0 0 1 1.01-3.768.758.758 0 0 0 0-1.314 2.758 2.758 0 0 1-1.01-3.768l1.242-2.15a2.758 2.758 0 0 1 3.768-1.01A.758.758 0 0 0 8 3.758zM10.76 3a.758.758 0 0 0-.759.758c0 2.124-2.298 3.45-4.137 2.389a.758.758 0 0 0-1.036.278l-1.242 2.15a.758.758 0 0 0 .278 1.036c1.839 1.062 1.839 3.716 0 4.778a.758.758 0 0 0-.278 1.036l1.242 2.15a.758.758 0 0 0 1.036.278C7.702 16.79 10 18.118 10 20.242c0 .418.34.758.759.758h2.483c.419 0 .758-.34.758-.758 0-2.124 2.299-3.45 4.138-2.39a.758.758 0 0 0 1.036-.277l1.241-2.15a.758.758 0 0 0-.277-1.036c-1.84-1.062-1.84-3.716 0-4.778a.758.758 0 0 0 .277-1.036l-1.241-2.15a.758.758 0 0 0-1.036-.278C16.298 7.21 14 5.882 14 3.758A.758.758 0 0 0 13.242 3zM12 9a3 3 0 1 0 0 6 3 3 0 0 0 0-6zm-5 3a5 5 0 1 1 10 0 5 5 0 0 1-10 0z" clip-rule="evenodd" data-original="#000000" class="" opacity="1"></path></g></svg>