<?xml version="1.0" encoding="utf-8"?>
<svg viewBox="0 0 64 64" width="64" height="64" style="enable-background:new 0 0 512 512" xmlns="http://www.w3.org/2000/svg">
  <g transform="matrix(-1.19, 0, 0, -1.19, 70.080002, 70.080002)">
    <path d="M26 56h12a14.015 14.015 0 0 0 14-14V22A14.015 14.015 0 0 0 38 8H26a14.015 14.015 0 0 0-14 14 2 2 0 0 0 4 0 10.011 10.011 0 0 1 10-10h12a10.011 10.011 0 0 1 10 10v20a10.011 10.011 0 0 1-10 10H26a10.011 10.011 0 0 1-10-10 2 2 0 0 0-4 0 14.015 14.015 0 0 0 14 14z" fill="#8e88a4" data-original="#000000" opacity="1" class=""/>
    <path d="M12 32a2 2 0 0 0 2 2h14.172l-2.586 2.586a2 2 0 1 0 2.828 2.828l6-6a2 2 0 0 0 0-2.828l-6-6a2 2 0 0 0-2.828 2.828L28.172 30H14a2 2 0 0 0-2 2z" fill="#8e88a4" data-original="#000000" opacity="1" class=""/>
  </g>
</svg>