<svg xmlns="http://www.w3.org/2000/svg" version="1.1" xmlns:xlink="http://www.w3.org/1999/xlink" xmlns:svgjs="http://svgjs.com/svgjs" width="512" height="512" x="0" y="0" viewBox="0 0 64 64" style="enable-background:new 0 0 512 512" xml:space="preserve" class=""><g transform="matrix(1.1900000000000002,0,0,1.1900000000000002,-6.080000362396241,-6.080000362396241)"><path d="M26 56h12a14.015 14.015 0 0 0 14-14V22A14.015 14.015 0 0 0 38 8H26a14.015 14.015 0 0 0-14 14 2 2 0 0 0 4 0 10.011 10.011 0 0 1 10-10h12a10.011 10.011 0 0 1 10 10v20a10.011 10.011 0 0 1-10 10H26a10.011 10.011 0 0 1-10-10 2 2 0 0 0-4 0 14.015 14.015 0 0 0 14 14z" fill="#aa72cf" data-original="#000000" opacity="1" class=""></path><path d="M12 32a2 2 0 0 0 2 2h14.172l-2.586 2.586a2 2 0 1 0 2.828 2.828l6-6a2 2 0 0 0 0-2.828l-6-6a2 2 0 0 0-2.828 2.828L28.172 30H14a2 2 0 0 0-2 2z" fill="#aa72cf" data-original="#000000" opacity="1" class=""></path></g></svg>