<svg width="32" height="32" xmlns="http://www.w3.org/2000/svg" xml:space="preserve" version="1.1">

 <g>
  <title>Layer 1</title>
  <g id="svg_1" transform="matrix(0.9,0,0,0.9,1.5999999999999996,1.5999999999999996)">
   <path id="svg_2" data-original="#011839" d="m30,29l-2.5,0l0,-13l2,0c0.36,0 0.69,-0.19 0.86,-0.5c0.18,-0.31 0.18,-0.69 0,-1l-3.5,-6.13c-0.48,-0.85 -1.39,-1.37 -2.36,-1.37s-1.88,0.53 -2.36,1.37l-3.5,6.13a1,1 0 0 0 0.86,1.5l2,0l0,13l-2.5,0l0,-8.5a2.5,2.5 0 0 0 -2.5,-2.5l-1,0a2.5,2.5 0 0 0 -2.5,2.5l0,8.5l-2.5,0l0,-4.5a2.5,2.5 0 0 0 -2.5,-2.5l-1,0a2.5,2.5 0 0 0 -2.5,2.5l0,4.5l-2.5,0c-0.55,0 -1,0.45 -1,1s0.45,1 1,1l28,0c0.55,0 1,-0.45 1,-1s-0.45,-1 -1,-1zm-7.5,-15l-1.28,0l2.65,-4.64c0.26,-0.45 1,-0.45 1.26,0l2.65,4.64l-1.28,0c-0.55,0 -1,0.45 -1,1l0,14l-2,0l0,-14c0,-0.55 -0.45,-1 -1,-1zm-7.5,6.5c0,-0.28 0.22,-0.5 0.5,-0.5l1,0c0.28,0 0.5,0.22 0.5,0.5l0,8.5l-2,0l0,-8.5zm-8.5,4c0,-0.28 0.22,-0.5 0.5,-0.5l1,0c0.28,0 0.5,0.22 0.5,0.5l0,4.5l-2,0l0,-4.5z" fill="#8e88a4"/>
   <path id="svg_3" data-original="#7738c8" d="m9,17c4.41,0 8,-3.59 8,-8s-3.59,-8 -8,-8s-8,3.59 -8,8s3.59,8 8,8zm0.67,-7l-1.33,0c-1.29,0 -2.33,-1.05 -2.33,-2.33c0,-1.17 0.87,-2.14 2,-2.3l0,-0.37c0,-0.55 0.45,-1 1,-1s1,0.45 1,1l0,0.33l1,0c0.55,0 1,0.45 1,1s-0.45,1 -1,1l-2.67,0c-0.18,0 -0.33,0.15 -0.33,0.33s0.15,0.33 0.33,0.33l1.33,0c1.29,0 2.33,1.05 2.33,2.33c0,1.17 -0.87,2.14 -2,2.3l0,0.37c0,0.55 -0.45,1 -1,1s-1,-0.45 -1,-1l0,-0.33l-1,0c-0.55,0 -1,-0.45 -1,-1s0.45,-1 1,-1l2.67,0c0.18,0 0.33,-0.15 0.33,-0.33s-0.15,-0.33 -0.33,-0.33z" fill="#605b71"/>
  </g>
  <rect stroke-width="0" id="svg_4" height="8.64407" width="2.76836" y="19.33898" x="14.81356" fill="#8e88a4"/>
  <rect id="svg_5" height="5.19774" width="2.82486" y="22.78531" x="7.07345" fill="#8e88a4"/>
  <rect id="svg_6" height="13.33333" width="2.71186" y="14.59322" x="22.21469" fill="#8e88a4"/>
  <rect id="svg_7" height="2.71186" width="6.44068" y="11.88135" x="20.40678" fill="#8e88a4"/>
  <path stroke="null" id="svg_11" d="m19.73828,15.21075l3.84181,-6.49718l3.84181,6.49718l-7.68362,0z" fill="#8e88a4"/>
  <rect stroke="null" id="svg_12" height="2.25989" width="23.27684" y="25.49717" x="4.24859" fill="#26253e"/>
 </g>
</svg>