<svg xmlns="http://www.w3.org/2000/svg" version="1.1" xmlns:xlink="http://www.w3.org/1999/xlink" xmlns:svgjs="http://svgjs.com/svgjs" width="512" height="512" x="0" y="0" viewBox="0 0 24 24" style="enable-background:new 0 0 512 512" xml:space="preserve" class=""><g><g data-name="Layer 2"><path fill="#8e88a4" d="M4 13.25a1.24 1.24 0 0 1-1-.45 1.25 1.25 0 0 1 .2-1.8l4.91-4a3.22 3.22 0 0 1 2.08-.75 3.25 3.25 0 0 1 1.67.46l2.44 1.42a.87.87 0 0 0 .39.1.75.75 0 0 0 .53-.23l3.9-3.89a1.24 1.24 0 1 1 1.76 1.76L17 9.78a3.26 3.26 0 0 1-4 .49L10.57 8.8a.7.7 0 0 0-.38-.1.74.74 0 0 0-.48.17L4.8 13a1.23 1.23 0 0 1-.8.25z" data-original="#004fac" class=""></path><path fill="#605b71" d="M9 18.25A1.25 1.25 0 0 1 7.75 17v-4a1.25 1.25 0 0 1 2.5 0v4A1.25 1.25 0 0 1 9 18.25z" data-original="#8dd1ff" class=""></path><path fill="#605b71" d="M13.5 18.25A1.25 1.25 0 0 1 12.25 17v-4a1.25 1.25 0 0 1 2.5 0v4a1.25 1.25 0 0 1-1.25 1.25z" data-original="#3e96ed" class=""></path><path fill="#605b71" d="M18 18.25A1.25 1.25 0 0 1 16.75 17v-4a1.25 1.25 0 0 1 2.5 0v4A1.25 1.25 0 0 1 18 18.25z" data-original="#8dd1ff" class=""></path><path fill="#8e88a4" d="M6 22.25A3.26 3.26 0 0 1 2.75 19V3a1.25 1.25 0 0 1 2.5 0v16a.76.76 0 0 0 .75.75h14a1.25 1.25 0 0 1 0 2.5z" data-original="#004fac" class=""></path></g></g></svg>