<?xml version="1.0" encoding="utf-8"?>
<svg xml:space="preserve" viewBox="0 0 100 100" y="0" x="0" xmlns="http://www.w3.org/2000/svg" id="Layer_1" version="1.1" style="height: 100%; width: 100%; background: none; shape-rendering: auto;" width="168px" height="168px"><g class="ldl-scale" style="transform-origin: 50% 50%; transform: rotate(0deg) scale(0.8, 0.8);"><g class="ldl-ani"><g class="ldl-layer"><g class="ldl-ani" style="transform-origin: 50px 50px; transform: scale(0.91); animation: 1.11111s linear -0.833333s infinite normal forwards running breath-73d9a0a5-bf55-4bcf-b98f-6187c4b30183;"><path fill="#f7b26a" d="M87.9 19.5H12.1c-1.1 0-2.1.9-2.1 2.1v4c0 3.9 2 7.6 5.4 9.7l30.7 19.1c2.4 1.5 5.4 1.5 7.8 0l30.7-19.1c3.3-2.1 5.4-5.7 5.4-9.7v-4c0-1.2-.9-2.1-2.1-2.1z" style="fill: rgb(170, 114, 207);"></path></g></g><g class="ldl-layer"><g class="ldl-ani" style="transform-origin: 50px 50px; transform: scale(0.91); animation: 1.11111s linear -1.11111s infinite normal forwards running breath-73d9a0a5-bf55-4bcf-b98f-6187c4b30183;"><path fill="#f4e6c8" d="M46.1 61.1L10 38.6v39.8c0 1.1.9 2.1 2.1 2.1H88c1.1 0 2.1-.9 2.1-2.1V38.6L53.9 61.1c-2.4 1.5-5.4 1.5-7.8 0z" style="fill: rgb(142, 136, 164);"></path></g></g><metadata xmlns:d="https://loading.io/stock/"><d:name>mail</d:name><d:tags>email,envelope,packet,message,notification,information,letter,mail,web application</d:tags><d:license>by</d:license><d:slug>je0lta</d:slug></metadata></g></g><style id="breath-73d9a0a5-bf55-4bcf-b98f-6187c4b30183" data-anikit="">@keyframes breath-73d9a0a5-bf55-4bcf-b98f-6187c4b30183
{
  0% {
    animation-timing-function: cubic-bezier(0.9647,0.2413,-0.0705,0.7911);
    transform: scale(0.9099999999999999);
  }
  51% {
    animation-timing-function: cubic-bezier(0.9226,0.2631,-0.0308,0.7628);
    transform: scale(1.02994);
  }
  100% {
    transform: scale(0.9099999999999999);
  }
}</style><!-- [ldio] generated by https://loading.io/ --></svg>