<svg xmlns="http://www.w3.org/2000/svg" version="1.1" xmlns:xlink="http://www.w3.org/1999/xlink" xmlns:svgjs="http://svgjs.com/svgjs" width="512" height="512" x="0" y="0" viewBox="0 0 32 32" style="enable-background:new 0 0 512 512" xml:space="preserve" class=""><g transform="matrix(1.1599999999999995,0,0,1.1599999999999995,-2.5599999999999916,-2.5599999999999916)"><path d="M26.572 9.011 25.04 6.457A3.013 3.013 0 0 0 22.468 5H9.532A3.013 3.013 0 0 0 6.96 6.457L5.428 9.011c-.281.466-.428 1-.428 1.543V24c0 1.654 1.346 3 3 3h16c1.654 0 3-1.346 3-3V10.554c0-.543-.147-1.077-.428-1.543zM9.532 7h12.936c.35 0 .678.186.857.486L24.234 9H7.766l.909-1.515c.179-.299.508-.485.857-.485zM24 25H8c-.552 0-1-.449-1-1V11h18v13c0 .551-.448 1-1 1z" fill="#8e88a4" data-original="#000000" class="" opacity="1"></path><path d="M20 14h-8a1 1 0 1 0 0 2h8a1 1 0 1 0 0-2z" fill="#8e88a4" data-original="#000000" class="" opacity="1"></path></g></svg>